<svg xmlns="http://www.w3.org/2000/svg" viewBox="0 0 1920 1080" data-reactroot=""><defs><linearGradient id="bg-gradient" gradientTransform="rotate(90)"><stop offset="0%" stop-color="hsl(220, 100%, 30%)"></stop><stop offset="50%" stop-color="hsl(240, 100%, 20%)"></stop><stop offset="90%" stop-color="hsl(260, 100%, 10%)"></stop></linearGradient><filter id="blur-0"><feGaussianBlur in="SourceGraphic" stdDeviation="0"></feGaussianBlur></filter><filter id="blur-1"><feGaussianBlur in="SourceGraphic" stdDeviation="1"></feGaussianBlur></filter><filter id="blur-2"><feGaussianBlur in="SourceGraphic" stdDeviation="2"></feGaussianBlur></filter><filter id="blur-3"><feGaussianBlur in="SourceGraphic" stdDeviation="3"></feGaussianBlur></filter><filter id="blur-4"><feGaussianBlur in="SourceGraphic" stdDeviation="4"></feGaussianBlur></filter><filter id="blur-5"><feGaussianBlur in="SourceGraphic" stdDeviation="5"></feGaussianBlur></filter><filter id="blur-6"><feGaussianBlur in="SourceGraphic" stdDeviation="6"></feGaussianBlur></filter></defs><rect width="1920" height="1080" fill="url(#bg-gradient)"></rect><path d="M535,615 L526.7081560676551,617.6941330836326 L526.7082039324994,626.4126781955418 L521.5836104177449,619.359198899533 L513.2917960675006,622.0534230275097 L518.4164670292,615 L513.2917960675006,607.9465769724903 L521.5836104177449,610.640801100467 L526.7082039324994,603.5873218044582 L526.7081560676551,612.3058669163674 Z" stroke="hsla(236.94444444444446, 100%, 50%, 1)" stroke-width="0.6" filter="url(#blur--8)"></path><path d="M1885,317 L1822.1201835130512,337.43050921754684 L1822.1205464881202,403.54614298285895 L1783.2590456678988,350.0572583214588 L1720.3794535118798,370.4884579586151 L1759.2415416381,317 L1720.3794535118798,263.5115420413849 L1783.2590456678988,283.9427416785412 L1822.1205464881202,230.45385701714102 L1822.1201835130512,296.56949078245316 Z" stroke="hsla(209.35185185185185, 100%, 50%, 1)" stroke-width="4.55" filter="url(#blur--8)"></path><path d="M1229,1023 L1168.8841314904994,1042.532464856336 L1168.8844785106205,1105.7419169176783 L1131.7311755286505,1054.6041920216144 L1071.6155214893795,1074.1373169494452 L1108.7693859617,1023 L1071.6155214893795,971.8626830505549 L1131.7311755286505,991.3958079783856 L1168.8844785106205,940.2580830823216 L1168.8841314904994,1003.467535143664 Z" stroke="hsla(274.72222222222223, 100%, 50%, 1)" stroke-width="4.35" filter="url(#blur--8)"></path><path d="M213,800 L177.75966328753412,811.4500656054383 L177.75986671312234,848.5038823310529 L155.98034427541586,818.5265953230154 L120.7401332868777,829.9770478669161 L142.5199848741,800 L120.74013328687768,770.0229521330839 L155.98034427541586,781.4734046769846 L177.7598667131223,751.4961176689471 L177.75966328753412,788.5499343945617 Z" stroke="hsla(254.07407407407408, 100%, 50%, 1)" stroke-width="2.55" filter="url(#blur--8)"></path><path d="M1491,321 L1431.5751184848614,340.3079537660333 L1431.5754615162455,402.7908604013832 L1394.8492079938385,352.24092544665336 L1335.4245384837545,371.5495316971527 L1372.1513470426,321 L1335.4245384837545,270.4504683028473 L1394.8492079938385,289.75907455334664 L1431.5754615162455,239.2091395986168 L1431.5751184848614,301.6920462339667 Z" stroke="hsla(209.72222222222223, 100%, 50%, 1)" stroke-width="4.3" filter="url(#blur--8)"></path><path d="M437,545 L402.45065028189623,556.2255545151356 L402.45084971874735,592.5528258147576 L381.0983767406038,563.1633287480543 L346.54915028125265,574.3892626146237 L367.901945955,545 L346.54915028125265,515.6107373853763 L381.0983767406038,526.8366712519457 L402.45084971874735,497.4471741852423 L402.45065028189623,533.7744454848644 Z" stroke="hsla(230.46296296296296, 100%, 50%, 1)" stroke-width="2.5" filter="url(#blur--8)"></path><path d="M1389,200 L1320.5922875581546,222.2265979399685 L1320.5926824431199,294.1545951132202 L1278.3147859463954,235.96339092114744 L1209.9073175568801,258.19073997695483 L1252.1858529909,200 L1209.9073175568801,141.80926002304517 L1278.3147859463954,164.03660907885256 L1320.5926824431199,105.84540488677979 L1320.5922875581546,177.7734020600315 Z" stroke="hsla(198.51851851851853, 100%, 50%, 1)" stroke-width="4.95" filter="url(#blur--8)"></path><path d="M1598,530 L1559.3047283157237,542.5726210569519 L1559.3049516849971,583.2591649125286 L1535.3901819494763,550.3429281978208 L1496.6950483150029,562.9159741283785 L1520.6101794696,530 L1496.6950483150029,497.0840258716215 L1535.3901819494763,509.65707180217925 L1559.3049516849971,476.7408350874714 L1559.3047283157237,517.4273789430481 Z" stroke="hsla(229.07407407407408, 100%, 50%, 1)" stroke-width="2.8" filter="url(#blur--8)"></path><path d="M1209,236 L1145.429196518689,256.6550203078495 L1145.4295634824953,323.49719949915414 L1106.141013202711,269.42052489641986 L1042.5704365175047,290.07624321090753 L1081.8595805572,236 L1042.5704365175047,181.92375678909247 L1106.141013202711,202.57947510358017 L1145.429563482495,148.50280050084586 L1145.429196518689,215.34497969215047 Z" stroke="hsla(201.85185185185185, 100%, 50%, 1)" stroke-width="4.6" filter="url(#blur--8)"></path><path d="M96,228 L89.09013005637924,230.24511090302713 L89.09016994374947,237.51056516295154 L84.81967534812075,231.63266574961085 L77.90983005625053,233.87785252292474 L82.180389191,228 L77.90983005625053,222.12214747707526 L84.81967534812075,224.36733425038915 L89.09016994374947,218.48943483704846 L89.09013005637924,225.75488909697287 Z" stroke="hsla(201.11111111111111, 100%, 50%, 1)" stroke-width="0.5" filter="url(#blur--8)"></path><path d="M734,453 L720.1802601127584,457.49022180605425 L720.1803398874989,472.0211303259031 L711.6393506962415,460.2653314992217 L697.8196601125011,464.7557050458495 L706.360778382,453 L697.8196601125011,441.2442949541505 L711.6393506962415,445.7346685007783 L720.1803398874989,433.9788696740969 L720.1802601127584,448.50977819394575 Z" stroke="hsla(221.94444444444446, 100%, 50%, 1)" stroke-width="1" filter="url(#blur--8)"></path><path d="M610,259 L570.6137413213617,271.7971321472546 L570.613968679372,313.21022142882373 L546.2721494842883,279.7061947727819 L506.886031320628,292.503759380671 L531.2282183887,259 L506.886031320628,225.49624061932903 L546.2721494842883,238.29380522721814 L570.613968679372,204.78977857117624 L570.6137413213617,246.20286785274538 Z" stroke="hsla(203.98148148148147, 100%, 50%, 1)" stroke-width="2.85" filter="url(#blur--8)"></path><path d="M678,882 L664.8712471071206,886.2657107157515 L664.871322893124,900.070073809608 L656.7573831614294,888.9020649242606 L643.628677106876,893.167919793557 L651.7427394629,882 L643.628677106876,870.832080206443 L656.7573831614294,875.0979350757394 L664.871322893124,863.929926190392 L664.8712471071206,877.7342892842485 Z" stroke="hsla(261.66666666666663, 100%, 50%, 1)" stroke-width="0.95" filter="url(#blur--8)"></path><path d="M1884,392 L1878.4721040451034,393.7960887224217 L1878.4721359549997,399.60845213036123 L1875.0557402784966,394.9061325996887 L1869.5278640450003,396.70228201833976 L1872.9443113528,392 L1869.5278640450003,387.29771798166024 L1875.0557402784966,389.0938674003113 L1878.4721359549997,384.39154786963877 L1878.4721040451034,390.2039112775783 Z" stroke="hsla(216.2962962962963, 100%, 50%, 1)" stroke-width="0.4" filter="url(#blur--8)"></path><path d="M1053,74 L1022.5965722480687,83.87848797331934 L1022.5967477524977,115.84648671698676 L1003.8065715317314,89.98372929828776 L973.4032522475023,99.86255110086883 L992.1937124404,74 L973.4032522475023,48.137448899131186 L1003.8065715317314,58.01627070171225 L1022.5967477524977,32.15351328301324 L1022.5965722480687,64.12151202668066 Z" stroke="hsla(186.85185185185185, 100%, 50%, 1)" stroke-width="2.2" filter="url(#blur--8)"></path><path d="M826,129 L767.9570924735856,147.85893158542783 L767.9574275274956,208.8887473687929 L732.0852729242143,159.51439229673116 L674.0425724725044,178.37396119256775 L709.9152692044,129 L674.0425724725044,79.62603880743227 L732.0852729242143,98.48560770326884 L767.9574275274956,49.111252631207094 L767.9570924735856,110.14106841457217 Z" stroke="hsla(191.94444444444446, 100%, 50%, 1)" stroke-width="4.2" filter="url(#blur--8)"></path><path d="M988,988 L968.6523641578618,994.286310528476 L968.6524758424986,1014.6295824562643 L956.6950909747382,998.1714640989104 L937.3475241575014,1004.4579870641893 L949.3050897348,988 L937.3475241575014,971.5420129358107 L956.6950909747382,977.8285359010896 L968.6524758424986,961.3704175437357 L968.6523641578618,981.713689471524 Z" stroke="hsla(271.48148148148147, 100%, 50%, 1)" stroke-width="1.4" filter="url(#blur--8)"></path><path d="M1286,59 L1225.1931444961374,78.75697594663868 L1225.1934955049953,142.69297343397352 L1187.6131430634628,90.96745859657551 L1126.8065044950047,110.72510220173766 L1164.3874248808,59.00000000000001 L1126.8065044950047,7.274897798262373 L1187.6131430634628,27.0325414034245 L1225.1934955049953,-24.69297343397352 L1225.1931444961374,39.24302405336132 Z" stroke="hsla(185.46296296296296, 100%, 50%, 1)" stroke-width="4.4" filter="url(#blur--8)"></path><path d="M666,505 L645.2703901691377,511.7353327090814 L645.2705098312484,533.5316954888546 L632.4590260443623,515.8979972488326 L611.7294901687516,522.6335575687742 L624.541167573,505 L611.7294901687516,487.36644243122583 L632.4590260443623,494.10200275116745 L645.2705098312484,476.4683045111454 L645.2703901691377,498.2646672909186 Z" stroke="hsla(226.75925925925927, 100%, 50%, 1)" stroke-width="1.5" filter="url(#blur--8)"></path><path d="M832,645 L793.3047283157238,657.5726210569519 L793.304951684997,698.2591649125286 L769.3901819494763,665.3429281978208 L730.695048315003,677.9159741283785 L754.6101794696,645 L730.695048315003,612.0840258716215 L769.3901819494763,624.6570718021792 L793.304951684997,591.7408350874714 L793.3047283157238,632.4273789430481 Z" stroke="hsla(239.72222222222223, 100%, 50%, 1)" stroke-width="2.8" filter="url(#blur--8)"></path><path d="M136,1059 L90.39485837210299,1073.817731959979 L90.39512162874652,1121.76973007548 L62.20985729759701,1082.9755939474317 L16.604878371253477,1097.7938266513033 L44.7905686606,1059 L16.60487837125347,1020.2061733486968 L62.209857297597004,1035.0244060525683 L90.39512162874652,996.2302699245199 L90.39485837210299,1044.182268040021 Z" stroke="hsla(278.05555555555554, 100%, 50%, 1)" stroke-width="3.3" filter="url(#blur--7)"></path><path d="M1411,480 L1385.433481208603,488.30691034120036 L1385.4336287918732,515.1890911029207 L1369.6327987880468,493.4408632735602 L1344.0663712081268,501.7480543348215 L1359.8674400067,480 L1344.0663712081268,458.2519456651785 L1369.6327987880468,466.5591367264398 L1385.4336287918732,444.81090889707934 L1385.433481208603,471.69308965879964 Z" stroke="hsla(224.44444444444446, 100%, 50%, 1)" stroke-width="1.85" filter="url(#blur--7)"></path><path d="M1218,133 L1156.5021575017752,152.9814870369414 L1156.5025124993704,217.64402995026865 L1118.4951105982748,165.33072517153659 L1056.9974875006296,185.31288745403012 L1095.0054637999,133 L1056.9974875006296,80.68711254596991 L1118.4951105982748,100.66927482846341 L1156.5025124993704,48.355970049731326 L1156.5021575017752,113.0185129630586 Z" stroke="hsla(192.3148148148148, 100%, 50%, 1)" stroke-width="4.45" filter="url(#blur--7)"></path><path d="M587,875 L570.4163121353101,880.3882661672651 L570.4164078649987,897.8253563910837 L560.1672208354898,883.718397799066 L543.5835921350013,889.1068460550193 L553.8329340584,875 L543.5835921350013,860.8931539449807 L560.1672208354898,866.281602200934 L570.4164078649987,852.1746436089163 L570.4163121353101,869.6117338327349 Z" stroke="hsla(261.01851851851853, 100%, 50%, 1)" stroke-width="1.2" filter="url(#blur--7)"></path><path d="M1401,425 L1351.2489364059306,441.1647985017953 L1351.2492235949962,493.47606917325106 L1320.5016625064695,451.15519339719816 L1270.7507764050038,467.32053816505805 L1301.4988021752,425 L1270.7507764050038,382.67946183494195 L1320.5016625064695,398.84480660280184 L1351.2492235949962,356.52393082674894 L1351.2489364059306,408.8352014982047 Z" stroke="hsla(219.35185185185185, 100%, 50%, 1)" stroke-width="3.6" filter="url(#blur--7)"></path><path d="M937,335 L936.3090130056379,335.2245110903027 L936.3090169943749,335.9510565162951 L935.881967534812,335.3632665749611 L935.1909830056251,335.58778525229246 L935.6180389191,335 L935.1909830056251,334.41221474770754 L935.881967534812,334.6367334250389 L936.3090169943749,334.0489434837049 L936.3090130056379,334.7754889096973 Z" stroke="hsla(211.0185185185185, 100%, 50%, 1)" stroke-width="0.05" filter="url(#blur--7)"></path><path d="M1139,745 L1124.4892731183963,749.714732896357 L1124.4893568818738,764.9721868421982 L1115.5213182310536,752.6285980741828 L1101.0106431181262,757.3434902981419 L1109.9788173011,745 L1101.0106431181262,732.6565097018581 L1115.5213182310536,737.3714019258172 L1124.4893568818738,725.0278131578018 L1124.4892731183963,740.285267103643 Z" stroke="hsla(248.98148148148147, 100%, 50%, 1)" stroke-width="1.05" filter="url(#blur--7)"></path><path d="M1458,552 L1399.2661054792236,571.0834426757306 L1399.2664445218704,632.839803885088 L1362.9672404590265,582.8776588716922 L1304.2335554781296,601.9617464448602 L1340.5333081235,552 L1304.2335554781293,502.0382535551398 L1362.9672404590265,521.1223411283078 L1399.2664445218704,471.16019611491197 L1399.2661054792236,532.9165573242694 Z" stroke="hsla(231.11111111111111, 100%, 50%, 1)" stroke-width="4.25" filter="url(#blur--7)"></path><path d="M994,698 L989.8540780338276,699.3470665418163 L989.8541019662497,703.7063390977709 L987.2918052088725,700.1795994497666 L983.1458980337503,701.5267115137549 L985.7082335146,698 L983.1458980337503,694.4732884862451 L987.2918052088725,695.8204005502334 L989.8541019662497,692.293660902229 L989.8540780338276,696.6529334581837 Z" stroke="hsla(244.62962962962962, 100%, 50%, 1)" stroke-width="0.3" filter="url(#blur--7)"></path><path d="M404,128 L352.1759754228443,144.8383317727034 L352.1762745781211,199.3292387221365 L320.1475651109057,155.24499312208138 L268.323725421879,172.0838939219355 L300.3529189325,128 L268.3237254218789,83.91610607806453 L320.1475651109057,100.7550068779186 L352.176274578121,56.67076127786348 L352.1759754228443,111.16166822729657 Z" stroke="hsla(191.85185185185185, 100%, 50%, 1)" stroke-width="3.75" filter="url(#blur--7)"></path><path d="M1217,784 L1178.3047283157237,796.5726210569519 L1178.3049516849971,837.2591649125286 L1154.3901819494763,804.3429281978208 L1115.6950483150029,816.9159741283785 L1139.6101794696,784 L1115.6950483150029,751.0840258716215 L1154.3901819494763,763.6570718021792 L1178.3049516849971,730.7408350874714 L1178.3047283157237,771.4273789430481 Z" stroke="hsla(252.59259259259258, 100%, 50%, 1)" stroke-width="2.8" filter="url(#blur--7)"></path><path d="M1570,208 L1536.1416372762583,219.0010434248329 L1536.1418327243725,254.60176929846253 L1515.2164092057917,225.80006217309318 L1481.3581672756277,236.80147736233118 L1502.2839070359,208 L1481.3581672756275,179.19852263766882 L1515.2164092057917,190.19993782690682 L1536.1418327243723,161.39823070153747 L1536.1416372762583,196.99895657516709 Z" stroke="hsla(199.25925925925927, 100%, 50%, 1)" stroke-width="2.45" filter="url(#blur--7)"></path><path d="M261,419 L238.1974291860515,426.4088659799895 L238.19756081437328,450.38486503774004 L224.1049286487985,430.98779697371583 L201.30243918562672,438.3969133256516 L215.3952843303,419 L201.30243918562672,399.6030866743484 L224.1049286487985,407.01220302628417 L238.19756081437325,387.61513496225996 L238.1974291860515,411.5911340200105 Z" stroke="hsla(218.7962962962963, 100%, 50%, 1)" stroke-width="1.65" filter="url(#blur--7)"></path><path d="M1957,399 L1918.3047283157237,411.5726210569519 L1918.3049516849971,452.2591649125286 L1894.3901819494763,419.34292819782075 L1855.6950483150029,431.9159741283785 L1879.6101794696,399 L1855.6950483150029,366.0840258716215 L1894.3901819494763,378.65707180217925 L1918.3049516849971,345.7408350874714 L1918.3047283157237,386.4273789430481 Z" stroke="hsla(216.94444444444446, 100%, 50%, 1)" stroke-width="2.8" filter="url(#blur--7)"></path><path d="M1494,694 L1458.759663287534,705.4500656054383 L1458.7598667131224,742.5038823310529 L1436.980344275416,712.5265953230154 L1401.7401332868776,723.9770478669161 L1423.5199848741,694 L1401.7401332868776,664.0229521330839 L1436.980344275416,675.4734046769846 L1458.7598667131224,645.4961176689471 L1458.759663287534,682.5499343945617 Z" stroke="hsla(244.25925925925924, 100%, 50%, 1)" stroke-width="2.55" filter="url(#blur--7)"></path><path d="M1987,898 L1920.6652485412408,919.5530646690604 L1920.665631459995,989.3014255643347 L1879.6688833419594,932.8735911962642 L1813.334368540005,954.4273842200774 L1854.3317362336,898 L1813.334368540005,841.5726157799226 L1879.6688833419594,863.1264088037358 L1920.665631459995,806.6985744356653 L1920.6652485412408,876.4469353309396 Z" stroke="hsla(263.14814814814815, 100%, 50%, 1)" stroke-width="4.8" filter="url(#blur--7)"></path><path d="M1882,860 L1830.8669624172064,876.6138206824007 L1830.867257583746,930.3781822058413 L1799.2655975760936,886.8817265471204 L1748.132742416254,903.496108669643 L1779.7348800134,860 L1748.132742416254,816.503891330357 L1799.2655975760936,833.1182734528796 L1830.867257583746,789.6218177941587 L1830.8669624172064,843.3861793175993 Z" stroke="hsla(259.6296296296296, 100%, 50%, 1)" stroke-width="3.7" filter="url(#blur--7)"></path><path d="M1819,644 L1787.9055852537065,654.1029990636221 L1787.9057647468726,686.7975432332819 L1768.6885390665434,660.3469958732488 L1737.5942352531274,670.4503363531613 L1756.8117513595,644 L1737.5942352531274,617.5496636468387 L1768.6885390665434,627.6530041267512 L1787.9057647468726,601.2024567667181 L1787.9055852537065,633.8970009363779 Z" stroke="hsla(239.62962962962962, 100%, 50%, 1)" stroke-width="2.25" filter="url(#blur--7)"></path><path d="M1833,689 L1768.738209524327,709.8795313981523 L1768.73858047687,777.4482560154493 L1729.022980737523,722.7837914713809 L1664.76141952313,743.6640284632 L1704.4776194763,689 L1664.76141952313,634.3359715368 L1729.022980737523,655.2162085286191 L1768.73858047687,600.5517439845507 L1768.738209524327,668.1204686018477 Z" stroke="hsla(243.7962962962963, 100%, 50%, 1)" stroke-width="4.65" filter="url(#blur--7)"></path><path d="M857,485 L854.9270390169138,485.67353327090814 L854.9270509831248,487.85316954888543 L853.6459026044362,486.0897997248833 L851.5729490168752,486.76335575687744 L852.8541167573,485 L851.5729490168752,483.23664424312256 L853.6459026044362,483.9102002751167 L854.9270509831248,482.1468304511145 L854.9270390169138,484.32646672909186 Z" stroke="hsla(224.9074074074074, 100%, 50%, 1)" stroke-width="0.15" filter="url(#blur--7)"></path><path d="M972,827 L958.1802601127584,831.4902218060543 L958.1803398874989,846.0211303259031 L949.6393506962415,834.2653314992217 L935.8196601125011,838.7557050458495 L944.360778382,827 L935.8196601125011,815.2442949541505 L949.6393506962415,819.7346685007783 L958.1803398874989,807.9788696740969 L958.1802601127584,822.5097781939457 Z" stroke="hsla(256.5740740740741, 100%, 50%, 1)" stroke-width="1" filter="url(#blur--6)"></path><path d="M1544,674 L1535.7081560676552,676.6941330836326 L1535.7082039324994,685.4126781955418 L1530.583610417745,678.359198899533 L1522.2917960675006,681.0534230275097 L1527.4164670292,674 L1522.2917960675006,666.9465769724903 L1530.583610417745,669.640801100467 L1535.7082039324994,662.5873218044582 L1535.7081560676552,671.3058669163674 Z" stroke="hsla(242.4074074074074, 100%, 50%, 1)" stroke-width="0.6" filter="url(#blur--6)"></path><path d="M364,512 L336.36052022551695,520.9804436121085 L336.3606797749979,550.0422606518061 L319.278701392483,526.5306629984434 L291.6393202250021,535.511410091699 L308.721556764,512 L291.6393202250021,488.4885899083011 L319.278701392483,497.4693370015566 L336.3606797749979,473.95773934819385 L336.36052022551695,503.0195563878915 Z" stroke="hsla(227.4074074074074, 100%, 50%, 1)" stroke-width="2" filter="url(#blur--6)"></path><path d="M1360,691 L1292.2832745525166,713.0020868496658 L1292.2836654487448,784.203538596925 L1250.4328184115834,726.6001243461864 L1182.7163345512552,748.6029547246624 L1224.5678140718,691 L1182.7163345512552,633.3970452753376 L1250.4328184115834,655.3998756538136 L1292.2836654487448,597.796461403075 L1292.2832745525166,668.9979131503342 Z" stroke="hsla(243.98148148148147, 100%, 50%, 1)" stroke-width="4.9" filter="url(#blur--6)"></path><path d="M1200,192 L1170.2875592424307,201.65397688301664 L1170.2877307581227,232.8954302006916 L1151.9246039969194,207.62046272332668 L1122.2122692418773,217.27476584857635 L1140.5756735213,192 L1122.2122692418773,166.72523415142365 L1151.9246039969194,176.37953727667332 L1170.2877307581227,151.1045697993084 L1170.2875592424307,182.34602311698336 Z" stroke="hsla(197.77777777777777, 100%, 50%, 1)" stroke-width="2.15" filter="url(#blur--6)"></path><path d="M733,441 L722.6351950845689,444.3676663545407 L722.6352549156242,455.2658477444273 L716.2295130221811,446.4489986244163 L705.8647450843758,449.8167787843871 L712.2705837865,441 L705.8647450843758,432.1832212156129 L716.2295130221811,435.5510013755837 L722.6352549156242,426.73415225557267 L722.6351950845689,437.6323336454593 Z" stroke="hsla(220.83333333333331, 100%, 50%, 1)" stroke-width="0.75" filter="url(#blur--6)"></path><path d="M445,417 L389.72104045103396,434.960887224217 L389.7213595499958,493.0845213036123 L355.5574027849661,446.0613259968868 L300.2786404500042,464.02282018339787 L334.443113528,417 L300.2786404500042,369.9771798166022 L355.5574027849661,387.9386740031132 L389.7213595499958,340.9154786963877 L389.7210404510339,399.039112775783 Z" stroke="hsla(218.61111111111111, 100%, 50%, 1)" stroke-width="4" filter="url(#blur--6)"></path><path d="M206,98 L188.72532514094812,103.6127772575678 L188.72542485937367,121.77641290737884 L178.0491883703019,107.08166437402713 L160.77457514062633,112.69463130731182 L171.4509729775,98 L160.77457514062633,83.30536869268818 L178.0491883703019,88.91833562597287 L188.72542485937367,74.22358709262116 L188.72532514094812,92.38722274243219 Z" stroke="hsla(189.07407407407408, 100%, 50%, 1)" stroke-width="1.25" filter="url(#blur--6)"></path><path d="M857,221 L831.4334812086032,229.30691034120036 L831.433628791873,256.18909110292066 L815.6327987880468,234.44086327356015 L790.066371208127,242.74805433482152 L805.8674400067,221 L790.066371208127,199.25194566517848 L815.6327987880468,207.55913672643985 L831.433628791873,185.81090889707932 L831.4334812086032,212.69308965879964 Z" stroke="hsla(200.46296296296296, 100%, 50%, 1)" stroke-width="1.85" filter="url(#blur--6)"></path><path d="M1837,447 L1824.5622341014825,451.0411996254488 L1824.562305898749,464.11901729331277 L1816.8754156266173,453.53879834929955 L1804.437694101251,457.5801345412645 L1812.1247005438,447 L1804.437694101251,436.4198654587355 L1816.8754156266173,440.46120165070045 L1824.562305898749,429.88098270668723 L1824.5622341014825,442.9588003745512 Z" stroke="hsla(221.38888888888889, 100%, 50%, 1)" stroke-width="0.9" filter="url(#blur--6)"></path><path d="M1958,263 L1922.068676293172,274.67457669574105 L1922.0688837074972,312.454938847348 L1899.862311810228,281.88986189797646 L1863.9311162925028,293.56483311920863 L1886.1380237932,263 L1863.9311162925028,232.4351668807914 L1899.862311810228,244.11013810202357 L1922.0688837074972,213.545061152652 L1922.068676293172,251.32542330425895 Z" stroke="hsla(204.35185185185185, 100%, 50%, 1)" stroke-width="2.6" filter="url(#blur--6)"></path><path d="M625,840 L580.085845366465,854.5932208696763 L580.0861046343716,901.818673559185 L552.3278897627849,863.6123273724705 L507.41389536562843,878.2060413990107 L535.1725297415001,840 L507.41389536562843,801.7939586009893 L552.3278897627849,816.3876726275295 L580.0861046343716,778.181326440815 L580.085845366465,825.4067791303237 Z" stroke="hsla(257.77777777777777, 100%, 50%, 1)" stroke-width="3.25" filter="url(#blur--6)"></path><path d="M1500,1014 L1465.4506502818963,1025.2255545151356 L1465.4508497187473,1061.5528258147576 L1444.0983767406037,1032.1633287480543 L1409.5491502812527,1043.3892626146237 L1430.901945955,1014 L1409.5491502812527,984.6107373853763 L1444.0983767406037,995.8366712519457 L1465.4508497187473,966.4471741852424 L1465.4506502818963,1002.7744454848644 Z" stroke="hsla(273.8888888888889, 100%, 50%, 1)" stroke-width="2.5" filter="url(#blur--6)"></path><path d="M900,515 L892.3991430620172,517.4696219933298 L892.3991869381244,525.4616216792467 L887.7016428829328,518.995932324572 L880.1008130618756,521.4656377752173 L884.7984281101,515 L880.1008130618756,508.5343622247828 L887.7016428829328,511.0040676754281 L892.3991869381244,504.5383783207533 L892.3991430620172,512.5303780066702 Z" stroke="hsla(227.6851851851852, 100%, 50%, 1)" stroke-width="0.55" filter="url(#blur--6)"></path><path d="M724,1055 L690.1416372762583,1066.001043424833 L690.1418327243724,1101.6017692984626 L669.2164092057917,1072.8000621730932 L635.3581672756276,1083.8014773623313 L656.2839070359,1055 L635.3581672756276,1026.198522637669 L669.2164092057917,1037.1999378269068 L690.1418327243724,1008.3982307015375 L690.1416372762583,1043.998956575167 Z" stroke="hsla(277.68518518518516, 100%, 50%, 1)" stroke-width="2.45" filter="url(#blur--6)"></path><path d="M771,545 L759.2532210958448,548.8166885351461 L759.2532889043741,561.1679607770176 L751.9934480918052,551.1755317743384 L740.2467110956259,554.992349288972 L747.5066616247,545 L740.2467110956259,535.007650711028 L751.9934480918052,538.8244682256616 L759.2532889043741,528.8320392229824 L759.2532210958448,541.1833114648539 Z" stroke="hsla(230.46296296296296, 100%, 50%, 1)" stroke-width="0.85" filter="url(#blur--6)"></path><path d="M907,735 L862.7768323608271,749.3687097793736 L862.7770876399966,795.8676170428898 L835.4459222279729,758.2490607975095 L791.2229123600034,772.6182561467183 L818.5544908224,735 L791.2229123600034,697.3817438532817 L835.4459222279728,711.7509392024906 L862.7770876399966,674.1323829571102 L862.7768323608271,720.6312902206264 Z" stroke="hsla(248.05555555555554, 100%, 50%, 1)" stroke-width="3.2" filter="url(#blur--6)"></path><path d="M563,527 L497.35623553560276,548.3285535787577 L497.35661446562,617.3503690480396 L456.78691580714724,561.5103246213031 L391.14338553438,582.8395989677849 L431.7136973145,527 L391.14338553438,471.1604010322151 L456.7869158071472,492.4896753786969 L497.35661446562,436.6496309519604 L497.35623553560276,505.6714464212423 Z" stroke="hsla(228.7962962962963, 100%, 50%, 1)" stroke-width="4.75" filter="url(#blur--6)"></path><path d="M1096,527 L1082.1802601127586,531.4902218060543 L1082.180339887499,546.0211303259031 L1073.6393506962415,534.2653314992217 L1059.819660112501,538.7557050458495 L1068.360778382,527 L1059.819660112501,515.2442949541505 L1073.6393506962415,519.7346685007783 L1082.180339887499,507.9788696740969 L1082.1802601127586,522.5097781939457 Z" stroke="hsla(228.7962962962963, 100%, 50%, 1)" stroke-width="1" filter="url(#blur--6)"></path><path d="M1140,255 L1105.4506502818963,266.2255545151356 L1105.4508497187473,302.5528258147577 L1084.0983767406037,273.16332874805425 L1049.5491502812527,284.38926261462365 L1070.901945955,255 L1049.5491502812527,225.61073738537635 L1084.0983767406037,236.83667125194575 L1105.4508497187473,207.44717418524232 L1105.4506502818963,243.77444548486437 Z" stroke="hsla(203.61111111111111, 100%, 50%, 1)" stroke-width="2.5" filter="url(#blur--6)"></path><path d="M1670,693 L1614.721040451034,710.960887224217 L1614.721359549996,769.0845213036123 L1580.5574027849661,722.0613259968868 L1525.2786404500043,740.0228201833978 L1559.443113528,693 L1525.278640450004,645.9771798166022 L1580.5574027849661,663.9386740031132 L1614.7213595499957,616.9154786963877 L1614.721040451034,675.039112775783 Z" stroke="hsla(244.16666666666666, 100%, 50%, 1)" stroke-width="4" filter="url(#blur--5)"></path><path d="M1560,766 L1537.8884161804135,773.1843548896868 L1537.8885438199984,796.4338085214449 L1524.2229611139865,777.6245303987547 L1502.1114561800016,784.8091280733591 L1515.7772454112,766 L1502.1114561800016,747.1908719266409 L1524.2229611139865,754.3754696012453 L1537.8885438199984,735.5661914785551 L1537.8884161804135,758.8156451103132 Z" stroke="hsla(250.92592592592592, 100%, 50%, 1)" stroke-width="1.6" filter="url(#blur--5)"></path><path d="M296,531 L266.9785462367928,540.4294657927139 L266.9787137637478,570.9443736843964 L249.0426364621072,546.2571961483656 L220.0212862362522,555.6869805962839 L237.95763460220002,531 L220.0212862362522,506.3130194037161 L249.0426364621072,515.7428038516344 L266.9787137637478,491.05562631560355 L266.9785462367928,521.5705342072861 Z" stroke="hsla(229.16666666666666, 100%, 50%, 1)" stroke-width="2.1" filter="url(#blur--5)"></path><path d="M934,813 L873.8841314904994,832.532464856336 L873.8844785106204,895.7419169176784 L836.7311755286506,844.6041920216144 L776.6155214893796,864.1373169494452 L813.7693859617,813 L776.6155214893796,761.8626830505549 L836.7311755286506,781.3958079783856 L873.8844785106204,730.2580830823216 L873.8841314904994,793.467535143664 Z" stroke="hsla(255.27777777777777, 100%, 50%, 1)" stroke-width="4.35" filter="url(#blur--5)"></path><path d="M1601,402 L1569.9055852537065,412.10299906362206 L1569.9057647468726,444.7975432332819 L1550.6885390665434,418.34699587324883 L1519.5942352531274,428.4503363531613 L1538.8117513595,402 L1519.5942352531274,375.5496636468387 L1550.6885390665434,385.65300412675117 L1569.9057647468726,359.2024567667181 L1569.9055852537065,391.89700093637794 Z" stroke="hsla(217.22222222222223, 100%, 50%, 1)" stroke-width="2.25" filter="url(#blur--5)"></path><path d="M616,779 L572.4678193551892,793.1441986890709 L572.4680706456217,838.9165605265947 L545.5639546931608,801.8857942225484 L502.03192935437835,816.0304708944258 L528.9364519033,779 L502.0319293543783,741.9695291055742 L545.5639546931608,756.1142057774516 L572.4680706456217,719.0834394734053 L572.4678193551892,764.8558013109291 Z" stroke="hsla(252.12962962962962, 100%, 50%, 1)" stroke-width="3.15" filter="url(#blur--5)"></path><path d="M534,472 L510.5064421916894,479.6333770702922 L510.5065778087482,504.3359215540352 L495.98689618361055,484.3510635486769 L472.4934221912518,491.9846985779441 L487.0133232494,472 L472.4934221912518,452.0153014220559 L495.98689618361055,459.6489364513231 L510.5065778087482,439.6640784459648 L510.5064421916894,464.3666229297078 Z" stroke="hsla(223.7037037037037, 100%, 50%, 1)" stroke-width="1.7" filter="url(#blur--5)"></path><path d="M1724,759 L1677.7038713777408,774.0422430502817 L1677.7041386231215,822.7207865917753 L1649.091824832409,783.3388605223927 L1602.7958613768785,798.3816119035957 L1631.4086075797,759 L1602.7958613768785,719.6183880964043 L1649.091824832409,734.6611394776073 L1677.7041386231215,695.2792134082247 L1677.7038713777408,743.9577569497183 Z" stroke="hsla(250.27777777777777, 100%, 50%, 1)" stroke-width="3.35" filter="url(#blur--5)"></path><path d="M104,618 L65.99571531008583,630.3481099666492 L65.99593469062211,670.3081083962335 L42.508214414664174,637.9796616228597 L4.504065309377893,650.3281888760861 L27.9921405505,618 L4.504065309377893,585.671811123914 L42.50821441466417,598.0203383771403 L65.9959346906221,565.6918916037665 L65.99571531008583,605.6518900333508 Z" stroke="hsla(237.22222222222223, 100%, 50%, 1)" stroke-width="2.75" filter="url(#blur--5)"></path><path d="M914,562 L900.1802601127584,566.4902218060543 L900.1803398874989,581.0211303259031 L891.6393506962415,569.2653314992217 L877.8196601125011,573.7557050458495 L886.360778382,562 L877.8196601125011,550.2442949541505 L891.6393506962415,554.7346685007783 L900.1803398874989,542.9788696740969 L900.1802601127584,557.5097781939457 Z" stroke="hsla(232.03703703703704, 100%, 50%, 1)" stroke-width="1" filter="url(#blur--5)"></path><path d="M1236,493 L1177.9570924735856,511.85893158542785 L1177.9574275274956,572.8887473687929 L1142.0852729242145,523.5143922967312 L1084.0425724725044,542.3739611925678 L1119.9152692044,493 L1084.0425724725044,443.6260388074323 L1142.0852729242145,462.48560770326884 L1177.9574275274956,413.1112526312071 L1177.9570924735856,474.14106841457215 Z" stroke="hsla(225.64814814814815, 100%, 50%, 1)" stroke-width="4.2" filter="url(#blur--5)"></path><path d="M1903,189 L1870.5236112649825,199.5520212442275 L1870.5237987356224,233.69965626587222 L1850.4524741361677,206.073529023171 L1817.9762012643776,216.62590685774626 L1838.0478291977,189 L1817.9762012643776,161.37409314225377 L1850.4524741361677,171.926470976829 L1870.5237987356224,144.30034373412778 L1870.5236112649825,178.4479787557725 Z" stroke="hsla(197.5, 100%, 50%, 1)" stroke-width="2.35" filter="url(#blur--5)"></path><path d="M1343,49 L1320.8884161804135,56.18435488968679 L1320.8885438199984,79.43380852144492 L1307.2229611139865,60.62453039875473 L1285.1114561800016,67.80912807335915 L1298.7772454112,49 L1285.1114561800016,30.190871926640863 L1307.2229611139865,37.37546960124527 L1320.8885438199984,18.566191478555083 L1320.8884161804135,41.815645110313206 Z" stroke="hsla(184.53703703703704, 100%, 50%, 1)" stroke-width="1.6" filter="url(#blur--5)"></path><path d="M629,745 L599.2875592424307,754.6539768830166 L599.2877307581227,785.8954302006916 L580.9246039969192,760.6204627233267 L551.2122692418773,770.2747658485764 L569.5756735213,745 L551.2122692418773,719.7252341514237 L580.9246039969192,729.3795372766733 L599.2877307581227,704.1045697993084 L599.2875592424307,735.3460231169834 Z" stroke="hsla(248.98148148148147, 100%, 50%, 1)" stroke-width="2.15" filter="url(#blur--5)"></path><path d="M1080,836 L1035.776832360827,850.3687097793736 L1035.7770876399966,896.8676170428898 L1008.4459222279729,859.2490607975095 L964.2229123600034,873.6182561467183 L991.5544908224,836 L964.2229123600034,798.3817438532817 L1008.4459222279728,812.7509392024906 L1035.7770876399966,775.1323829571102 L1035.776832360827,821.6312902206264 Z" stroke="hsla(257.4074074074074, 100%, 50%, 1)" stroke-width="3.2" filter="url(#blur--5)"></path><path d="M1258,135 L1229.669533231155,144.20495470241121 L1229.6696967693729,173.9933171681013 L1212.160668927295,149.8939295734045 L1183.8303032306271,159.0991953439914 L1201.3395956831,135 L1183.8303032306271,110.9008046560086 L1212.160668927295,120.10607042659551 L1229.6696967693729,96.0066828318987 L1229.669533231155,125.7950452975888 Z" stroke="hsla(192.5, 100%, 50%, 1)" stroke-width="2.05" filter="url(#blur--5)"></path><path d="M1176,642 L1116.5751184848614,661.3079537660333 L1116.5754615162455,723.7908604013832 L1079.8492079938385,673.2409254466534 L1020.4245384837545,692.5495316971527 L1057.1513470426,642 L1020.4245384837545,591.4504683028473 L1079.8492079938385,610.7590745533466 L1116.5754615162455,560.2091395986167 L1116.5751184848614,622.6920462339667 Z" stroke="hsla(239.44444444444446, 100%, 50%, 1)" stroke-width="4.3" filter="url(#blur--5)"></path><path d="M1054,333 L1029.1244682029653,341.08239925089765 L1029.1246117974981,367.23803458662553 L1013.7508312532348,346.07759669859905 L988.8753882025019,354.16026908252906 L1004.2494010876,333 L988.8753882025019,311.83973091747094 L1013.7508312532348,319.92240330140095 L1029.1246117974981,298.76196541337447 L1029.1244682029653,324.91760074910235 Z" stroke="hsla(210.83333333333334, 100%, 50%, 1)" stroke-width="1.8" filter="url(#blur--5)"></path><path d="M1386,539 L1338.3218973890168,554.4912652308872 L1338.3221726118713,604.6228996243656 L1308.8557599020332,564.0653936723149 L1261.1778273881287,579.5571824081807 L1290.6446854179,539 L1261.1778273881287,498.44281759181933 L1308.8557599020332,513.9346063276851 L1338.3221726118713,473.3771003756344 L1338.3218973890168,523.5087347691128 Z" stroke="hsla(229.9074074074074, 100%, 50%, 1)" stroke-width="3.45" filter="url(#blur--5)"></path><path d="M465,107 L422.84979334391335,120.69517650846545 L422.8500366568718,165.01444749400437 L396.8000196235366,129.1592610726262 L354.6499633431282,142.85490038984088 L380.7003740651,107 L354.6499633431282,71.14509961015915 L396.8000196235366,84.84073892737379 L422.8500366568718,48.98555250599563 L422.84979334391335,93.30482349153455 Z" stroke="hsla(189.90740740740742, 100%, 50%, 1)" stroke-width="3.05" filter="url(#blur--5)"></path><path d="M1534,871 L1504.2875592424307,880.6539768830166 L1504.2877307581227,911.8954302006916 L1485.9246039969194,886.6204627233267 L1456.2122692418773,896.2747658485764 L1474.5756735213,871 L1456.2122692418773,845.7252341514237 L1485.9246039969194,855.3795372766733 L1504.2877307581227,830.1045697993084 L1504.2875592424307,861.3460231169834 Z" stroke="hsla(260.64814814814815, 100%, 50%, 1)" stroke-width="2.15" filter="url(#blur--4)"></path><path d="M510,1012 L445.04722252996487,1033.104042488455 L445.04759747124507,1101.3993125317445 L404.90494827233516,1046.147058046342 L339.95240252875493,1067.2518137154925 L380.0956583954,1012 L339.95240252875493,956.7481862845075 L404.9049482723351,977.8529419536579 L445.047597471245,922.6006874682555 L445.04722252996487,990.895957511545 Z" stroke="hsla(273.7037037037037, 100%, 50%, 1)" stroke-width="4.7" filter="url(#blur--4)"></path><path d="M1213,587 L1179.1416372762583,598.0010434248329 L1179.1418327243725,633.6017692984625 L1158.2164092057917,604.8000621730932 L1124.3581672756277,615.8014773623312 L1145.2839070359,587 L1124.3581672756275,558.1985226376688 L1158.2164092057917,569.1999378269068 L1179.1418327243723,540.3982307015375 L1179.1416372762583,575.9989565751671 Z" stroke="hsla(234.35185185185185, 100%, 50%, 1)" stroke-width="2.45" filter="url(#blur--4)"></path><path d="M755,493 L694.8841314904994,512.532464856336 L694.8844785106204,575.7419169176784 L657.7311755286506,524.6041920216144 L597.6155214893796,544.1373169494452 L634.7693859617,493 L597.6155214893796,441.86268305055484 L657.7311755286506,461.39580797838556 L694.8844785106204,410.2580830823216 L694.8841314904994,473.467535143664 Z" stroke="hsla(225.64814814814815, 100%, 50%, 1)" stroke-width="4.35" filter="url(#blur--4)"></path><path d="M120,754 L75.77683236082714,768.3687097793736 L75.77708763999664,814.8676170428898 L48.44592222797286,777.2490607975095 L4.22291236000337,791.6182561467183 L31.554490822400002,754 L4.222912360003363,716.3817438532817 L48.44592222797285,730.7509392024906 L75.77708763999662,693.1323829571102 L75.77683236082714,739.6312902206264 Z" stroke="hsla(249.8148148148148, 100%, 50%, 1)" stroke-width="3.2" filter="url(#blur--4)"></path><path d="M1187,68 L1133.103014439758,85.51186504361155 L1133.1033255612458,142.18240827102198 L1099.7934677153419,96.33479284696466 L1045.8966744387542,113.84724967881291 L1079.2070356898,68 L1045.8966744387542,22.152750321187106 L1099.7934677153419,39.66520715303535 L1133.1033255612458,-6.182408271021984 L1133.103014439758,50.488134956388436 Z" stroke="hsla(186.2962962962963, 100%, 50%, 1)" stroke-width="3.9" filter="url(#blur--4)"></path><path d="M1555,242 L1534.2703901691377,248.73533270908138 L1534.2705098312483,270.5316954888546 L1521.4590260443622,252.89799724883255 L1500.7294901687517,259.6335575687742 L1513.541167573,242 L1500.7294901687517,224.3664424312258 L1521.4590260443622,231.10200275116745 L1534.2705098312483,213.4683045111454 L1534.2703901691377,235.26466729091862 Z" stroke="hsla(202.4074074074074, 100%, 50%, 1)" stroke-width="1.5" filter="url(#blur--4)"></path><path d="M405,477 L353.86696241720637,493.6138206824007 L353.8672575837461,547.3781822058413 L322.2655975760936,503.8817265471203 L271.1327424162539,520.496108669643 L302.7348800134,477 L271.1327424162539,433.50389133035696 L322.2655975760936,450.1182734528797 L353.8672575837461,406.62181779415863 L353.86696241720637,460.3861793175993 Z" stroke="hsla(224.16666666666666, 100%, 50%, 1)" stroke-width="3.7" filter="url(#blur--4)"></path><path d="M506,642 L458.3218973890168,657.4912652308872 L458.3221726118714,707.6228996243656 L428.85575990203324,667.0653936723149 L381.17782738812866,682.5571824081807 L410.6446854179,642 L381.1778273881286,601.4428175918193 L428.85575990203324,616.9346063276851 L458.32217261187134,576.3771003756344 L458.3218973890168,626.5087347691128 Z" stroke="hsla(239.44444444444446, 100%, 50%, 1)" stroke-width="3.45" filter="url(#blur--4)"></path><path d="M797,770 L792.8540780338276,771.3470665418163 L792.8541019662497,775.7063390977709 L790.2918052088725,772.1795994497666 L786.1458980337503,773.5267115137549 L788.7082335146,770 L786.1458980337503,766.4732884862451 L790.2918052088725,767.8204005502334 L792.8541019662497,764.293660902229 L792.8540780338276,768.6529334581837 Z" stroke="hsla(251.2962962962963, 100%, 50%, 1)" stroke-width="0.3" filter="url(#blur--4)"></path><path d="M782,147 L749.5236112649825,157.5520212442275 L749.5237987356226,191.69965626587222 L729.4524741361676,164.073529023171 L696.9762012643774,174.62590685774626 L717.0478291977,147 L696.9762012643774,119.37409314225377 L729.4524741361676,129.926470976829 L749.5237987356226,102.30034373412778 L749.5236112649824,136.4479787557725 Z" stroke="hsla(193.61111111111111, 100%, 50%, 1)" stroke-width="2.35" filter="url(#blur--4)"></path><path d="M1172,204 L1112.5751184848614,223.30795376603325 L1112.5754615162455,285.7908604013832 L1075.8492079938385,235.24092544665334 L1016.4245384837545,254.5495316971527 L1053.1513470426,204 L1016.4245384837545,153.45046830284733 L1075.8492079938385,172.75907455334666 L1112.5754615162455,122.20913959861679 L1112.5751184848614,184.69204623396675 Z" stroke="hsla(198.88888888888889, 100%, 50%, 1)" stroke-width="4.3" filter="url(#blur--4)"></path><path d="M1237,732 L1177.5751184848614,751.3079537660333 L1177.5754615162455,813.7908604013832 L1140.8492079938385,763.2409254466534 L1081.4245384837545,782.5495316971527 L1118.1513470426,732 L1081.4245384837545,681.4504683028473 L1140.8492079938385,700.7590745533466 L1177.5754615162455,650.2091395986167 L1177.5751184848614,712.6920462339667 Z" stroke="hsla(247.77777777777777, 100%, 50%, 1)" stroke-width="4.3" filter="url(#blur--4)"></path><path d="M1843,251 L1811.2145982593445,261.3275101539248 L1811.2147817412476,294.74859974957707 L1791.5705066013554,267.7102624482099 L1759.7852182587524,278.0381216054538 L1779.4297902786,251 L1759.7852182587524,223.96187839454623 L1791.5705066013554,234.28973755179007 L1811.2147817412476,207.25140025042293 L1811.2145982593445,240.67248984607522 Z" stroke="hsla(203.24074074074073, 100%, 50%, 1)" stroke-width="2.3" filter="url(#blur--4)"></path><path d="M1672,674 L1618.103014439758,691.5118650436116 L1618.1033255612458,748.1824082710219 L1584.7934677153419,702.3347928469647 L1530.8966744387542,719.8472496788129 L1564.2070356898,674 L1530.8966744387542,628.1527503211871 L1584.7934677153419,645.6652071530353 L1618.1033255612458,599.817591728978 L1618.103014439758,656.4881349563884 Z" stroke="hsla(242.4074074074074, 100%, 50%, 1)" stroke-width="3.9" filter="url(#blur--4)"></path><path d="M108,626 L38.90130056379241,648.4511090302713 L38.90169943749474,721.1056516295154 L-3.8032465187924096,662.3266574961085 L-72.90169943749473,684.7785252292473 L-30.196108089999996,626 L-72.90169943749474,567.2214747707527 L-3.8032465187924185,589.6733425038915 L38.90169943749473,530.8943483704846 L38.901300563792404,603.5488909697287 Z" stroke="hsla(237.96296296296296, 100%, 50%, 1)" stroke-width="5" filter="url(#blur--4)"></path><path d="M720,762 L691.6695332311549,771.2049547024112 L691.6696967693729,800.9933171681013 L674.1606689272951,776.8939295734045 L645.8303032306271,786.0991953439914 L663.3395956831,762 L645.8303032306271,737.9008046560086 L674.1606689272951,747.1060704265955 L691.6696967693729,723.0066828318987 L691.6695332311549,752.7950452975888 Z" stroke="hsla(250.55555555555554, 100%, 50%, 1)" stroke-width="2.05" filter="url(#blur--4)"></path><path d="M473,115 L433.61374132136166,127.7971321472546 L433.613968679372,169.21022142882376 L409.2721494842883,135.70619477278186 L369.886031320628,148.50375938067097 L394.2282183887,115 L369.886031320628,81.49624061932903 L409.2721494842883,94.29380522721814 L433.61396867937196,60.78977857117624 L433.61374132136166,102.2028678527454 Z" stroke="hsla(190.64814814814815, 100%, 50%, 1)" stroke-width="2.85" filter="url(#blur--4)"></path><path d="M1374,537 L1312.5021575017752,556.9814870369414 L1312.5025124993704,621.6440299502686 L1274.4951105982748,569.3307251715366 L1212.9974875006296,589.3128874540301 L1251.0054637999,537 L1212.9974875006296,484.6871125459699 L1274.4951105982748,504.6692748284634 L1312.5025124993704,452.35597004973135 L1312.5021575017752,517.0185129630586 Z" stroke="hsla(229.72222222222223, 100%, 50%, 1)" stroke-width="4.45" filter="url(#blur--4)"></path><path d="M1915,867 L1903.2532210958448,870.8166885351461 L1903.2532889043741,883.1679607770176 L1895.9934480918052,873.1755317743384 L1884.2467110956259,876.992349288972 L1891.5066616247,867 L1884.2467110956259,857.007650711028 L1895.9934480918052,860.8244682256616 L1903.2532889043741,850.8320392229824 L1903.2532210958448,863.1833114648539 Z" stroke="hsla(260.27777777777777, 100%, 50%, 1)" stroke-width="0.85" filter="url(#blur--4)"></path><path d="M1417,793 L1356.8841314904994,812.532464856336 L1356.8844785106205,875.7419169176784 L1319.7311755286505,824.6041920216144 L1259.6155214893795,844.1373169494452 L1296.7693859617,793 L1259.6155214893795,741.8626830505549 L1319.7311755286505,761.3958079783856 L1356.8844785106205,710.2580830823216 L1356.8841314904994,773.467535143664 Z" stroke="hsla(253.42592592592592, 100%, 50%, 1)" stroke-width="4.35" filter="url(#blur--3)"></path><path d="M307,654 L300.78111705074133,656.0205998127244 L300.78115294937453,662.5595086466564 L296.9377078133087,657.2693991746497 L290.71884705062547,659.2900672706322 L294.5623502719,654 L290.71884705062547,648.7099327293678 L296.9377078133087,650.7306008253503 L300.78115294937453,645.4404913533436 L300.78111705074133,651.9794001872756 Z" stroke="hsla(240.55555555555554, 100%, 50%, 1)" stroke-width="0.45" filter="url(#blur--3)"></path><path d="M460,110 L417.84979334391335,123.69517650846545 L417.8500366568718,168.01444749400437 L391.8000196235366,132.1592610726262 L349.6499633431282,145.85490038984088 L375.7003740651,110 L349.6499633431282,74.14509961015915 L391.8000196235366,87.84073892737379 L417.8500366568718,51.98555250599563 L417.84979334391335,96.30482349153455 Z" stroke="hsla(190.1851851851852, 100%, 50%, 1)" stroke-width="3.05" filter="url(#blur--3)"></path><path d="M638,878 L633.8540780338276,879.3470665418163 L633.8541019662497,883.7063390977709 L631.2918052088725,880.1795994497666 L627.1458980337503,881.5267115137549 L629.7082335146,878 L627.1458980337503,874.4732884862451 L631.2918052088725,875.8204005502334 L633.8541019662497,872.293660902229 L633.8540780338276,876.6529334581837 Z" stroke="hsla(261.2962962962963, 100%, 50%, 1)" stroke-width="0.3" filter="url(#blur--3)"></path><path d="M1415,815 L1387.360520225517,823.9804436121085 L1387.3606797749978,853.0422606518061 L1370.278701392483,829.5306629984434 L1342.6393202250022,838.511410091699 L1359.721556764,815 L1342.6393202250022,791.488589908301 L1370.278701392483,800.4693370015566 L1387.3606797749978,776.9577393481939 L1387.360520225517,806.0195563878915 Z" stroke="hsla(255.46296296296296, 100%, 50%, 1)" stroke-width="2" filter="url(#blur--3)"></path><path d="M85,476 L68.41631213531018,481.3882661672651 L68.41640786499875,498.8253563910837 L58.16722083548982,484.71839779906605 L41.58359213500127,490.10684605501933 L51.8329340584,476 L41.58359213500126,461.89315394498067 L58.16722083548982,467.28160220093395 L68.41640786499873,453.1746436089163 L68.41631213531018,470.6117338327349 Z" stroke="hsla(224.07407407407408, 100%, 50%, 1)" stroke-width="1.2" filter="url(#blur--3)"></path><path d="M1805,202 L1781.5064421916895,209.63337707029223 L1781.5065778087483,234.33592155403522 L1766.9868961836105,214.3510635486769 L1743.4934221912517,221.9846985779441 L1758.0133232494,202 L1743.4934221912517,182.01530142205593 L1766.9868961836105,189.6489364513231 L1781.5065778087483,169.66407844596478 L1781.5064421916895,194.36662292970777 Z" stroke="hsla(198.7037037037037, 100%, 50%, 1)" stroke-width="1.7" filter="url(#blur--3)"></path><path d="M509,472 L492.4163121353102,477.3882661672651 L492.41640786499875,494.8253563910837 L482.16722083548984,480.71839779906605 L465.58359213500125,486.10684605501933 L475.8329340584,472 L465.58359213500125,457.89315394498067 L482.16722083548984,463.28160220093395 L492.41640786499875,449.1746436089163 L492.4163121353102,466.6117338327349 Z" stroke="hsla(223.7037037037037, 100%, 50%, 1)" stroke-width="1.2" filter="url(#blur--3)"></path><path d="M1884,667 L1860.5064421916895,674.6333770702922 L1860.5065778087483,699.3359215540352 L1845.9868961836105,679.3510635486768 L1822.4934221912517,686.9846985779441 L1837.0133232494,667 L1822.4934221912517,647.0153014220559 L1845.9868961836105,654.6489364513232 L1860.5065778087483,634.6640784459648 L1860.5064421916895,659.3666229297078 Z" stroke="hsla(241.75925925925924, 100%, 50%, 1)" stroke-width="1.7" filter="url(#blur--3)"></path><path d="M312,548 L280.9055852537066,558.1029990636221 L280.90576474687265,590.7975432332819 L261.6885390665434,564.3469958732488 L230.59423525312738,574.4503363531613 L249.8117513595,548 L230.59423525312735,521.5496636468387 L261.6885390665434,531.6530041267512 L280.90576474687265,505.2024567667181 L280.9055852537066,537.8970009363779 Z" stroke="hsla(230.74074074074073, 100%, 50%, 1)" stroke-width="2.25" filter="url(#blur--3)"></path><path d="M1793,196 L1763.2875592424307,205.65397688301664 L1763.2877307581227,236.8954302006916 L1744.9246039969194,211.62046272332668 L1715.2122692418773,221.27476584857635 L1733.5756735213,196 L1715.2122692418773,170.72523415142365 L1744.9246039969194,180.37953727667332 L1763.2877307581227,155.1045697993084 L1763.2875592424307,186.34602311698336 Z" stroke="hsla(198.14814814814815, 100%, 50%, 1)" stroke-width="2.15" filter="url(#blur--3)"></path><path d="M508,346 L470.6867023044479,358.1235988763465 L470.6869176962472,397.3570518799383 L447.6262468798521,365.6163950478986 L410.3130823037528,377.74040362379355 L433.3741016314,346 L410.3130823037528,314.25959637620645 L447.6262468798521,326.3836049521014 L470.6869176962472,294.6429481200617 L470.6867023044479,333.8764011236535 Z" stroke="hsla(212.03703703703704, 100%, 50%, 1)" stroke-width="2.7" filter="url(#blur--3)"></path><path d="M1053,53 L983.9013005637925,75.45110903027123 L983.9016994374947,148.10565162951536 L941.1967534812076,89.32665749610854 L872.0983005625053,111.77852522924732 L914.80389191,53.00000000000001 L872.0983005625053,-5.7785252292473 L941.1967534812076,16.673342503891476 L983.9016994374947,-42.105651629515364 L983.9013005637925,30.54889096972877 Z" stroke="hsla(184.90740740740742, 100%, 50%, 1)" stroke-width="5" filter="url(#blur--3)"></path><path d="M131,179 L79.86696241720638,195.6138206824007 L79.86725758374611,249.37818220584137 L48.26559757609362,205.8817265471203 L-2.8672575837461025,222.49610866964304 L28.7348800134,179 L-2.8672575837461096,135.503891330357 L48.26559757609361,152.1182734528797 L79.8672575837461,108.62181779415863 L79.86696241720638,162.3861793175993 Z" stroke="hsla(196.57407407407408, 100%, 50%, 1)" stroke-width="3.7" filter="url(#blur--3)"></path><path d="M1324,1006 L1312.9442080902068,1009.5921774448434 L1312.944271909999,1021.2169042607225 L1306.1114805569932,1011.8122651993774 L1295.055728090001,1015.4045640366795 L1301.8886227056,1006 L1295.055728090001,996.5954359633205 L1306.1114805569932,1000.1877348006226 L1312.944271909999,990.7830957392775 L1312.9442080902068,1002.4078225551566 Z" stroke="hsla(273.14814814814815, 100%, 50%, 1)" stroke-width="0.8" filter="url(#blur--3)"></path><path d="M1154,959 L1127.742494214241,967.5314214315031 L1127.742645786248,995.1401476192158 L1111.5147663228588,972.8041298485213 L1085.257354213752,981.335839587114 L1101.4854789258,959 L1085.257354213752,936.6641604128861 L1111.5147663228588,945.1958701514787 L1127.742645786248,922.8598523807841 L1127.742494214241,950.4685785684969 Z" stroke="hsla(268.7962962962963, 100%, 50%, 1)" stroke-width="1.9" filter="url(#blur--3)"></path><path d="M408,178 L377.59657224806864,187.87848797331935 L377.59674775249766,219.84648671698676 L358.8065715317313,193.98372929828776 L328.40325224750234,203.8625511008688 L347.1937124404,178 L328.40325224750234,152.1374488991312 L358.8065715317313,162.01627070171224 L377.59674775249766,136.15351328301324 L377.59657224806864,168.12151202668065 Z" stroke="hsla(196.48148148148147, 100%, 50%, 1)" stroke-width="2.2" filter="url(#blur--3)"></path><path d="M338,216 L270.28327455251656,238.0020868496658 L270.28366544874484,309.20353859692506 L228.43281841158344,251.60012434618636 L160.71633455125516,273.60295472466237 L202.5678140718,216 L160.71633455125516,158.39704527533763 L228.43281841158344,180.39987565381364 L270.28366544874484,122.79646140307494 L270.28327455251656,193.9979131503342 Z" stroke="hsla(200, 100%, 50%, 1)" stroke-width="4.9" filter="url(#blur--3)"></path><path d="M504,984 L477.7424942142411,992.5314214315031 L477.742645786248,1020.1401476192158 L461.51476632285886,997.8041298485213 L435.257354213752,1006.335839587114 L451.4854789258,984 L435.257354213752,961.6641604128861 L461.51476632285886,970.1958701514787 L477.742645786248,947.8598523807841 L477.7424942142411,975.4685785684969 Z" stroke="hsla(271.1111111111111, 100%, 50%, 1)" stroke-width="1.9" filter="url(#blur--3)"></path><path d="M952,167 L910.5407803382755,180.47066541816272 L910.5410196624969,224.06339097770922 L884.9180520887246,188.7959944976651 L843.4589803375031,202.2671151375484 L869.082335146,167 L843.4589803375031,131.7328848624516 L884.9180520887245,145.2040055023349 L910.5410196624969,109.93660902229078 L910.5407803382755,153.52933458183725 Z" stroke="hsla(195.46296296296296, 100%, 50%, 1)" stroke-width="3" filter="url(#blur--3)"></path><path d="M1452,53 L1442.326182078931,56.14315526423797 L1442.3262379212492,66.31479122813215 L1436.347545487369,58.085732049455196 L1426.6737620787508,61.22899353209463 L1432.6525448674,53 L1426.6737620787508,44.77100646790538 L1436.347545487369,47.914267950544804 L1442.3262379212492,39.68520877186785 L1442.326182078931,49.856844735762024 Z" stroke="hsla(184.90740740740742, 100%, 50%, 1)" stroke-width="0.7" filter="url(#blur--2)"></path><path d="M921,953 L867.1030144397581,970.5118650436116 L867.1033255612459,1027.182408271022 L833.7934677153419,981.3347928469647 L779.8966744387541,998.8472496788129 L813.2070356898,953 L779.8966744387541,907.1527503211871 L833.7934677153419,924.6652071530353 L867.1033255612459,878.817591728978 L867.1030144397581,935.4881349563884 Z" stroke="hsla(268.24074074074076, 100%, 50%, 1)" stroke-width="3.9" filter="url(#blur--2)"></path><path d="M49,130 L19.28755924243074,139.65397688301664 L19.28773075812274,170.8954302006916 L0.9246039969192639,145.62046272332668 L-28.787730758122734,155.27476584857635 L-10.4243264787,130 L-28.78773075812274,104.72523415142366 L0.9246039969192603,114.37953727667333 L19.28773075812273,89.1045697993084 L19.28755924243074,120.34602311698337 Z" stroke="hsla(192.03703703703704, 100%, 50%, 1)" stroke-width="2.15" filter="url(#blur--2)"></path><path d="M794,24 L730.429196518689,44.655020307849526 L730.4295634824952,111.49719949915412 L691.141013202711,57.42052489641985 L627.5704365175048,78.07624321090753 L666.8595805572,24.000000000000004 L627.5704365175048,-30.07624321090752 L691.141013202711,-9.420524896419842 L730.4295634824952,-63.497199499154135 L730.429196518689,3.344979692150467 Z" stroke="hsla(182.22222222222223, 100%, 50%, 1)" stroke-width="4.6" filter="url(#blur--2)"></path><path d="M685,165 L680.8540780338276,166.34706654181628 L680.8541019662497,170.70633909777092 L678.2918052088725,167.1795994497665 L674.1458980337503,168.52671151375483 L676.7082335146,165 L674.1458980337503,161.47328848624517 L678.2918052088725,162.8204005502335 L680.8541019662497,159.29366090222908 L680.8540780338276,163.65293345818372 Z" stroke="hsla(195.27777777777777, 100%, 50%, 1)" stroke-width="0.3" filter="url(#blur--2)"></path><path d="M1081,39 L1049.9055852537065,49.10299906362205 L1049.9057647468726,81.79754323328191 L1030.6885390665434,55.346995873248844 L999.5942352531274,65.4503363531613 L1018.8117513595,39 L999.5942352531274,12.549663646838713 L1030.6885390665434,22.653004126751163 L1049.9057647468726,-3.797543233281914 L1049.9055852537065,28.897000936377946 Z" stroke="hsla(183.61111111111111, 100%, 50%, 1)" stroke-width="2.25" filter="url(#blur--2)"></path><path d="M1059,539 L1041.7253251409481,544.6127772575678 L1041.7254248593738,562.7764129073788 L1031.0491883703019,548.0816643740271 L1013.7745751406263,553.6946313073119 L1024.4509729775,539 L1013.7745751406263,524.3053686926881 L1031.0491883703019,529.9183356259729 L1041.7254248593738,515.2235870926212 L1041.7253251409481,533.3872227424322 Z" stroke="hsla(229.9074074074074, 100%, 50%, 1)" stroke-width="1.25" filter="url(#blur--2)"></path><path d="M494,226 L441.4849884284822,243.06284286300613 L441.485291572496,298.2802952384317 L409.0295326457178,253.60825969704248 L356.514708427504,270.67167917422796 L388.9709578516,226 L356.514708427504,181.32832082577204 L409.0295326457178,198.39174030295752 L441.485291572496,153.71970476156832 L441.4849884284822,208.93715713699387 Z" stroke="hsla(200.92592592592592, 100%, 50%, 1)" stroke-width="3.8" filter="url(#blur--2)"></path><path d="M635,664 L599.7596632875342,675.4500656054383 L599.7598667131223,712.5038823310529 L577.9803442754159,682.5265953230154 L542.7401332868777,693.9770478669161 L564.5199848741,664 L542.7401332868777,634.0229521330839 L577.9803442754159,645.4734046769846 L599.7598667131223,615.4961176689471 L599.7596632875342,652.5499343945617 Z" stroke="hsla(241.48148148148147, 100%, 50%, 1)" stroke-width="2.55" filter="url(#blur--2)"></path><path d="M1817,959 L1812.8540780338276,960.3470665418163 L1812.8541019662496,964.7063390977709 L1810.2918052088723,961.1795994497666 L1806.1458980337504,962.5267115137549 L1808.7082335146,959 L1806.1458980337504,955.4732884862451 L1810.2918052088723,956.8204005502334 L1812.8541019662496,953.293660902229 L1812.8540780338276,957.6529334581837 Z" stroke="hsla(268.7962962962963, 100%, 50%, 1)" stroke-width="0.3" filter="url(#blur--2)"></path><path d="M206,256 L174.2145982593445,266.3275101539248 L174.21478174124758,299.74859974957707 L154.5705066013555,272.7102624482099 L122.78521825875242,283.0381216054538 L142.4297902786,256 L122.78521825875242,228.96187839454623 L154.57050660135548,239.28973755179007 L174.21478174124758,212.25140025042293 L174.2145982593445,245.67248984607522 Z" stroke="hsla(203.7037037037037, 100%, 50%, 1)" stroke-width="2.3" filter="url(#blur--2)"></path><path d="M917,136 L858.2661054792236,155.08344267573054 L858.2664445218705,216.83980388508803 L821.9672404590265,166.87765887169226 L763.2335554781295,185.96174644486024 L799.5333081235,136 L763.2335554781295,86.03825355513979 L821.9672404590265,105.12234112830775 L858.2664445218705,55.16019611491194 L858.2661054792236,116.91655732426945 Z" stroke="hsla(192.59259259259258, 100%, 50%, 1)" stroke-width="4.25" filter="url(#blur--2)"></path><path d="M1026,317 L988.6867023044479,329.1235988763465 L988.6869176962472,368.3570518799383 L965.6262468798521,336.6163950478986 L928.3130823037528,348.74040362379355 L951.3741016314,317 L928.3130823037528,285.25959637620645 L965.6262468798521,297.3836049521014 L988.6869176962472,265.6429481200617 L988.6867023044479,304.8764011236535 Z" stroke="hsla(209.35185185185185, 100%, 50%, 1)" stroke-width="2.7" filter="url(#blur--2)"></path><path d="M1652,577 L1635.4163121353101,582.3882661672651 L1635.4164078649987,599.8253563910837 L1625.1672208354898,585.718397799066 L1608.5835921350013,591.1068460550193 L1618.8329340584,577 L1608.5835921350013,562.8931539449807 L1625.1672208354898,568.281602200934 L1635.4164078649987,554.1746436089163 L1635.4163121353101,571.6117338327349 Z" stroke="hsla(233.42592592592592, 100%, 50%, 1)" stroke-width="1.2" filter="url(#blur--2)"></path><path d="M1419,613 L1385.8326242706203,623.7765323345302 L1385.8328157299975,658.6507127821674 L1365.3344416709797,630.4367955981321 L1332.1671842700025,641.2136921100387 L1352.6658681168,613 L1332.1671842700025,584.7863078899613 L1365.3344416709797,595.5632044018679 L1385.8328157299975,567.3492872178326 L1385.8326242706203,602.2234676654698 Z" stroke="hsla(236.75925925925924, 100%, 50%, 1)" stroke-width="2.4" filter="url(#blur--2)"></path><path d="M1670,50 L1661.7081560676552,52.69413308363254 L1661.7082039324994,61.412678195541844 L1656.583610417745,54.35919889953303 L1648.2917960675006,57.05342302750968 L1653.4164670292,50 L1648.2917960675006,42.94657697249032 L1656.583610417745,45.64080110046697 L1661.7082039324994,38.587321804458156 L1661.7081560676552,47.30586691636745 Z" stroke="hsla(184.62962962962962, 100%, 50%, 1)" stroke-width="0.6" filter="url(#blur--2)"></path><path d="M1460,1033 L1446.8712471071206,1037.2657107157515 L1446.871322893124,1051.070073809608 L1438.7573831614295,1039.9020649242607 L1425.628677106876,1044.167919793557 L1433.7427394629,1033 L1425.628677106876,1021.832080206443 L1438.7573831614295,1026.0979350757393 L1446.871322893124,1014.929926190392 L1446.8712471071206,1028.7342892842485 Z" stroke="hsla(275.64814814814815, 100%, 50%, 1)" stroke-width="0.95" filter="url(#blur--2)"></path><path d="M549,326 L533.1072991296722,331.1637550769624 L533.1073908706238,347.8742998747885 L523.2852533006777,334.355131224105 L507.3926091293762,339.51906080272687 L517.2148951393,326 L507.3926091293762,312.48093919727313 L523.2852533006777,317.644868775895 L533.1073908706238,304.12570012521144 L533.1072991296722,320.8362449230376 Z" stroke="hsla(210.1851851851852, 100%, 50%, 1)" stroke-width="1.15" filter="url(#blur--2)"></path><path d="M654,476 L620.8326242706204,486.7765323345302 L620.8328157299975,521.6507127821674 L600.3344416709797,493.4367955981321 L567.1671842700025,504.2136921100387 L587.6658681168,476 L567.1671842700025,447.7863078899613 L600.3344416709797,458.5632044018679 L620.8328157299975,430.3492872178326 L620.8326242706204,465.2234676654698 Z" stroke="hsla(224.07407407407408, 100%, 50%, 1)" stroke-width="2.4" filter="url(#blur--2)"></path><path d="M1398,945 L1343.412027445396,962.7363761339143 L1343.4123425556209,1020.1334647873172 L1309.675435250154,973.6980594219258 L1255.0876574443791,991.4350349311054 L1288.8250746089,945 L1255.0876574443791,898.5649650688946 L1309.675435250154,916.3019405780742 L1343.4123425556209,869.8665352126828 L1343.412027445396,927.2636238660857 Z" stroke="hsla(267.5, 100%, 50%, 1)" stroke-width="3.95" filter="url(#blur--2)"></path><path d="M1299,727 L1252.0128843833788,742.2667541405845 L1252.0131556174965,791.6718431080704 L1222.9737923672212,751.7021270973538 L1175.9868443825035,766.9693971558881 L1205.0266464988,727 L1175.9868443825035,687.0306028441119 L1222.9737923672212,702.2978729026462 L1252.0131556174965,662.3281568919296 L1252.0128843833788,711.7332458594155 Z" stroke="hsla(247.3148148148148, 100%, 50%, 1)" stroke-width="3.4" filter="url(#blur--1)"></path><path d="M837,431 L788.6309103946547,446.7157763211899 L788.6311896062464,497.57395614066075 L758.7377274368453,456.42866024727596 L710.3688103937537,472.1449676604731 L740.262724337,431 L710.3688103937536,389.8550323395269 L758.7377274368453,405.57133975272404 L788.6311896062463,364.42604385933925 L788.6309103946547,415.2842236788101 Z" stroke="hsla(219.9074074074074, 100%, 50%, 1)" stroke-width="3.5" filter="url(#blur--1)"></path><path d="M530,867 L499.59657224806864,876.8784879733194 L499.59674775249766,908.8464867169868 L480.8065715317313,882.9837292982877 L450.40325224750234,892.8625511008688 L469.1937124404,867 L450.40325224750234,841.1374488991312 L480.8065715317313,851.0162707017123 L499.59674775249766,825.1535132830132 L499.59657224806864,857.1215120266806 Z" stroke="hsla(260.27777777777777, 100%, 50%, 1)" stroke-width="2.2" filter="url(#blur--1)"></path><path d="M757,1073 L711.394858372103,1087.817731959979 L711.3951216287466,1135.76973007548 L683.209857297597,1096.9755939474317 L637.6048783712534,1111.7938266513033 L665.7905686606,1073 L637.6048783712534,1034.2061733486967 L683.209857297597,1049.0244060525683 L711.3951216287466,1010.2302699245199 L711.394858372103,1058.182268040021 Z" stroke="hsla(279.35185185185185, 100%, 50%, 1)" stroke-width="3.3" filter="url(#blur--1)"></path></svg>
