<svg xmlns="http://www.w3.org/2000/svg" viewBox="0 0 1920 1080" data-reactroot=""><defs><linearGradient id="bg-gradient" gradientTransform="rotate(90)"><stop offset="0%" stop-color="hsl(220, 100%, 30%)"></stop><stop offset="50%" stop-color="hsl(240, 100%, 20%)"></stop><stop offset="90%" stop-color="hsl(260, 100%, 10%)"></stop></linearGradient></defs><rect width="1920" height="1080" fill="url(#bg-gradient)"></rect><path d="M486,362 L478.3991430620172,364.46962199332984 L478.39918693812444,372.46162167924666 L473.70164288293284,365.9959323245719 L466.10081306187556,368.4656377752172 L470.7984281101,362 L466.10081306187556,355.5343622247828 L473.70164288293284,358.0040676754281 L478.39918693812444,351.5383783207533 L478.3991430620172,359.53037800667016 Z" fill="hsla(33.51851851851852, 100%, 50%, 0.5)" stroke="hsla(213.51851851851853, 100%, 50%, 1)" stroke-width="0.55" transform="rotate(3.033727575328383, 475, 362)"></path><path d="M1786,394 L1761.1244682029653,402.08239925089765 L1761.1246117974981,428.23803458662553 L1745.7508312532348,407.07759669859905 L1720.8753882025019,415.16026908252906 L1736.2494010876,394 L1720.8753882025019,372.83973091747094 L1745.7508312532348,380.92240330140095 L1761.1246117974981,359.76196541337447 L1761.1244682029653,385.91760074910235 Z" fill="hsla(36.48148148148148, 100%, 50%, 0.5)" stroke="hsla(216.48148148148147, 100%, 50%, 1)" stroke-width="1.8" transform="rotate(67.89213928850934, 1750, 394)"></path><path d="M855,487 L821.8326242706204,497.7765323345302 L821.8328157299975,532.6507127821674 L801.3344416709797,504.4367955981321 L768.1671842700025,515.2136921100387 L788.6658681168,487 L768.1671842700025,458.7863078899613 L801.3344416709797,469.5632044018679 L821.8328157299975,441.3492872178326 L821.8326242706204,476.2234676654698 Z" fill="hsla(45.09259259259259, 100%, 50%, 0.5)" stroke="hsla(225.09259259259258, 100%, 50%, 1)" stroke-width="2.4" transform="rotate(44.699836311327516, 807, 487)"></path><path d="M527,601 L502.81545519732737,608.8578881605949 L502.8155948031232,634.2869780703304 L487.86886371842263,613.714330123638 L463.68440519687687,621.5724838302366 L478.6313621685,601 L463.6844051968768,580.4275161697634 L487.86886371842263,588.285669876362 L502.81559480312313,567.7130219296696 L502.81545519732737,593.1421118394051 Z" fill="hsla(55.648148148148145, 100%, 50%, 0.5)" stroke="hsla(235.64814814814815, 100%, 50%, 1)" stroke-width="1.75" transform="rotate(7.9571524328719985, 492, 601)"></path><path d="M1808,121 L1769.9957153100859,133.34810996664916 L1769.995934690622,173.30810839623345 L1746.5082144146643,140.97966162285968 L1708.504065309378,153.32818887608602 L1731.9921405505,121 L1708.504065309378,88.67181112391398 L1746.5082144146643,101.0203383771403 L1769.995934690622,68.69189160376655 L1769.9957153100859,108.65189003335082 Z" fill="hsla(11.203703703703702, 100%, 50%, 0.5)" stroke="hsla(191.2037037037037, 100%, 50%, 1)" stroke-width="2.75" transform="rotate(54.04075464065089, 1753, 121)"></path><path d="M399,583 L340.95709247358565,601.8589315854279 L340.9574275274956,662.8887473687929 L305.0852729242144,613.5143922967312 L247.04257247250442,632.3739611925678 L282.91526920440003,583 L247.04257247250442,533.6260388074322 L305.0852729242144,552.4856077032689 L340.95742752749555,503.1112526312071 L340.95709247358565,564.1410684145721 Z" fill="hsla(53.98148148148148, 100%, 50%, 0.5)" stroke="hsla(233.98148148148147, 100%, 50%, 1)" stroke-width="4.2" transform="rotate(25.94700766215228, 315, 583)"></path><path d="M120,856 L89.59657224806867,865.8784879733194 L89.59674775249769,897.8464867169868 L70.80657153173134,871.9837292982877 L40.403252247502316,881.8625511008688 L59.193712440400006,856 L40.40325224750231,830.1374488991312 L70.80657153173134,840.0162707017123 L89.59674775249768,814.1535132830132 L89.59657224806865,846.1215120266806 Z" fill="hsla(79.25925925925925, 100%, 50%, 0.5)" stroke="hsla(259.25925925925924, 100%, 50%, 1)" stroke-width="2.2" transform="rotate(50.73421231013194, 76, 856)"></path><path d="M971,874 L962.017169073293,876.9186441739353 L962.0172209268743,886.363734711837 L956.4655779525569,878.7224654744941 L947.4827790731257,881.6412082798022 L953.0345059483,874 L947.4827790731257,866.3587917201978 L956.4655779525569,869.2775345255059 L962.0172209268743,861.636265288163 L962.017169073293,871.0813558260647 Z" fill="hsla(80.92592592592592, 100%, 50%, 0.5)" stroke="hsla(260.9259259259259, 100%, 50%, 1)" stroke-width="0.65" transform="rotate(4.988822723072948, 958, 874)"></path><path d="M910,824 L880.9785462367928,833.4294657927139 L880.9787137637478,863.9443736843964 L863.0426364621072,839.2571961483656 L834.0212862362522,848.6869805962839 L851.9576346022,824 L834.0212862362522,799.3130194037161 L863.0426364621072,808.7428038516344 L880.9787137637478,784.0556263156036 L880.9785462367928,814.5705342072861 Z" fill="hsla(76.29629629629629, 100%, 50%, 0.5)" stroke="hsla(256.2962962962963, 100%, 50%, 1)" stroke-width="2.1" transform="rotate(26.998180192627416, 868, 824)"></path><path d="M235,223 L203.9055852537066,233.10299906362206 L203.90576474687265,265.7975432332819 L184.68853906654343,239.34699587324883 L153.59423525312738,249.4503363531613 L172.8117513595,223 L153.59423525312735,196.54966364683872 L184.6885390665434,206.65300412675117 L203.90576474687262,180.2024567667181 L203.9055852537066,212.89700093637794 Z" fill="hsla(20.648148148148145, 100%, 50%, 0.5)" stroke="hsla(200.64814814814815, 100%, 50%, 1)" stroke-width="2.25" transform="rotate(36.55661039604649, 190, 223)"></path><path d="M655,688 L632.1974291860515,695.4088659799895 L632.1975608143732,719.38486503774 L618.1049286487985,699.9877969737158 L595.3024391856268,707.3969133256517 L609.3952843303,688 L595.3024391856268,668.6030866743483 L618.1049286487985,676.0122030262842 L632.1975608143732,656.61513496226 L632.1974291860515,680.5911340200105 Z" fill="hsla(63.7037037037037, 100%, 50%, 0.5)" stroke="hsla(243.7037037037037, 100%, 50%, 1)" stroke-width="1.65" transform="rotate(29.91015562136051, 622, 688)"></path><path d="M1844,119 L1788.0300534566718,137.1853983145197 L1788.0303765443707,196.03557781990742 L1753.4393703197782,148.4245925718479 L1697.4696234556293,166.61060543569033 L1732.0611524471,119 L1697.4696234556293,71.38939456430968 L1753.4393703197782,89.57540742815209 L1788.0303765443707,41.964422180092555 L1788.0300534566718,100.81460168548031 Z" fill="hsla(11.018518518518517, 100%, 50%, 0.5)" stroke="hsla(191.0185185185185, 100%, 50%, 1)" stroke-width="4.05" transform="rotate(39.39025558971613, 1763, 119)"></path><path d="M1648,967 L1623.8154551973273,974.8578881605949 L1623.815594803123,1000.2869780703304 L1608.8688637184227,979.714330123638 L1584.684405196877,987.5724838302366 L1599.6313621685,967 L1584.684405196877,946.4275161697634 L1608.8688637184227,954.285669876362 L1623.815594803123,933.7130219296696 L1623.8154551973273,959.1421118394051 Z" fill="hsla(89.53703703703704, 100%, 50%, 0.5)" stroke="hsla(269.53703703703707, 100%, 50%, 1)" stroke-width="1.75" transform="rotate(53.84349072836226, 1613, 967)"></path><path d="M1455,156 L1421.1416372762583,167.0010434248329 L1421.1418327243725,202.60176929846253 L1400.2164092057917,173.80006217309318 L1366.3581672756277,184.80147736233118 L1387.2839070359,156 L1366.3581672756275,127.19852263766882 L1400.2164092057917,138.19993782690682 L1421.1418327243723,109.39823070153747 L1421.1416372762583,144.99895657516709 Z" fill="hsla(14.444444444444443, 100%, 50%, 0.5)" stroke="hsla(194.44444444444446, 100%, 50%, 1)" stroke-width="2.45" transform="rotate(2.249263616690854, 1406, 156)"></path><path d="M542,724 L491.5579494115685,740.389309592098 L491.55824058937117,793.4271256895462 L460.38363004128155,750.5184599721592 L409.94175941062883,766.9083234173505 L441.1168410943,724 L409.94175941062883,681.0916765826495 L460.38363004128155,697.4815400278408 L491.55824058937117,654.5728743104538 L491.5579494115685,707.610690407902 Z" fill="hsla(67.03703703703704, 100%, 50%, 0.5)" stroke="hsla(247.03703703703704, 100%, 50%, 1)" stroke-width="3.65" transform="rotate(55.156720094557, 469, 724)"></path><path d="M1254,372 L1224.978546236793,381.4294657927139 L1224.9787137637477,411.94437368439645 L1207.042636462107,387.2571961483656 L1178.0212862362523,396.6869805962839 L1195.9576346022,372 L1178.0212862362523,347.3130194037161 L1207.042636462107,356.74280385163445 L1224.9787137637477,332.05562631560355 L1224.978546236793,362.5705342072861 Z" fill="hsla(34.44444444444444, 100%, 50%, 0.5)" stroke="hsla(214.44444444444446, 100%, 50%, 1)" stroke-width="2.1" transform="rotate(52.94538964007895, 1212, 372)"></path><path d="M620,413 L595.1244682029653,421.08239925089765 L595.1246117974981,447.23803458662553 L579.7508312532348,426.07759669859905 L554.8753882025019,434.16026908252906 L570.2494010876,413 L554.8753882025019,391.83973091747094 L579.7508312532348,399.92240330140095 L595.1246117974981,378.76196541337447 L595.1244682029653,404.91760074910235 Z" fill="hsla(38.24074074074074, 100%, 50%, 0.5)" stroke="hsla(218.24074074074073, 100%, 50%, 1)" stroke-width="1.8" transform="rotate(29.841313974888905, 584, 413)"></path><path d="M1206,327 L1199.7811170507414,329.0205998127244 L1199.7811529493745,335.55950864665635 L1195.9377078133086,330.2693991746498 L1189.7188470506255,332.2900672706323 L1193.5623502719,327 L1189.7188470506255,321.7099327293677 L1195.9377078133086,323.7306008253502 L1199.7811529493745,318.44049135334365 L1199.7811170507414,324.9794001872756 Z" fill="hsla(30.277777777777775, 100%, 50%, 0.5)" stroke="hsla(210.27777777777777, 100%, 50%, 1)" stroke-width="0.45" transform="rotate(61.893582689110346, 1197, 327)"></path><path d="M1610,741 L1560.9399234002926,756.9402874114926 L1560.9402066006212,808.5250126569559 L1530.6196949716573,766.7919268222371 L1481.5597933993788,782.7327529127656 L1511.8807632561,741 L1481.5597933993788,699.2672470872344 L1530.6196949716573,715.2080731777629 L1560.9402066006212,673.4749873430441 L1560.9399234002926,725.0597125885074 Z" fill="hsla(68.6111111111111, 100%, 50%, 0.5)" stroke="hsla(248.6111111111111, 100%, 50%, 1)" stroke-width="3.55" transform="rotate(64.34275523274462, 1539, 741)"></path><path d="M405,781 L385.6523641578619,787.286310528476 L385.6524758424985,807.6295824562643 L373.69509097473815,791.1714640989104 L354.3475241575015,797.4579870641893 L366.3050897348,781 L354.3475241575015,764.5420129358107 L373.69509097473815,770.8285359010896 L385.6524758424985,754.3704175437357 L385.6523641578619,774.713689471524 Z" fill="hsla(72.31481481481481, 100%, 50%, 0.5)" stroke="hsla(252.3148148148148, 100%, 50%, 1)" stroke-width="1.4" transform="rotate(55.210873489737644, 377, 781)"></path><path d="M1086,1056 L1040.394858372103,1070.817731959979 L1040.3951216287464,1118.76973007548 L1012.209857297597,1079.9755939474317 L966.6048783712534,1094.7938266513033 L994.7905686606,1056 L966.6048783712534,1017.2061733486968 L1012.209857297597,1032.0244060525683 L1040.3951216287464,993.2302699245199 L1040.394858372103,1041.182268040021 Z" fill="hsla(97.77777777777777, 100%, 50%, 0.5)" stroke="hsla(277.77777777777777, 100%, 50%, 1)" stroke-width="3.3" transform="rotate(18.7444214359054, 1020, 1056)"></path><path d="M734,44 L708.4334812086032,52.30691034120035 L708.433628791873,79.18909110292068 L692.6327987880468,57.440863273560154 L667.066371208127,65.74805433482152 L682.8674400067,44 L667.066371208127,22.251945665178496 L692.6327987880468,30.559136726439846 L708.433628791873,8.810908897079315 L708.4334812086032,35.69308965879964 Z" fill="hsla(4.0740740740740735, 100%, 50%, 0.5)" stroke="hsla(184.07407407407408, 100%, 50%, 1)" stroke-width="1.85" transform="rotate(52.52388583694421, 697, 44)"></path><path d="M264,162 L262.61802601127584,162.44902218060543 L262.6180339887499,163.9021130325903 L261.76393506962415,162.72653314992218 L260.3819660112501,163.17557050458495 L261.2360778382,162 L260.3819660112501,160.82442949541505 L261.76393506962415,161.27346685007782 L262.6180339887499,160.0978869674097 L262.61802601127584,161.55097781939457 Z" fill="hsla(14.999999999999998, 100%, 50%, 0.5)" stroke="hsla(195, 100%, 50%, 1)" stroke-width="0.1" transform="rotate(55.88405438353593, 262, 162)"></path><path d="M936,257 L895.2317673326376,270.24615432786004 L895.2320026681219,313.11233446141404 L870.0360845539125,278.43272792270403 L829.2679973318781,291.6793298852559 L854.4642962269,257 L829.2679973318781,222.32067011474408 L870.0360845539125,235.56727207729597 L895.2320026681219,200.88766553858594 L895.2317673326376,243.75384567213996 Z" fill="hsla(23.796296296296294, 100%, 50%, 0.5)" stroke="hsla(203.7962962962963, 100%, 50%, 1)" stroke-width="2.95" transform="rotate(9.766702969185996, 877, 257)"></path><path d="M1658,185 L1634.5064421916895,192.63337707029223 L1634.5065778087483,217.33592155403522 L1619.9868961836105,197.3510635486769 L1596.4934221912517,204.9846985779441 L1611.0133232494,185 L1596.4934221912517,165.01530142205593 L1619.9868961836105,172.6489364513231 L1634.5065778087483,152.66407844596478 L1634.5064421916895,177.36662292970777 Z" fill="hsla(17.12962962962963, 100%, 50%, 0.5)" stroke="hsla(197.12962962962962, 100%, 50%, 1)" stroke-width="1.7" transform="rotate(70.15322497682578, 1624, 185)"></path><path d="M127,894 L77.93992340029261,909.9402874114926 L77.94020660062127,961.5250126569559 L47.61969497165739,919.7919268222371 L-1.4402066006212593,935.7327529127656 L28.880763256100003,894 L-1.4402066006212664,852.2672470872344 L47.61969497165738,868.2080731777629 L77.94020660062125,826.4749873430441 L77.93992340029261,878.0597125885074 Z" fill="hsla(82.77777777777777, 100%, 50%, 0.5)" stroke="hsla(262.77777777777777, 100%, 50%, 1)" stroke-width="3.55" transform="rotate(34.03140137174742, 56, 894)"></path><path d="M324,983 L302.5794031747756,989.9598437993841 L302.57952682562336,1012.4827520051498 L289.3409935791744,994.2612638237937 L267.92047317437664,1001.2213428210666 L281.1592064921,983 L267.92047317437664,964.7786571789334 L289.3409935791743,971.7387361762063 L302.57952682562336,953.5172479948502 L302.5794031747756,976.0401562006159 Z" fill="hsla(91.01851851851852, 100%, 50%, 0.5)" stroke="hsla(271.01851851851853, 100%, 50%, 1)" stroke-width="1.55" transform="rotate(53.32338159417022, 293, 983)"></path><path d="M1417,666 L1401.1072991296724,671.1637550769624 L1401.1073908706237,687.8742998747886 L1391.2852533006778,674.355131224105 L1375.3926091293763,679.5190608027269 L1385.2148951393,666 L1375.3926091293763,652.4809391972731 L1391.2852533006778,657.644868775895 L1401.1073908706237,644.1257001252114 L1401.1072991296724,660.8362449230376 Z" fill="hsla(61.666666666666664, 100%, 50%, 0.5)" stroke="hsla(241.66666666666666, 100%, 50%, 1)" stroke-width="1.15" transform="rotate(23.1436665556032, 1394, 666)"></path><path d="M735,1050 L709.4334812086032,1058.3069103412004 L709.433628791873,1085.1890911029207 L693.6327987880468,1063.4408632735601 L668.066371208127,1071.7480543348215 L683.8674400067,1050 L668.066371208127,1028.2519456651785 L693.6327987880468,1036.5591367264399 L709.433628791873,1014.8109088970793 L709.4334812086032,1041.6930896587996 Z" fill="hsla(97.22222222222221, 100%, 50%, 0.5)" stroke="hsla(277.22222222222223, 100%, 50%, 1)" stroke-width="1.85" transform="rotate(19.822517361578534, 698, 1050)"></path><path d="M1303,569 L1237.3562355356028,590.3285535787577 L1237.35661446562,659.3503690480396 L1196.7869158071471,603.5103246213031 L1131.14338553438,624.8395989677849 L1171.7136973145,569 L1131.14338553438,513.1604010322151 L1196.7869158071471,534.4896753786969 L1237.35661446562,478.6496309519604 L1237.3562355356028,547.6714464212423 Z" fill="hsla(52.68518518518518, 100%, 50%, 0.5)" stroke="hsla(232.6851851851852, 100%, 50%, 1)" stroke-width="4.75" transform="rotate(27.851289931283155, 1208, 569)"></path><path d="M1723,61 L1671.1759754228442,77.83833177270341 L1671.1762745781211,132.3292387221365 L1639.1475651109056,88.2449931220814 L1587.3237254218789,105.0838939219355 L1619.3529189325,61 L1587.3237254218789,16.916106078064523 L1639.1475651109056,33.7550068779186 L1671.1762745781211,-10.329238722136523 L1671.1759754228442,44.16166822729657 Z" fill="hsla(5.648148148148148, 100%, 50%, 0.5)" stroke="hsla(185.64814814814815, 100%, 50%, 1)" stroke-width="3.75" transform="rotate(48.27388765614501, 1648, 61)"></path><path d="M1071,52 L1053.034338146586,57.83728834787052 L1053.0344418537486,76.727469423674 L1041.9311559051139,61.444930948988215 L1023.9655581462514,67.2824165596043 L1035.0690118966,52 L1023.9655581462514,36.7175834403957 L1041.9311559051139,42.555069051011785 L1053.0344418537486,27.272530576326005 L1053.034338146586,46.16271165212948 Z" fill="hsla(4.814814814814815, 100%, 50%, 0.5)" stroke="hsla(184.8148148148148, 100%, 50%, 1)" stroke-width="1.3" transform="rotate(18.209963593354097, 1045, 52)"></path><path d="M653,1055 L599.7940014341201,1072.2873539533089 L599.794308566871,1128.2313517547268 L566.9115001805299,1082.9715262720035 L513.705691433129,1100.2594644265205 L546.5889967707,1055 L513.705691433129,1009.7405355734795 L566.9115001805299,1027.0284737279965 L599.7943085668709,981.7686482452732 L599.7940014341201,1037.7126460466911 Z" fill="hsla(97.68518518518518, 100%, 50%, 0.5)" stroke="hsla(277.68518518518516, 100%, 50%, 1)" stroke-width="3.85" transform="rotate(54.1280865917265, 576, 1055)"></path><path d="M825,16 L783.5407803382755,29.47066541816273 L783.5410196624969,73.06339097770922 L757.9180520887246,37.79599449766512 L716.4589803375031,51.267115137548394 L742.082335146,16.000000000000004 L716.4589803375031,-19.26711513754838 L757.9180520887245,-5.7959944976651165 L783.5410196624969,-41.06339097770922 L783.5407803382755,2.5293345818372615 Z" fill="hsla(1.4814814814814814, 100%, 50%, 0.5)" stroke="hsla(181.4814814814815, 100%, 50%, 1)" stroke-width="3" transform="rotate(45.248043185019455, 765, 16)"></path><path d="M100,810 L32.97426154687864,831.7775757593631 L32.9746484543699,902.2524820806299 L-8.449149123228636,845.2368577712252 L-75.4746484543699,867.01516947237 L-34.050224847299994,810 L-75.4746484543699,752.9848305276302 L-8.449149123228645,774.7631422287748 L32.974648454369884,717.7475179193701 L32.97426154687864,788.2224242406369 Z" fill="hsla(75, 100%, 50%, 0.5)" stroke="hsla(255, 100%, 50%, 1)" stroke-width="4.85" transform="rotate(68.66867563977826, 3, 810)"></path><path d="M149,116 L121.36052022551696,124.98044361210849 L121.36067977499789,154.04226065180615 L104.27870139248304,130.5306629984434 L76.63932022500211,139.51141009169893 L93.721556764,116 L76.63932022500211,92.48858990830108 L104.27870139248303,101.4693370015566 L121.36067977499789,77.95773934819385 L121.36052022551696,107.01955638789151 Z" fill="hsla(10.74074074074074, 100%, 50%, 0.5)" stroke="hsla(190.74074074074073, 100%, 50%, 1)" stroke-width="2" transform="rotate(17.738202849700023, 109, 116)"></path><path d="M1685,1036 L1650.4506502818963,1047.2255545151356 L1650.4508497187473,1083.5528258147576 L1629.0983767406037,1054.1633287480543 L1594.5491502812527,1065.3892626146237 L1615.901945955,1036 L1594.5491502812527,1006.6107373853763 L1629.0983767406037,1017.8366712519457 L1650.4508497187473,988.4471741852424 L1650.4506502818963,1024.7744454848644 Z" fill="hsla(95.92592592592592, 100%, 50%, 0.5)" stroke="hsla(275.9259259259259, 100%, 50%, 1)" stroke-width="2.5" transform="rotate(48.79552230447698, 1635, 1036)"></path><path d="M853,937 L821.9055852537066,947.1029990636221 L821.9057647468726,979.7975432332819 L802.6885390665434,953.3469958732488 L771.5942352531274,963.4503363531613 L790.8117513595,937 L771.5942352531274,910.5496636468387 L802.6885390665434,920.6530041267512 L821.9057647468726,894.2024567667181 L821.9055852537066,926.8970009363779 Z" fill="hsla(86.75925925925925, 100%, 50%, 0.5)" stroke="hsla(266.75925925925924, 100%, 50%, 1)" stroke-width="2.25" transform="rotate(0.5346786373732542, 808, 937)"></path><path d="M1860,43 L1828.2145982593445,53.32751015392476 L1828.2147817412476,86.74859974957707 L1808.5705066013554,59.710262448209924 L1776.7852182587524,70.03812160545377 L1796.4297902786,43 L1776.7852182587524,15.96187839454624 L1808.5705066013554,26.28973755179008 L1828.2147817412476,-0.7485997495770675 L1828.2145982593445,32.67248984607524 Z" fill="hsla(3.9814814814814814, 100%, 50%, 0.5)" stroke="hsla(183.9814814814815, 100%, 50%, 1)" stroke-width="2.3" transform="rotate(5.265487369744937, 1814, 43)"></path><path d="M1500,1022 L1499.309013005638,1022.2245110903027 L1499.309016994375,1022.9510565162951 L1498.881967534812,1022.3632665749611 L1498.190983005625,1022.5877852522925 L1498.6180389191,1022 L1498.190983005625,1021.4122147477075 L1498.881967534812,1021.6367334250389 L1499.309016994375,1021.0489434837049 L1499.309013005638,1021.7754889096973 Z" fill="hsla(94.62962962962962, 100%, 50%, 0.5)" stroke="hsla(274.6296296296296, 100%, 50%, 1)" stroke-width="0.05" transform="rotate(51.95563034363577, 1499, 1022)"></path><path d="M1701,352 L1636.738209524327,372.87953139815227 L1636.73858047687,440.44825601544926 L1597.022980737523,385.78379147138094 L1532.76141952313,406.6640284632 L1572.4776194763,352 L1532.76141952313,297.3359715368 L1597.022980737523,318.21620852861906 L1636.73858047687,263.55174398455074 L1636.738209524327,331.12046860184773 Z" fill="hsla(32.59259259259259, 100%, 50%, 0.5)" stroke="hsla(212.59259259259258, 100%, 50%, 1)" stroke-width="4.65" transform="rotate(12.506737448609117, 1608, 352)"></path><path d="M773,849 L749.5064421916894,856.6333770702922 L749.5065778087483,881.3359215540352 L734.9868961836106,861.3510635486768 L711.4934221912517,868.9846985779441 L726.0133232494,849 L711.4934221912517,829.0153014220559 L734.9868961836106,836.6489364513232 L749.5065778087483,816.6640784459648 L749.5064421916894,841.3666229297078 Z" fill="hsla(78.6111111111111, 100%, 50%, 0.5)" stroke="hsla(258.6111111111111, 100%, 50%, 1)" stroke-width="1.7" transform="rotate(38.12571780880765, 739, 849)"></path><path d="M401,1046 L344.3390664623098,1064.4099094048224 L344.3393935387457,1123.9866343362025 L309.32133785459024,1075.787859146809 L252.6606064612543,1094.1983906879827 L287.67919136620003,1046 L252.6606064612543,997.8016093120173 L309.32133785459024,1016.212140853191 L344.3393935387457,968.0133656637975 L344.3390664623098,1027.5900905951776 Z" fill="hsla(96.85185185185185, 100%, 50%, 0.5)" stroke="hsla(276.85185185185185, 100%, 50%, 1)" stroke-width="4.1" transform="rotate(16.313328868804792, 319, 1046)"></path><path d="M1282,598 L1252.978546236793,607.4294657927139 L1252.9787137637477,637.9443736843964 L1235.042636462107,613.2571961483656 L1206.0212862362523,622.6869805962839 L1223.9576346022,598 L1206.0212862362523,573.3130194037161 L1235.042636462107,582.7428038516344 L1252.9787137637477,558.0556263156036 L1252.978546236793,588.5705342072861 Z" fill="hsla(55.37037037037037, 100%, 50%, 0.5)" stroke="hsla(235.37037037037038, 100%, 50%, 1)" stroke-width="2.1" transform="rotate(14.277974164540257, 1240, 598)"></path><path d="M1501,100 L1440.1931444961374,119.75697594663868 L1440.1934955049953,183.69297343397352 L1402.6131430634628,131.9674585965755 L1341.8065044950047,151.72510220173766 L1379.3874248808,100 L1341.8065044950047,48.27489779826237 L1402.6131430634628,68.0325414034245 L1440.1934955049953,16.30702656602648 L1440.1931444961374,80.24302405336132 Z" fill="hsla(9.25925925925926, 100%, 50%, 0.5)" stroke="hsla(189.25925925925927, 100%, 50%, 1)" stroke-width="4.4" transform="rotate(56.017328557317455, 1413, 100)"></path><path d="M1312,620 L1251.1931444961374,639.7569759466387 L1251.1934955049953,703.6929734339735 L1213.6131430634628,651.9674585965755 L1152.8065044950047,671.7251022017376 L1190.3874248808,620 L1152.8065044950047,568.2748977982624 L1213.6131430634628,588.0325414034245 L1251.1934955049953,536.3070265660265 L1251.1931444961374,600.2430240533613 Z" fill="hsla(57.407407407407405, 100%, 50%, 0.5)" stroke="hsla(237.4074074074074, 100%, 50%, 1)" stroke-width="4.4" transform="rotate(51.287709598636, 1224, 620)"></path><path d="M336,1049 L306.28755924243075,1058.6539768830166 L306.28773075812273,1089.8954302006916 L287.92460399691925,1064.6204627233267 L258.21226924187727,1074.2747658485764 L276.5756735213,1049 L258.21226924187727,1023.7252341514237 L287.92460399691925,1033.3795372766733 L306.28773075812273,1008.1045697993084 L306.28755924243075,1039.3460231169834 Z" fill="hsla(97.12962962962962, 100%, 50%, 0.5)" stroke="hsla(277.1296296296296, 100%, 50%, 1)" stroke-width="2.15" transform="rotate(39.98277566696106, 293, 1049)"></path><path d="M1207,208 L1175.2145982593445,218.32751015392475 L1175.2147817412476,251.74859974957707 L1155.5705066013554,224.71026244820993 L1123.7852182587524,235.03812160545377 L1143.4297902786,208 L1123.7852182587524,180.96187839454623 L1155.5705066013554,191.28973755179007 L1175.2147817412476,164.25140025042293 L1175.2145982593445,197.67248984607522 Z" fill="hsla(19.25925925925926, 100%, 50%, 0.5)" stroke="hsla(199.25925925925927, 100%, 50%, 1)" stroke-width="2.3" transform="rotate(64.18181871737667, 1161, 208)"></path><path d="M296,49 L272.5064421916894,56.63337707029221 L272.5065778087482,81.33592155403522 L257.98689618361055,61.351063548676905 L234.4934221912518,68.98469857794409 L249.0133232494,49 L234.4934221912518,29.015301422055916 L257.98689618361055,36.6489364513231 L272.5065778087482,16.664078445964776 L272.5064421916894,41.36662292970778 Z" fill="hsla(4.537037037037036, 100%, 50%, 0.5)" stroke="hsla(184.53703703703704, 100%, 50%, 1)" stroke-width="1.7" transform="rotate(49.58319442290694, 262, 49)"></path><path d="M1766,306 L1757.017169073293,308.91864417393526 L1757.0172209268744,318.36373471183697 L1751.465577952557,310.72246547449413 L1742.4827790731256,313.64120827980213 L1748.0345059483,306 L1742.4827790731256,298.35879172019787 L1751.465577952557,301.27753452550587 L1757.0172209268744,293.63626528816303 L1757.017169073293,303.08135582606474 Z" fill="hsla(28.333333333333332, 100%, 50%, 0.5)" stroke="hsla(208.33333333333334, 100%, 50%, 1)" stroke-width="0.65" transform="rotate(21.2656270229349, 1753, 306)"></path><path d="M238,426 L207.59657224806867,435.87848797331935 L207.5967477524977,467.84648671698676 L188.80657153173135,441.98372929828776 L158.4032522475023,451.8625511008688 L177.1937124404,426 L158.4032522475023,400.1374488991312 L188.80657153173132,410.01627070171224 L207.59674775249766,384.15351328301324 L207.59657224806867,416.12151202668065 Z" fill="hsla(39.44444444444444, 100%, 50%, 0.5)" stroke="hsla(219.44444444444446, 100%, 50%, 1)" stroke-width="2.2" transform="rotate(61.10539170813148, 194, 426)"></path><path d="M709,988 L689.6523641578618,994.286310528476 L689.6524758424986,1014.6295824562643 L677.6950909747382,998.1714640989104 L658.3475241575014,1004.4579870641893 L670.3050897348,988 L658.3475241575014,971.5420129358107 L677.6950909747382,977.8285359010896 L689.6524758424986,961.3704175437357 L689.6523641578618,981.713689471524 Z" fill="hsla(91.48148148148148, 100%, 50%, 0.5)" stroke="hsla(271.48148148148147, 100%, 50%, 1)" stroke-width="1.4" transform="rotate(49.22010819920013, 681, 988)"></path><path d="M1527,724 L1512.4892731183963,728.714732896357 L1512.4893568818738,743.9721868421982 L1503.5213182310536,731.6285980741828 L1489.0106431181262,736.3434902981419 L1497.9788173011,724 L1489.0106431181262,711.6565097018581 L1503.5213182310536,716.3714019258172 L1512.4893568818738,704.0278131578018 L1512.4892731183963,719.285267103643 Z" fill="hsla(67.03703703703704, 100%, 50%, 0.5)" stroke="hsla(247.03703703703704, 100%, 50%, 1)" stroke-width="1.05" transform="rotate(4.838245045371634, 1506, 724)"></path><path d="M652,16 L596.0300534566719,34.18539831451969 L596.0303765443707,93.03557781990743 L561.4393703197782,45.42459257184791 L505.4696234556293,63.61060543569033 L540.0611524471,16.000000000000004 L505.4696234556293,-31.610605435690317 L561.4393703197782,-13.424592571847906 L596.0303765443707,-61.035577819907445 L596.0300534566718,-2.185398314519695 Z" fill="hsla(1.4814814814814814, 100%, 50%, 0.5)" stroke="hsla(181.4814814814815, 100%, 50%, 1)" stroke-width="4.05" transform="rotate(17.361647247513922, 571, 16)"></path><path d="M327,105 L300.05150721987906,113.75593252180578 L300.05166278062296,142.091204135511 L283.39673385767094,119.16739642348233 L256.44833721937704,127.92362483940646 L273.1035178449,105 L256.44833721937704,82.07637516059356 L283.39673385767094,90.83260357651767 L300.05166278062296,67.90879586448901 L300.05150721987906,96.24406747819422 Z" fill="hsla(9.722222222222221, 100%, 50%, 0.5)" stroke="hsla(189.72222222222223, 100%, 50%, 1)" stroke-width="1.95" transform="rotate(23.772564144949623, 288, 105)"></path><path d="M1366,896 L1316.2489364059306,912.1647985017953 L1316.2492235949962,964.4760691732511 L1285.5016625064695,922.1551933971981 L1235.7507764050038,938.3205381650581 L1266.4988021752,896 L1235.7507764050038,853.6794618349419 L1285.5016625064695,869.8448066028019 L1316.2492235949962,827.5239308267489 L1316.2489364059306,879.8352014982047 Z" fill="hsla(82.96296296296296, 100%, 50%, 0.5)" stroke="hsla(262.96296296296293, 100%, 50%, 1)" stroke-width="3.6" transform="rotate(52.38597816022182, 1294, 896)"></path><path d="M1633,287 L1596.37768929881,298.89908778604376 L1596.3779007018722,337.4059953636431 L1573.74427934504,306.25312847293753 L1537.1220992981278,318.1526183715011 L1559.7560627123,287 L1537.1220992981278,255.84738162849894 L1573.74427934504,267.74687152706247 L1596.3779007018722,236.59400463635686 L1596.37768929881,275.10091221395624 Z" fill="hsla(26.574074074074073, 100%, 50%, 0.5)" stroke="hsla(206.57407407407408, 100%, 50%, 1)" stroke-width="2.65" transform="rotate(31.448909319056945, 1580, 287)"></path><path d="M1771,925 L1739.2145982593445,935.3275101539248 L1739.2147817412476,968.748599749577 L1719.5705066013554,941.71026244821 L1687.7852182587524,952.0381216054537 L1707.4297902786,925 L1687.7852182587524,897.9618783945463 L1719.5705066013554,908.28973755179 L1739.2147817412476,881.2514002504229 L1739.2145982593445,914.6724898460752 Z" fill="hsla(85.64814814814814, 100%, 50%, 0.5)" stroke="hsla(265.64814814814815, 100%, 50%, 1)" stroke-width="2.3" transform="rotate(10.32254741390489, 1725, 925)"></path><path d="M929,573 L869.5751184848615,592.3079537660333 L869.5754615162455,654.7908604013832 L832.8492079938385,604.2409254466534 L773.4245384837545,623.5495316971527 L810.1513470426,573 L773.4245384837545,522.4504683028473 L832.8492079938385,541.7590745533466 L869.5754615162455,491.2091395986168 L869.5751184848615,553.6920462339667 Z" fill="hsla(53.05555555555555, 100%, 50%, 0.5)" stroke="hsla(233.05555555555554, 100%, 50%, 1)" stroke-width="4.3" transform="rotate(26.642910736086886, 843, 573)"></path><path d="M1081,709 L1029.8669624172064,725.6138206824007 L1029.867257583746,779.3781822058413 L998.2655975760936,735.8817265471204 L947.1327424162539,752.496108669643 L978.7348800134,709 L947.1327424162539,665.503891330357 L998.2655975760936,682.1182734528796 L1029.867257583746,638.6218177941587 L1029.8669624172064,692.3861793175993 Z" fill="hsla(65.64814814814814, 100%, 50%, 0.5)" stroke="hsla(245.64814814814815, 100%, 50%, 1)" stroke-width="3.7" transform="rotate(53.19410801130981, 1007, 709)"></path><path d="M525,515 L496.6695332311549,524.2049547024112 L496.6696967693728,553.9933171681013 L479.1606689272951,529.8939295734045 L450.8303032306272,539.0991953439914 L468.3395956831,515 L450.8303032306271,490.90080465600863 L479.1606689272951,500.1060704265955 L496.6696967693728,476.00668283189873 L496.6695332311549,505.7950452975888 Z" fill="hsla(47.68518518518518, 100%, 50%, 0.5)" stroke="hsla(227.6851851851852, 100%, 50%, 1)" stroke-width="2.05" transform="rotate(22.95559526317391, 484, 515)"></path><path d="M1123,224 L1099.5064421916895,231.63337707029223 L1099.5065778087483,256.3359215540352 L1084.9868961836105,236.3510635486769 L1061.4934221912517,243.9846985779441 L1076.0133232494,224 L1061.4934221912517,204.01530142205593 L1084.9868961836105,211.6489364513231 L1099.5065778087483,191.66407844596478 L1099.5064421916895,216.36662292970777 Z" fill="hsla(20.74074074074074, 100%, 50%, 0.5)" stroke="hsla(200.74074074074073, 100%, 50%, 1)" stroke-width="1.7" transform="rotate(44.28588390378981, 1089, 224)"></path><path d="M394,856 L350.46781935518925,870.1441986890709 L350.4680706456217,915.9165605265947 L323.5639546931608,878.8857942225484 L280.03192935437835,893.0304708944258 L306.9364519033,856 L280.0319293543783,818.9695291055742 L323.5639546931608,833.1142057774516 L350.46807064562165,796.0834394734053 L350.4678193551892,841.8558013109291 Z" fill="hsla(79.25925925925925, 100%, 50%, 0.5)" stroke="hsla(259.25925925925924, 100%, 50%, 1)" stroke-width="3.15" transform="rotate(59.09560593446685, 331, 856)"></path><path d="M842,848 L817.1244682029653,856.0823992508977 L817.1246117974981,882.2380345866255 L801.7508312532348,861.0775966985991 L776.8753882025019,869.160269082529 L792.2494010876,848 L776.8753882025019,826.839730917471 L801.7508312532348,834.9224033014009 L817.1246117974981,813.7619654133745 L817.1244682029653,839.9176007491023 Z" fill="hsla(78.51851851851852, 100%, 50%, 0.5)" stroke="hsla(258.51851851851853, 100%, 50%, 1)" stroke-width="1.8" transform="rotate(69.4038596419808, 806, 848)"></path><path d="M1211,46 L1152.9570924735856,64.85893158542783 L1152.9574275274956,125.88874736879289 L1117.0852729242145,76.51439229673116 L1059.0425724725044,95.37396119256775 L1094.9152692044,46.00000000000001 L1059.0425724725044,-3.3739611925677337 L1117.0852729242145,15.48560770326884 L1152.9574275274956,-33.888747368792906 L1152.9570924735856,27.141068414572167 Z" fill="hsla(4.259259259259259, 100%, 50%, 0.5)" stroke="hsla(184.25925925925927, 100%, 50%, 1)" stroke-width="4.2" transform="rotate(32.62017065349865, 1127, 46)"></path><path d="M1680,275 L1659.2703901691377,281.7353327090814 L1659.2705098312483,303.5316954888546 L1646.4590260443622,285.89799724883255 L1625.7294901687517,292.6335575687742 L1638.541167573,275 L1625.7294901687517,257.36644243122583 L1646.4590260443622,264.10200275116745 L1659.2705098312483,246.4683045111454 L1659.2703901691377,268.2646672909186 Z" fill="hsla(25.462962962962962, 100%, 50%, 0.5)" stroke="hsla(205.46296296296296, 100%, 50%, 1)" stroke-width="1.5" transform="rotate(36.52817647111986, 1650, 275)"></path><path d="M973,583 L919.1030144397581,600.5118650436116 L919.1033255612459,657.1824082710219 L885.7934677153419,611.3347928469647 L831.8966744387541,628.8472496788129 L865.2070356898,583 L831.8966744387541,537.1527503211871 L885.7934677153419,554.6652071530353 L919.1033255612459,508.817591728978 L919.1030144397581,565.4881349563884 Z" fill="hsla(53.98148148148148, 100%, 50%, 0.5)" stroke="hsla(233.98148148148147, 100%, 50%, 1)" stroke-width="3.9" transform="rotate(10.915653688729158, 895, 583)"></path><path d="M197,550 L170.7424942142411,558.5314214315031 L170.742645786248,586.1401476192158 L154.5147663228589,563.8041298485213 L128.257354213752,572.335839587114 L144.4854789258,550 L128.257354213752,527.6641604128861 L154.5147663228589,536.1958701514787 L170.742645786248,513.8598523807841 L170.7424942142411,541.4685785684969 Z" fill="hsla(50.925925925925924, 100%, 50%, 0.5)" stroke="hsla(230.92592592592592, 100%, 50%, 1)" stroke-width="1.9" transform="rotate(35.883268946995585, 159, 550)"></path><path d="M1756,335 L1744.9442080902068,338.5921774448434 L1744.944271909999,350.21690426072246 L1738.1114805569932,340.81226519937735 L1727.055728090001,344.4045640366796 L1733.8886227056,335 L1727.055728090001,325.5954359633204 L1738.1114805569932,329.18773480062265 L1744.944271909999,319.78309573927754 L1744.9442080902068,331.4078225551566 Z" fill="hsla(31.018518518518515, 100%, 50%, 0.5)" stroke="hsla(211.0185185185185, 100%, 50%, 1)" stroke-width="0.8" transform="rotate(28.55090249944131, 1740, 335)"></path><path d="M1811,1012 L1786.8154551973273,1019.8578881605949 L1786.815594803123,1045.2869780703304 L1771.8688637184227,1024.714330123638 L1747.684405196877,1032.5724838302365 L1762.6313621685,1012 L1747.684405196877,991.4275161697634 L1771.8688637184227,999.285669876362 L1786.815594803123,978.7130219296696 L1786.8154551973273,1004.1421118394051 Z" fill="hsla(93.7037037037037, 100%, 50%, 0.5)" stroke="hsla(273.7037037037037, 100%, 50%, 1)" stroke-width="1.75" transform="rotate(12.340720898202248, 1776, 1012)"></path><path d="M949,474 L926.1974291860515,481.4088659799895 L926.1975608143732,505.38486503774004 L912.1049286487985,485.98779697371583 L889.3024391856268,493.3969133256516 L903.3952843303,474 L889.3024391856268,454.6030866743484 L912.1049286487985,462.01220302628417 L926.1975608143732,442.61513496225996 L926.1974291860515,466.5911340200105 Z" fill="hsla(43.888888888888886, 100%, 50%, 0.5)" stroke="hsla(223.88888888888889, 100%, 50%, 1)" stroke-width="1.65" transform="rotate(3.783513410327295, 916, 474)"></path><path d="M956,564 L900.7210404510339,581.960887224217 L900.7213595499958,640.0845213036123 L866.557402784966,593.0613259968868 L811.2786404500042,611.0228201833978 L845.443113528,564 L811.2786404500042,516.9771798166022 L866.557402784966,534.9386740031132 L900.7213595499958,487.9154786963877 L900.7210404510339,546.039112775783 Z" fill="hsla(52.22222222222222, 100%, 50%, 0.5)" stroke="hsla(232.22222222222223, 100%, 50%, 1)" stroke-width="4" transform="rotate(68.87093772255152, 876, 564)"></path><path d="M830,44 L804.4334812086032,52.30691034120035 L804.433628791873,79.18909110292068 L788.6327987880468,57.440863273560154 L763.066371208127,65.74805433482152 L778.8674400067,44 L763.066371208127,22.251945665178496 L788.6327987880468,30.559136726439846 L804.433628791873,8.810908897079315 L804.4334812086032,35.69308965879964 Z" fill="hsla(4.0740740740740735, 100%, 50%, 0.5)" stroke="hsla(184.07407407407408, 100%, 50%, 1)" stroke-width="1.85" transform="rotate(20.13600605666137, 793, 44)"></path><path d="M488,453 L473.4892731183964,457.71473289635696 L473.4893568818739,472.9721868421982 L464.5213182310536,460.6285980741828 L450.0106431181261,465.34349029814194 L458.9788173011,453 L450.0106431181261,440.65650970185806 L464.5213182310536,445.3714019258172 L473.4893568818739,433.0278131578018 L473.4892731183964,448.28526710364304 Z" fill="hsla(41.94444444444444, 100%, 50%, 0.5)" stroke="hsla(221.94444444444446, 100%, 50%, 1)" stroke-width="1.05" transform="rotate(60.711259400284725, 467, 453)"></path><path d="M1746,888 L1695.5579494115684,904.389309592098 L1695.558240589371,957.4271256895462 L1664.3836300412815,914.5184599721592 L1613.941759410629,930.9083234173505 L1645.1168410943,888 L1613.941759410629,845.0916765826495 L1664.3836300412815,861.4815400278408 L1695.558240589371,818.5728743104538 L1695.5579494115684,871.610690407902 Z" fill="hsla(82.22222222222221, 100%, 50%, 0.5)" stroke="hsla(262.22222222222223, 100%, 50%, 1)" stroke-width="3.65" transform="rotate(26.734103476900714, 1673, 888)"></path><path d="M243,87 L242.30901300563792,87.22451109030271 L242.30901699437496,87.95105651629515 L241.88196753481208,87.36326657496109 L241.19098300562504,87.58778525229248 L241.6180389191,87 L241.19098300562504,86.41221474770752 L241.88196753481208,86.63673342503891 L242.30901699437496,86.04894348370485 L242.30901300563792,86.77548890969729 Z" fill="hsla(8.055555555555555, 100%, 50%, 0.5)" stroke="hsla(188.05555555555554, 100%, 50%, 1)" stroke-width="0.05" transform="rotate(24.304537611427524, 242, 87)"></path><path d="M468,391 L454.87124710712055,395.26571071575154 L454.871322893124,409.0700738096079 L446.75738316142946,397.9020649242606 L433.628677106876,402.167919793557 L441.7427394629,391 L433.628677106876,379.83208020644304 L446.75738316142946,384.0979350757394 L454.871322893124,372.92992619039205 L454.87124710712055,386.73428928424846 Z" fill="hsla(36.2037037037037, 100%, 50%, 0.5)" stroke="hsla(216.2037037037037, 100%, 50%, 1)" stroke-width="0.95" transform="rotate(62.12932348810502, 449, 391)"></path><path d="M1417,175 L1383.8326242706203,185.77653233453017 L1383.8328157299975,220.65071278216737 L1363.3344416709797,192.4367955981321 L1330.1671842700025,203.21369211003872 L1350.6658681168,175 L1330.1671842700025,146.78630788996128 L1363.3344416709797,157.5632044018679 L1383.8328157299975,129.34928721783263 L1383.8326242706203,164.2234676654698 Z" fill="hsla(16.203703703703702, 100%, 50%, 0.5)" stroke="hsla(196.2037037037037, 100%, 50%, 1)" stroke-width="2.4" transform="rotate(57.50000619469524, 1369, 175)"></path><path d="M1889,624 L1866.1974291860515,631.4088659799895 L1866.1975608143732,655.38486503774 L1852.1049286487985,635.9877969737158 L1829.3024391856268,643.3969133256517 L1843.3952843303,624 L1829.3024391856268,604.6030866743483 L1852.1049286487985,612.0122030262842 L1866.1975608143732,592.61513496226 L1866.1974291860515,616.5911340200105 Z" fill="hsla(57.77777777777777, 100%, 50%, 0.5)" stroke="hsla(237.77777777777777, 100%, 50%, 1)" stroke-width="1.65" transform="rotate(42.59244214671858, 1856, 624)"></path><path d="M1103,503 L1064.9957153100859,515.3481099666492 L1064.995934690622,555.3081083962335 L1041.5082144146643,522.9796616228597 L1003.5040653093779,535.3281888760861 L1026.9921405505,503 L1003.5040653093779,470.671811123914 L1041.5082144146643,483.0203383771403 L1064.995934690622,450.6918916037665 L1064.9957153100859,490.6518900333508 Z" fill="hsla(46.57407407407407, 100%, 50%, 0.5)" stroke="hsla(226.57407407407408, 100%, 50%, 1)" stroke-width="2.75" transform="rotate(54.532643331570334, 1048, 503)"></path><path d="M641,458 L596.7768323608271,472.3687097793736 L596.7770876399966,518.8676170428898 L569.4459222279729,481.24906079750946 L525.2229123600034,495.6182561467183 L552.5544908224,458 L525.2229123600034,420.3817438532817 L569.4459222279728,434.75093920249054 L596.7770876399966,397.13238295711017 L596.7768323608271,443.6312902206264 Z" fill="hsla(42.407407407407405, 100%, 50%, 0.5)" stroke="hsla(222.4074074074074, 100%, 50%, 1)" stroke-width="3.2" transform="rotate(69.96718323556372, 577, 458)"></path><path d="M486,699 L445.2317673326375,712.24615432786 L445.2320026681219,755.1123344614141 L420.0360845539125,720.4327279227041 L379.2679973318781,733.6793298852559 L404.4642962269,699 L379.2679973318781,664.3206701147441 L420.0360845539125,677.5672720772959 L445.2320026681219,642.8876655385859 L445.2317673326375,685.75384567214 Z" fill="hsla(64.72222222222221, 100%, 50%, 0.5)" stroke="hsla(244.72222222222223, 100%, 50%, 1)" stroke-width="2.95" transform="rotate(5.039086755981501, 427, 699)"></path><path d="M283,368 L260.88841618041357,375.1843548896868 L260.8885438199983,398.4338085214449 L247.22296111398643,379.62453039875476 L225.11145618000168,386.80912807335915 L238.7772454112,368 L225.11145618000168,349.19087192664085 L247.22296111398643,356.3754696012453 L260.8885438199983,337.5661914785551 L260.88841618041357,360.8156451103132 Z" fill="hsla(34.07407407407407, 100%, 50%, 0.5)" stroke="hsla(214.07407407407408, 100%, 50%, 1)" stroke-width="1.6" transform="rotate(5.472616006316665, 251, 368)"></path><path d="M1998,811 L1937.1931444961374,830.7569759466387 L1937.1934955049953,894.6929734339735 L1899.6131430634628,842.9674585965755 L1838.8065044950047,862.7251022017376 L1876.3874248808,811 L1838.8065044950047,759.2748977982624 L1899.6131430634628,779.0325414034245 L1937.1934955049953,727.3070265660265 L1937.1931444961374,791.2430240533613 Z" fill="hsla(75.09259259259258, 100%, 50%, 0.5)" stroke="hsla(255.09259259259258, 100%, 50%, 1)" stroke-width="4.4" transform="rotate(44.01298674180738, 1910, 811)"></path><path d="M651,718 L595.0300534566719,736.1853983145197 L595.0303765443707,795.0355778199074 L560.4393703197782,747.4245925718479 L504.4696234556293,765.6106054356903 L539.0611524471,718 L504.4696234556293,670.3893945643097 L560.4393703197782,688.5754074281521 L595.0303765443707,640.9644221800926 L595.0300534566718,699.8146016854803 Z" fill="hsla(66.48148148148148, 100%, 50%, 0.5)" stroke="hsla(246.48148148148147, 100%, 50%, 1)" stroke-width="4.05" transform="rotate(13.966916753499081, 570, 718)"></path><path d="M1949,346 L1924.8154551973273,353.85788816059494 L1924.815594803123,379.28697807033035 L1909.8688637184227,358.714330123638 L1885.684405196877,366.5724838302366 L1900.6313621685,346 L1885.684405196877,325.42751616976346 L1909.8688637184227,333.285669876362 L1924.815594803123,312.7130219296696 L1924.8154551973273,338.14211183940506 Z" fill="hsla(32.03703703703704, 100%, 50%, 0.5)" stroke="hsla(212.03703703703704, 100%, 50%, 1)" stroke-width="1.75" transform="rotate(10.587039753790872, 1914, 346)"></path><path d="M749,815 L681.9742615468787,836.7775757593631 L681.9746484543699,907.2524820806299 L640.5508508767714,850.2368577712252 L573.5253515456301,872.01516947237 L614.9497751527,815 L573.5253515456301,757.9848305276302 L640.5508508767714,779.7631422287748 L681.9746484543699,722.7475179193701 L681.9742615468787,793.2224242406369 Z" fill="hsla(75.46296296296296, 100%, 50%, 0.5)" stroke="hsla(255.46296296296296, 100%, 50%, 1)" stroke-width="4.85" transform="rotate(25.44312835600458, 652, 815)"></path><path d="M875,426 L867.3991430620172,428.46962199332984 L867.3991869381244,436.46162167924666 L862.7016428829328,429.9959323245719 L855.1008130618756,432.4656377752172 L859.7984281101,426 L855.1008130618756,419.5343622247828 L862.7016428829328,422.0040676754281 L867.3991869381244,415.5383783207533 L867.3991430620172,423.53037800667016 Z" fill="hsla(39.44444444444444, 100%, 50%, 0.5)" stroke="hsla(219.44444444444446, 100%, 50%, 1)" stroke-width="0.55" transform="rotate(71.89283610387423, 864, 426)"></path><path d="M1862,832 L1792.9013005637923,854.4511090302713 L1792.9016994374947,927.1056516295154 L1750.1967534812077,868.3266574961085 L1681.0983005625053,890.7785252292473 L1723.80389191,832 L1681.0983005625053,773.2214747707527 L1750.1967534812077,795.6733425038915 L1792.9016994374947,736.8943483704846 L1792.9013005637923,809.5488909697287 Z" fill="hsla(77.03703703703704, 100%, 50%, 0.5)" stroke="hsla(257.03703703703707, 100%, 50%, 1)" stroke-width="5" transform="rotate(28.617623096067025, 1762, 832)"></path><path d="M498,104 L493.85407803382753,105.34706654181628 L493.8541019662497,109.70633909777092 L491.29180520887246,106.17959944976651 L487.1458980337503,107.52671151375483 L489.7082335146,104 L487.1458980337503,100.47328848624517 L491.29180520887246,101.82040055023349 L493.8541019662497,98.29366090222908 L493.85407803382753,102.65293345818372 Z" fill="hsla(9.62962962962963, 100%, 50%, 0.5)" stroke="hsla(189.62962962962962, 100%, 50%, 1)" stroke-width="0.3" transform="rotate(7.216897620526435, 492, 104)"></path><path d="M143,875 L140.92703901691377,875.6735332709081 L140.92705098312484,877.8531695488855 L139.64590260443623,876.0897997248833 L137.57294901687516,876.7633557568774 L138.8541167573,875 L137.57294901687516,873.2366442431226 L139.64590260443623,873.9102002751167 L140.92705098312484,872.1468304511145 L140.92703901691377,874.3264667290919 Z" fill="hsla(81.01851851851852, 100%, 50%, 0.5)" stroke="hsla(261.01851851851853, 100%, 50%, 1)" stroke-width="0.15" transform="rotate(6.0398060739200545, 140, 875)"></path><path d="M93,179 L79.87124710712055,183.26571071575154 L79.871322893124,197.07007380960792 L71.75738316142944,185.90206492426063 L58.628677106876,190.167919793557 L66.7427394629,179 L58.628677106876,167.832080206443 L71.75738316142944,172.09793507573937 L79.871322893124,160.92992619039208 L79.87124710712055,174.73428928424846 Z" fill="hsla(16.574074074074073, 100%, 50%, 0.5)" stroke="hsla(196.57407407407408, 100%, 50%, 1)" stroke-width="0.95" transform="rotate(50.200273230852005, 74, 179)"></path><path d="M61,670 L43.7253251409481,675.6127772575678 L43.72542485937369,693.7764129073788 L33.0491883703019,679.0816643740271 L15.774575140626318,684.6946313073119 L26.4509729775,670 L15.774575140626315,655.3053686926881 L33.0491883703019,660.9183356259729 L43.72542485937368,646.2235870926212 L43.7253251409481,664.3872227424322 Z" fill="hsla(62.03703703703703, 100%, 50%, 0.5)" stroke="hsla(242.03703703703704, 100%, 50%, 1)" stroke-width="1.25" transform="rotate(51.61261137099104, 36, 670)"></path><path d="M457,107 L412.08584536646504,121.59322086967629 L412.08610463437157,168.818673559185 L384.32788976278493,130.61232737247053 L339.41389536562843,145.20604139901076 L367.1725297415,107 L339.41389536562843,68.79395860098926 L384.32788976278493,83.38767262752945 L412.08610463437157,45.18132644081501 L412.08584536646504,92.4067791303237 Z" fill="hsla(9.907407407407407, 100%, 50%, 0.5)" stroke="hsla(189.90740740740742, 100%, 50%, 1)" stroke-width="3.25" transform="rotate(26.37923250301418, 392, 107)"></path><path d="M899,81 L890.7081560676551,83.69413308363255 L890.7082039324994,92.41267819554184 L885.5836104177449,85.35919889953303 L877.2917960675006,88.05342302750968 L882.4164670292,81 L877.2917960675006,73.94657697249032 L885.5836104177449,76.64080110046697 L890.7082039324994,69.58732180445816 L890.7081560676551,78.30586691636745 Z" fill="hsla(7.499999999999999, 100%, 50%, 0.5)" stroke="hsla(187.5, 100%, 50%, 1)" stroke-width="0.6" transform="rotate(43.47063824167044, 887, 81)"></path><path d="M1848,410 L1789.9570924735856,428.85893158542785 L1789.9574275274956,489.8887473687929 L1754.0852729242145,440.51439229673116 L1696.0425724725044,459.3739611925678 L1731.9152692044,410 L1696.0425724725044,360.6260388074323 L1754.0852729242145,379.48560770326884 L1789.9574275274956,330.1112526312071 L1789.9570924735856,391.14106841457215 Z" fill="hsla(37.96296296296296, 100%, 50%, 0.5)" stroke="hsla(217.96296296296296, 100%, 50%, 1)" stroke-width="4.2" transform="rotate(46.09649900252065, 1764, 410)"></path><path d="M1885,699 L1835.9399234002926,714.9402874114926 L1835.9402066006212,766.5250126569559 L1805.6196949716573,724.7919268222371 L1756.5597933993788,740.7327529127656 L1786.8807632561,699 L1756.5597933993788,657.2672470872344 L1805.6196949716573,673.2080731777629 L1835.9402066006212,631.4749873430441 L1835.9399234002926,683.0597125885074 Z" fill="hsla(64.72222222222221, 100%, 50%, 0.5)" stroke="hsla(244.72222222222223, 100%, 50%, 1)" stroke-width="3.55" transform="rotate(15.80728344729847, 1814, 699)"></path><path d="M868,115 L826.5407803382755,128.47066541816272 L826.5410196624969,172.06339097770922 L800.9180520887246,136.7959944976651 L759.4589803375031,150.2671151375484 L785.082335146,115 L759.4589803375031,79.73288486245161 L800.9180520887245,93.20400550233488 L826.5410196624969,57.93660902229078 L826.5407803382755,101.52933458183726 Z" fill="hsla(10.648148148148147, 100%, 50%, 0.5)" stroke="hsla(190.64814814814815, 100%, 50%, 1)" stroke-width="3" transform="rotate(0.14586588012314472, 808, 115)"></path><path d="M293,591 L269.5064421916894,598.6333770702922 L269.5065778087482,623.3359215540352 L254.98689618361058,603.3510635486768 L231.4934221912518,610.9846985779441 L246.0133232494,591 L231.4934221912518,571.0153014220559 L254.98689618361058,578.6489364513232 L269.5065778087482,558.6640784459648 L269.5064421916894,583.3666229297078 Z" fill="hsla(54.72222222222222, 100%, 50%, 0.5)" stroke="hsla(234.72222222222223, 100%, 50%, 1)" stroke-width="1.7" transform="rotate(0.8056860486230928, 259, 591)"></path><path d="M906,1000 L899.0901300563793,1002.2451109030271 L899.0901699437495,1009.5105651629515 L894.8196753481208,1003.6326657496109 L887.9098300562505,1005.8778525229247 L892.180389191,1000 L887.9098300562505,994.1221474770753 L894.8196753481208,996.3673342503891 L899.0901699437495,990.4894348370485 L899.0901300563793,997.7548890969729 Z" fill="hsla(92.59259259259258, 100%, 50%, 0.5)" stroke="hsla(272.5925925925926, 100%, 50%, 1)" stroke-width="0.5" transform="rotate(59.23846850089308, 896, 1000)"></path><path d="M1845,896 L1815.2875592424307,905.6539768830166 L1815.2877307581227,936.8954302006916 L1796.9246039969194,911.6204627233267 L1767.2122692418773,921.2747658485764 L1785.5756735213,896 L1767.2122692418773,870.7252341514237 L1796.9246039969194,880.3795372766733 L1815.2877307581227,855.1045697993084 L1815.2875592424307,886.3460231169834 Z" fill="hsla(82.96296296296296, 100%, 50%, 0.5)" stroke="hsla(262.96296296296293, 100%, 50%, 1)" stroke-width="2.15" transform="rotate(4.442844262083064, 1802, 896)"></path><path d="M1140,968 L1101.9957153100859,980.3481099666492 L1101.995934690622,1020.3081083962335 L1078.5082144146643,987.9796616228597 L1040.504065309378,1000.3281888760861 L1063.9921405505,968 L1040.504065309378,935.671811123914 L1078.5082144146643,948.0203383771403 L1101.995934690622,915.6918916037665 L1101.9957153100859,955.6518900333508 Z" fill="hsla(89.62962962962962, 100%, 50%, 0.5)" stroke="hsla(269.6296296296296, 100%, 50%, 1)" stroke-width="2.75" transform="rotate(59.42558145220063, 1085, 968)"></path><path d="M1839,709 L1836.9270390169138,709.6735332709081 L1836.927050983125,711.8531695488855 L1835.6459026044363,710.0897997248833 L1833.572949016875,710.7633557568774 L1834.8541167573,709 L1833.572949016875,707.2366442431226 L1835.6459026044363,707.9102002751167 L1836.927050983125,706.1468304511145 L1836.9270390169138,708.3264667290919 Z" fill="hsla(65.64814814814814, 100%, 50%, 0.5)" stroke="hsla(245.64814814814815, 100%, 50%, 1)" stroke-width="0.15" transform="rotate(35.34927145626256, 1836, 709)"></path><path d="M957,851 L893.429196518689,871.6550203078496 L893.4295634824952,938.4971994991541 L854.141013202711,884.4205248964198 L790.5704365175048,905.0762432109076 L829.8595805572,851 L790.5704365175048,796.9237567890925 L854.141013202711,817.5794751035802 L893.4295634824952,763.5028005008459 L893.429196518689,830.3449796921504 Z" fill="hsla(78.79629629629629, 100%, 50%, 0.5)" stroke="hsla(258.7962962962963, 100%, 50%, 1)" stroke-width="4.6" transform="rotate(55.39606545370997, 865, 851)"></path><path d="M1004,358 L936.2832745525166,380.0020868496658 L936.2836654487448,451.20353859692506 L894.4328184115834,393.60012434618636 L826.7163345512552,415.60295472466237 L868.5678140718001,358 L826.7163345512552,300.39704527533763 L894.4328184115834,322.39987565381364 L936.2836654487448,264.79646140307494 L936.2832745525166,335.99791315033417 Z" fill="hsla(33.148148148148145, 100%, 50%, 0.5)" stroke="hsla(213.14814814814815, 100%, 50%, 1)" stroke-width="4.9" transform="rotate(59.92791729656791, 906, 358)"></path><path d="M1224,787 L1199.1244682029653,795.0823992508977 L1199.1246117974981,821.2380345866255 L1183.7508312532348,800.0775966985991 L1158.8753882025019,808.160269082529 L1174.2494010876,787 L1158.8753882025019,765.839730917471 L1183.7508312532348,773.9224033014009 L1199.1246117974981,752.7619654133745 L1199.1244682029653,778.9176007491023 Z" fill="hsla(72.87037037037037, 100%, 50%, 0.5)" stroke="hsla(252.87037037037038, 100%, 50%, 1)" stroke-width="1.8" transform="rotate(3.9072885366314516, 1188, 787)"></path><path d="M1485,477 L1464.9613771634997,483.51082161877866 L1464.9614928368735,504.5806389725594 L1452.5770585095502,487.5347306738715 L1432.5385071631265,494.0457723164817 L1444.9231286539,477 L1432.5385071631265,459.9542276835183 L1452.5770585095502,466.4652693261285 L1464.9614928368735,449.4193610274406 L1464.9613771634997,470.48917838122134 Z" fill="hsla(44.166666666666664, 100%, 50%, 0.5)" stroke="hsla(224.16666666666666, 100%, 50%, 1)" stroke-width="1.45" transform="rotate(4.470644532276122, 1456, 477)"></path><path d="M964,29 L931.5236112649825,39.552021244227475 L931.5237987356226,73.69965626587222 L911.4524741361676,46.07352902317101 L878.9762012643774,56.625906857746244 L899.0478291977,29.000000000000004 L878.9762012643774,1.3740931422537663 L911.4524741361676,11.926470976828991 L931.5237987356226,-15.699656265872221 L931.5236112649824,18.44797875577252 Z" fill="hsla(2.685185185185185, 100%, 50%, 0.5)" stroke="hsla(182.6851851851852, 100%, 50%, 1)" stroke-width="2.35" transform="rotate(33.55699646423774, 917, 29)"></path><path d="M844,337 L775.5922875581545,359.2265979399685 L775.5926824431198,431.1545951132202 L733.3147859463955,372.96339092114744 L664.9073175568802,395.19073997695483 L707.1858529909,337 L664.9073175568802,278.80926002304517 L733.3147859463955,301.03660907885256 L775.5926824431198,242.8454048867798 L775.5922875581545,314.77340206003146 Z" fill="hsla(31.203703703703702, 100%, 50%, 0.5)" stroke="hsla(211.2037037037037, 100%, 50%, 1)" stroke-width="4.95" transform="rotate(3.357854893194421, 745, 337)"></path><path d="M341,960 L314.05150721987906,968.7559325218058 L314.05166278062296,997.091204135511 L297.39673385767094,974.1673964234823 L270.44833721937704,982.9236248394064 L287.1035178449,960 L270.44833721937704,937.0763751605936 L297.39673385767094,945.8326035765177 L314.05166278062296,922.908795864489 L314.05150721987906,951.2440674781942 Z" fill="hsla(88.88888888888889, 100%, 50%, 0.5)" stroke="hsla(268.8888888888889, 100%, 50%, 1)" stroke-width="1.95" transform="rotate(3.086381111808361, 302, 960)"></path><path d="M1957,565 L1889.2832745525166,587.0020868496658 L1889.2836654487448,658.203538596925 L1847.4328184115834,600.6001243461864 L1779.7163345512552,622.6029547246624 L1821.5678140718,565 L1779.7163345512552,507.39704527533763 L1847.4328184115834,529.3998756538136 L1889.2836654487448,471.79646140307494 L1889.2832745525166,542.9979131503342 Z" fill="hsla(52.31481481481481, 100%, 50%, 0.5)" stroke="hsla(232.3148148148148, 100%, 50%, 1)" stroke-width="4.9" transform="rotate(54.13724117405839, 1859, 565)"></path><path d="M38,566 L26.253221095844708,569.8166885351461 L26.253288904374106,582.1679607770176 L18.99344809180529,572.1755317743384 L7.246711095625896,575.992349288972 L14.506661624700001,566 L7.246711095625894,556.007650711028 L18.993448091805288,559.8244682256616 L26.253288904374102,549.8320392229824 L26.253221095844708,562.1833114648539 Z" fill="hsla(52.407407407407405, 100%, 50%, 0.5)" stroke="hsla(232.4074074074074, 100%, 50%, 1)" stroke-width="0.85" transform="rotate(15.243367085001232, 21, 566)"></path><path d="M598,716 L540.6480794679477,734.6344204951251 L540.6484105331207,794.9376908524978 L505.2033053894023,746.1511257217701 L447.8515894668794,764.7861759402753 L483.2972302853,716 L447.8515894668794,667.2138240597247 L505.2033053894023,685.8488742782299 L540.6484105331206,637.0623091475022 L540.6480794679477,697.3655795048749 Z" fill="hsla(66.29629629629629, 100%, 50%, 0.5)" stroke="hsla(246.2962962962963, 100%, 50%, 1)" stroke-width="4.15" transform="rotate(40.89097082839478, 515, 716)"></path><path d="M146,473 L106.61374132136167,485.7971321472546 L106.61396867937201,527.2102214288237 L82.27214948428832,493.7061947727819 L42.886031320628,506.503759380671 L67.2282183887,473 L42.88603132062799,439.49624061932906 L82.27214948428832,452.2938052272181 L106.613968679372,418.78977857117627 L106.61374132136167,460.2028678527454 Z" fill="hsla(43.79629629629629, 100%, 50%, 0.5)" stroke="hsla(223.7962962962963, 100%, 50%, 1)" stroke-width="2.85" transform="rotate(23.623403169896495, 89, 473)"></path><path d="M1928,914 L1881.7038713777408,929.0422430502817 L1881.7041386231215,977.7207865917753 L1853.091824832409,938.3388605223927 L1806.7958613768785,953.3816119035957 L1835.4086075797,914 L1806.7958613768785,874.6183880964043 L1853.091824832409,889.6611394776073 L1881.7041386231215,850.2792134082247 L1881.7038713777408,898.9577569497183 Z" fill="hsla(84.62962962962962, 100%, 50%, 0.5)" stroke="hsla(264.6296296296296, 100%, 50%, 1)" stroke-width="3.35" transform="rotate(38.371616015439834, 1861, 914)"></path><path d="M61,91 L29.905585253706587,101.10299906362205 L29.905764746872634,133.7975432332819 L10.688539066543417,107.34699587324884 L-20.405764746872627,117.4503363531613 L-1.1882486404999995,91 L-20.405764746872634,64.54966364683871 L10.688539066543411,74.65300412675117 L29.905764746872627,48.202456766718086 L29.905585253706583,80.89700093637795 Z" fill="hsla(8.425925925925926, 100%, 50%, 0.5)" stroke="hsla(188.42592592592592, 100%, 50%, 1)" stroke-width="2.25" transform="rotate(51.09878051366448, 16, 91)"></path><path d="M366,1003 L301.04722252996487,1024.104042488455 L301.04759747124507,1092.3993125317445 L260.90494827233516,1037.147058046342 L195.95240252875493,1058.2518137154925 L236.0956583954,1003 L195.95240252875493,947.7481862845075 L260.9049482723351,968.8529419536579 L301.047597471245,913.6006874682555 L301.04722252996487,981.895957511545 Z" fill="hsla(92.87037037037037, 100%, 50%, 0.5)" stroke="hsla(272.8703703703704, 100%, 50%, 1)" stroke-width="4.7" transform="rotate(19.205993912320874, 272, 1003)"></path><path d="M1437,1006 L1431.4721040451034,1007.7960887224217 L1431.4721359549997,1013.6084521303612 L1428.0557402784966,1008.9061325996887 L1422.5278640450003,1010.7022820183398 L1425.9443113528,1006 L1422.5278640450003,1001.2977179816602 L1428.0557402784966,1003.0938674003113 L1431.4721359549997,998.3915478696388 L1431.4721040451034,1004.2039112775783 Z" fill="hsla(93.14814814814814, 100%, 50%, 0.5)" stroke="hsla(273.14814814814815, 100%, 50%, 1)" stroke-width="0.4" transform="rotate(46.90885168563769, 1429, 1006)"></path><path d="M446,1060 L405.9227543269996,1073.0216432375573 L405.92298567374695,1115.1612779451189 L381.1541170191004,1081.0694613477428 L341.07701432625305,1094.0915446329634 L365.8462573078,1060 L341.07701432625305,1025.9084553670366 L381.1541170191004,1038.9305386522572 L405.92298567374695,1004.8387220548811 L405.9227543269996,1046.9783567624427 Z" fill="hsla(98.14814814814814, 100%, 50%, 0.5)" stroke="hsla(278.14814814814815, 100%, 50%, 1)" stroke-width="2.9" transform="rotate(21.55077850483483, 388, 1060)"></path><path d="M1392,241 L1326.3562355356028,262.32855357875764 L1326.35661446562,331.35036904803957 L1285.7869158071471,275.5103246213031 L1220.14338553438,296.839598967785 L1260.7136973145,241 L1220.14338553438,185.16040103221508 L1285.7869158071471,206.48967537869692 L1326.35661446562,150.6496309519604 L1326.3562355356028,219.67144642124234 Z" fill="hsla(22.314814814814813, 100%, 50%, 0.5)" stroke="hsla(202.3148148148148, 100%, 50%, 1)" stroke-width="4.75" transform="rotate(15.934800546455373, 1297, 241)"></path><path d="M1752,289 L1745.0901300563792,291.2451109030271 L1745.0901699437495,298.51056516295154 L1740.8196753481207,292.63266574961085 L1733.9098300562505,294.87785252292474 L1738.180389191,289 L1733.9098300562505,283.12214747707526 L1740.8196753481207,285.36733425038915 L1745.0901699437495,279.48943483704846 L1745.0901300563792,286.7548890969729 Z" fill="hsla(26.759259259259256, 100%, 50%, 0.5)" stroke="hsla(206.75925925925927, 100%, 50%, 1)" stroke-width="0.5" transform="rotate(25.278735744015318, 1742, 289)"></path><path d="M1677,296 L1654.8884161804135,303.1843548896868 L1654.8885438199984,326.4338085214449 L1641.2229611139865,307.62453039875476 L1619.1114561800016,314.80912807335915 L1632.7772454112,296 L1619.1114561800016,277.19087192664085 L1641.2229611139865,284.3754696012453 L1654.8885438199984,265.5661914785551 L1654.8884161804135,288.8156451103132 Z" fill="hsla(27.407407407407405, 100%, 50%, 0.5)" stroke="hsla(207.4074074074074, 100%, 50%, 1)" stroke-width="1.6" transform="rotate(71.87123354105086, 1645, 296)"></path><path d="M1527,390 L1491.759663287534,401.45006560543834 L1491.7598667131224,438.5038823310528 L1469.980344275416,408.52659532301533 L1434.7401332868776,419.9770478669161 L1456.5199848741,390 L1434.7401332868776,360.0229521330839 L1469.980344275416,371.47340467698467 L1491.7598667131224,341.49611766894714 L1491.759663287534,378.54993439456166 Z" fill="hsla(36.11111111111111, 100%, 50%, 0.5)" stroke="hsla(216.11111111111111, 100%, 50%, 1)" stroke-width="2.55" transform="rotate(55.16716333006672, 1476, 390)"></path><path d="M1494,795 L1480.1802601127586,799.4902218060543 L1480.180339887499,814.0211303259031 L1471.6393506962415,802.2653314992217 L1457.819660112501,806.7557050458495 L1466.360778382,795 L1457.819660112501,783.2442949541505 L1471.6393506962415,787.7346685007783 L1480.180339887499,775.9788696740969 L1480.1802601127586,790.5097781939457 Z" fill="hsla(73.6111111111111, 100%, 50%, 0.5)" stroke="hsla(253.6111111111111, 100%, 50%, 1)" stroke-width="1" transform="rotate(44.37190518413125, 1474, 795)"></path><path d="M367,79 L327.61374132136166,91.7971321472546 L327.613968679372,133.21022142882376 L303.2721494842883,99.70619477278186 L263.886031320628,112.50375938067097 L288.2282183887,79 L263.886031320628,45.496240619329036 L303.2721494842883,58.29380522721814 L327.61396867937196,24.789778571176242 L327.61374132136166,66.2028678527454 Z" fill="hsla(7.314814814814814, 100%, 50%, 0.5)" stroke="hsla(187.3148148148148, 100%, 50%, 1)" stroke-width="2.85" transform="rotate(33.79130285985001, 310, 79)"></path><path d="M76,186 L28.321897389016762,201.49126523088714 L28.322172611871373,251.62289962436557 L-1.1442400979667617,211.06539367231488 L-48.822172611871366,226.55718240818067 L-19.355314582099997,186 L-48.82217261187137,145.44281759181936 L-1.1442400979667688,160.93460632768512 L28.32217261187136,120.3771003756344 L28.321897389016762,170.50873476911286 Z" fill="hsla(17.22222222222222, 100%, 50%, 0.5)" stroke="hsla(197.22222222222223, 100%, 50%, 1)" stroke-width="3.45" transform="rotate(37.79795026660498, 7, 186)"></path><path d="M853,833 L819.8326242706204,843.7765323345302 L819.8328157299975,878.6507127821674 L799.3344416709797,850.4367955981321 L766.1671842700025,861.2136921100387 L786.6658681168,833 L766.1671842700025,804.7863078899613 L799.3344416709797,815.5632044018679 L819.8328157299975,787.3492872178326 L819.8326242706204,822.2234676654698 Z" fill="hsla(77.12962962962962, 100%, 50%, 0.5)" stroke="hsla(257.1296296296296, 100%, 50%, 1)" stroke-width="2.4" transform="rotate(6.759517761296168, 805, 833)"></path><path d="M1520,549 L1478.5407803382755,562.4706654181628 L1478.5410196624969,606.0633909777092 L1452.9180520887246,570.7959944976651 L1411.4589803375031,584.2671151375484 L1437.082335146,549 L1411.4589803375031,513.7328848624517 L1452.9180520887246,527.2040055023349 L1478.5410196624969,491.9366090222908 L1478.5407803382755,535.5293345818372 Z" fill="hsla(50.83333333333333, 100%, 50%, 0.5)" stroke="hsla(230.83333333333331, 100%, 50%, 1)" stroke-width="3" transform="rotate(62.214042060551634, 1460, 549)"></path><path d="M190,757 L182.39914306201717,759.4696219933298 L182.39918693812442,767.4616216792467 L177.70164288293284,760.995932324572 L170.10081306187558,763.4656377752173 L174.7984281101,757 L170.10081306187558,750.5343622247829 L177.70164288293284,753.004067675428 L182.39918693812442,746.5383783207533 L182.39914306201717,754.5303780066702 Z" fill="hsla(70.09259259259258, 100%, 50%, 0.5)" stroke="hsla(250.09259259259258, 100%, 50%, 1)" stroke-width="0.55" transform="rotate(39.95538963582504, 179, 757)"></path><path d="M1469,499 L1437.2145982593445,509.3275101539248 L1437.2147817412476,542.748599749577 L1417.5705066013554,515.71026244821 L1385.7852182587524,526.0381216054537 L1405.4297902786,499 L1385.7852182587524,471.96187839454626 L1417.5705066013554,482.2897375517901 L1437.2147817412476,455.25140025042293 L1437.2145982593445,488.6724898460752 Z" fill="hsla(46.2037037037037, 100%, 50%, 0.5)" stroke="hsla(226.2037037037037, 100%, 50%, 1)" stroke-width="2.3" transform="rotate(57.59825956609264, 1423, 499)"></path><path d="M1024,940 L1014.326182078931,943.143155264238 L1014.3262379212492,953.3147912281321 L1008.3475454873691,945.0857320494551 L998.6737620787508,948.2289935320946 L1004.6525448674,940 L998.6737620787508,931.7710064679054 L1008.3475454873691,934.9142679505449 L1014.3262379212492,926.6852087718678 L1014.326182078931,936.856844735762 Z" fill="hsla(87.03703703703704, 100%, 50%, 0.5)" stroke="hsla(267.03703703703707, 100%, 50%, 1)" stroke-width="0.7" transform="rotate(25.87506969910129, 1010, 940)"></path><path d="M825,866 L814.6351950845689,869.3676663545407 L814.6352549156242,880.2658477444273 L808.2295130221811,871.4489986244163 L797.8647450843758,874.8167787843871 L804.2705837865,866 L797.8647450843758,857.1832212156129 L808.2295130221811,860.5510013755837 L814.6352549156242,851.7341522555727 L814.6351950845689,862.6323336454593 Z" fill="hsla(80.18518518518518, 100%, 50%, 0.5)" stroke="hsla(260.18518518518516, 100%, 50%, 1)" stroke-width="0.75" transform="rotate(7.4816340092729305, 810, 866)"></path><path d="M581,1032 L548.5236112649825,1042.5520212442275 L548.5237987356226,1076.6996562658721 L528.4524741361676,1049.073529023171 L495.9762012643775,1059.6259068577463 L516.0478291977,1032 L495.9762012643775,1004.3740931422537 L528.4524741361676,1014.926470976829 L548.5237987356226,987.3003437341278 L548.5236112649824,1021.4479787557725 Z" fill="hsla(95.55555555555554, 100%, 50%, 0.5)" stroke="hsla(275.55555555555554, 100%, 50%, 1)" stroke-width="2.35" transform="rotate(34.78705992887017, 534, 1032)"></path><path d="M1263,363 L1245.7253251409481,368.6127772575678 L1245.7254248593738,386.7764129073788 L1235.0491883703019,372.0816643740271 L1217.7745751406262,377.69463130731185 L1228.4509729775,363 L1217.7745751406262,348.30536869268815 L1235.0491883703019,353.9183356259729 L1245.7254248593738,339.2235870926212 L1245.7253251409481,357.3872227424322 Z" fill="hsla(33.61111111111111, 100%, 50%, 0.5)" stroke="hsla(213.61111111111111, 100%, 50%, 1)" stroke-width="1.25" transform="rotate(38.960110937067725, 1238, 363)"></path><path d="M640,456 L639.3090130056379,456.2245110903027 L639.3090169943749,456.9510565162951 L638.881967534812,456.3632665749611 L638.1909830056251,456.58778525229246 L638.6180389191,456 L638.1909830056251,455.41221474770754 L638.881967534812,455.6367334250389 L639.3090169943749,455.0489434837049 L639.3090130056379,455.7754889096973 Z" fill="hsla(42.22222222222222, 100%, 50%, 0.5)" stroke="hsla(222.22222222222223, 100%, 50%, 1)" stroke-width="0.05" transform="rotate(52.76267588209531, 639, 456)"></path><path d="M586,942 L518.9742615468787,963.7775757593631 L518.9746484543699,1034.25248208063 L477.5508508767714,977.2368577712252 L410.5253515456301,999.01516947237 L451.9497751527,942 L410.5253515456301,884.9848305276302 L477.55085087677134,906.7631422287748 L518.9746484543699,849.7475179193701 L518.9742615468787,920.2224242406369 Z" fill="hsla(87.22222222222221, 100%, 50%, 0.5)" stroke="hsla(267.22222222222223, 100%, 50%, 1)" stroke-width="4.85" transform="rotate(23.672759588295, 489, 942)"></path><path d="M1397,717 L1392.8540780338276,718.3470665418163 L1392.8541019662496,722.7063390977709 L1390.2918052088723,719.1795994497666 L1386.1458980337504,720.5267115137549 L1388.7082335146,717 L1386.1458980337504,713.4732884862451 L1390.2918052088723,714.8204005502334 L1392.8541019662496,711.293660902229 L1392.8540780338276,715.6529334581837 Z" fill="hsla(66.38888888888889, 100%, 50%, 0.5)" stroke="hsla(246.38888888888889, 100%, 50%, 1)" stroke-width="0.3" transform="rotate(42.09512452365575, 1391, 717)"></path><path d="M161,718 L116.77683236082714,732.3687097793736 L116.77708763999664,778.8676170428898 L89.44592222797286,741.2490607975095 L45.22291236000337,755.6182561467183 L72.5544908224,718 L45.22291236000336,680.3817438532817 L89.44592222797286,694.7509392024906 L116.77708763999662,657.1323829571102 L116.77683236082714,703.6312902206264 Z" fill="hsla(66.48148148148148, 100%, 50%, 0.5)" stroke="hsla(246.48148148148147, 100%, 50%, 1)" stroke-width="3.2" transform="rotate(21.777816729169203, 97, 718)"></path><path d="M479,808 L425.1030144397581,825.5118650436116 L425.1033255612459,882.1824082710219 L391.79346771534193,836.3347928469647 L337.8966744387541,853.8472496788129 L371.2070356898,808 L337.8966744387541,762.1527503211871 L391.79346771534193,779.6652071530353 L425.10332556124587,733.817591728978 L425.10301443975806,790.4881349563884 Z" fill="hsla(74.81481481481481, 100%, 50%, 0.5)" stroke="hsla(254.8148148148148, 100%, 50%, 1)" stroke-width="3.9" transform="rotate(49.811877939221375, 401, 808)"></path><path d="M787,303 L746.2317673326376,316.24615432786004 L746.2320026681219,359.11233446141404 L721.0360845539125,324.43272792270403 L680.2679973318781,337.6793298852559 L705.4642962269,303 L680.2679973318781,268.3206701147441 L721.0360845539125,281.56727207729597 L746.2320026681219,246.88766553858594 L746.2317673326376,289.75384567213996 Z" fill="hsla(28.055555555555554, 100%, 50%, 0.5)" stroke="hsla(208.05555555555554, 100%, 50%, 1)" stroke-width="2.95" transform="rotate(58.204357887718146, 728, 303)"></path><path d="M1781,618 L1725.721040451034,635.960887224217 L1725.721359549996,694.0845213036123 L1691.5574027849661,647.0613259968868 L1636.2786404500043,665.0228201833978 L1670.443113528,618 L1636.278640450004,570.9771798166022 L1691.5574027849661,588.9386740031132 L1725.7213595499957,541.9154786963877 L1725.721040451034,600.039112775783 Z" fill="hsla(57.22222222222222, 100%, 50%, 0.5)" stroke="hsla(237.22222222222223, 100%, 50%, 1)" stroke-width="4" transform="rotate(65.28642304999909, 1701, 618)"></path><path d="M1491,545 L1467.5064421916895,552.6333770702922 L1467.5065778087483,577.3359215540352 L1452.9868961836105,557.3510635486768 L1429.4934221912517,564.9846985779441 L1444.0133232494,545 L1429.4934221912517,525.0153014220559 L1452.9868961836105,532.6489364513232 L1467.5065778087483,512.6640784459648 L1467.5064421916895,537.3666229297078 Z" fill="hsla(50.46296296296296, 100%, 50%, 0.5)" stroke="hsla(230.46296296296296, 100%, 50%, 1)" stroke-width="1.7" transform="rotate(37.29000635615365, 1457, 545)"></path><path d="M848,453 L818.2875592424307,462.65397688301664 L818.2877307581227,493.8954302006916 L799.9246039969192,468.6204627233267 L770.2122692418773,478.27476584857635 L788.5756735213,453 L770.2122692418773,427.72523415142365 L799.9246039969192,437.3795372766733 L818.2877307581227,412.10456979930836 L818.2875592424307,443.34602311698336 Z" fill="hsla(41.94444444444444, 100%, 50%, 0.5)" stroke="hsla(221.94444444444446, 100%, 50%, 1)" stroke-width="2.15" transform="rotate(18.12303140604903, 805, 453)"></path><path d="M1544,649 L1512.9055852537065,659.1029990636221 L1512.9057647468726,691.7975432332819 L1493.6885390665434,665.3469958732488 L1462.5942352531274,675.4503363531613 L1481.8117513595,649 L1462.5942352531274,622.5496636468387 L1493.6885390665434,632.6530041267512 L1512.9057647468726,606.2024567667181 L1512.9055852537065,638.8970009363779 Z" fill="hsla(60.09259259259259, 100%, 50%, 0.5)" stroke="hsla(240.09259259259258, 100%, 50%, 1)" stroke-width="2.25" transform="rotate(30.956133690551525, 1499, 649)"></path></svg>
