<svg xmlns="http://www.w3.org/2000/svg" viewBox="0 0 1920 1080" data-reactroot=""><defs><filter id="bg-filter"><feTurbulence baseFrequency="0.0015" result="turbulence"></feTurbulence><feDiffuseLighting lighting-color="hsl(240, 100%, 2%)" surfaceScale="150" result="lighting"><feDistantLight azimuth="0" elevation="0"></feDistantLight></feDiffuseLighting><feBlend in="turbulence" in2="lighting" mode="multiply" result="terrain"></feBlend></filter></defs><rect width="1920" height="1080" filter="url(#bg-filter)"></rect><path d="M 0,0 L0,1080 L96,1080 Z" stroke="hsla(30, 100%, 50%, 1)" stroke-width="1" fill="hsla(240, 100%, 50%, 0.1)" fill-rule="evenodd"></path><path d="M 0,108 L192,1080 L288,1080 Z" stroke="hsla(30, 100%, 50%, 1)" stroke-width="1" fill="hsla(240, 100%, 50%, 0.1)" fill-rule="evenodd"></path><path d="M 0,216 L384,1080 L480,1080 Z" stroke="hsla(30, 100%, 50%, 1)" stroke-width="1" fill="hsla(240, 100%, 50%, 0.1)" fill-rule="evenodd"></path><path d="M 0,324 L576,1080 L672,1080 Z" stroke="hsla(30, 100%, 50%, 1)" stroke-width="1" fill="hsla(240, 100%, 50%, 0.1)" fill-rule="evenodd"></path><path d="M 0,432 L768,1080 L864,1080 Z" stroke="hsla(30, 100%, 50%, 1)" stroke-width="1" fill="hsla(240, 100%, 50%, 0.1)" fill-rule="evenodd"></path><path d="M 0,540 L960,1080 L1056,1080 Z" stroke="hsla(30, 100%, 50%, 1)" stroke-width="1" fill="hsla(240, 100%, 50%, 0.1)" fill-rule="evenodd"></path><path d="M 0,648 L1152,1080 L1248,1080 Z" stroke="hsla(30, 100%, 50%, 1)" stroke-width="1" fill="hsla(240, 100%, 50%, 0.1)" fill-rule="evenodd"></path><path d="M 0,756 L1344,1080 L1440,1080 Z" stroke="hsla(30, 100%, 50%, 1)" stroke-width="1" fill="hsla(240, 100%, 50%, 0.1)" fill-rule="evenodd"></path><path d="M 0,864 L1536,1080 L1632,1080 Z" stroke="hsla(30, 100%, 50%, 1)" stroke-width="1" fill="hsla(240, 100%, 50%, 0.1)" fill-rule="evenodd"></path><path d="M 0,972 L1728,1080 L1824,1080 Z" stroke="hsla(30, 100%, 50%, 1)" stroke-width="1" fill="hsla(240, 100%, 50%, 0.1)" fill-rule="evenodd"></path></svg>

