<svg xmlns="http://www.w3.org/2000/svg" viewBox="0 0 1920 1080" data-reactroot=""><defs><filter id="blur"><feGaussianBlur in="SourceGraphic" stdDeviation="2"></feGaussianBlur></filter><filter id="bg-filter"><feTurbulence baseFrequency="0.04, 0.00125" result="turbulence"></feTurbulence><feDiffuseLighting lighting-color="hsl(240, 100%, 20%)" surfaceScale="20" result="lighting"><feDistantLight azimuth="0" elevation="0"></feDistantLight></feDiffuseLighting><feBlend in="turbulence" in2="lighting" mode="darken"></feBlend></filter></defs><rect width="1920" height="1080" filter="url(#bg-filter)"></rect><path d="M 0,0 L0,1080 L96,1080 Z" stroke="hsla(45, 100%, 50%, 0.5)" stroke-width="2" fill="hsla(240, 100%, 50%, 0.25)" fill-rule="evenodd"></path><path d="M 0,108 L192,1080 L288,1080 Z" stroke="hsla(45, 100%, 50%, 0.5)" stroke-width="2" fill="hsla(240, 100%, 50%, 0.25)" fill-rule="evenodd"></path><path d="M 0,216 L384,1080 L480,1080 Z" stroke="hsla(45, 100%, 50%, 0.5)" stroke-width="2" fill="hsla(240, 100%, 50%, 0.25)" fill-rule="evenodd"></path><path d="M 0,324 L576,1080 L672,1080 Z" stroke="hsla(45, 100%, 50%, 0.5)" stroke-width="2" fill="hsla(240, 100%, 50%, 0.25)" fill-rule="evenodd"></path><path d="M 0,432 L768,1080 L864,1080 Z" stroke="hsla(45, 100%, 50%, 0.5)" stroke-width="2" fill="hsla(240, 100%, 50%, 0.25)" fill-rule="evenodd"></path><path d="M 0,540 L960,1080 L1056,1080 Z" stroke="hsla(45, 100%, 50%, 0.5)" stroke-width="2" fill="hsla(240, 100%, 50%, 0.25)" fill-rule="evenodd"></path><path d="M 0,648 L1152,1080 L1248,1080 Z" stroke="hsla(45, 100%, 50%, 0.5)" stroke-width="2" fill="hsla(240, 100%, 50%, 0.25)" fill-rule="evenodd"></path><path d="M 0,756 L1344,1080 L1440,1080 Z" stroke="hsla(45, 100%, 50%, 0.5)" stroke-width="2" fill="hsla(240, 100%, 50%, 0.25)" fill-rule="evenodd"></path><path d="M 0,864 L1536,1080 L1632,1080 Z" stroke="hsla(45, 100%, 50%, 0.5)" stroke-width="2" fill="hsla(240, 100%, 50%, 0.25)" fill-rule="evenodd"></path><path d="M 0,972 L1728,1080 L1824,1080 Z" stroke="hsla(45, 100%, 50%, 0.5)" stroke-width="2" fill="hsla(240, 100%, 50%, 0.25)" fill-rule="evenodd"></path><path d="M1500,540 L1126.867023044479,661.2359887634645 L1126.8691769624716,1053.5705187993829 L896.262468798521,736.1639504789861 L523.1308230375284,857.4040362379355 L753.741016314,540 L523.1308230375284,222.59596376206457 L896.2624687985209,343.83604952101393 L1126.8691769624716,26.429481200617033 L1126.867023044479,418.76401123653534 Z" stroke="hsla(45, 100%, 50%, 0.3)" stroke-width="30" fill="hsla(240, 60%, 50%, 0.3)" transform="rotate(-90, 960, 540) translate(-55, 0)" filter="url(#blur)"></path></svg>
