<svg xmlns="http://www.w3.org/2000/svg" viewBox="0 0 1920 1080" data-reactroot=""><defs><linearGradient id="bg-gradient" gradientTransform="rotate(90)"><stop offset="0%" stop-color="hsl(220, 100%, 30%)"></stop><stop offset="50%" stop-color="hsl(240, 100%, 20%)"></stop><stop offset="90%" stop-color="hsl(260, 100%, 10%)"></stop></linearGradient><filter id="blur-0"><feGaussianBlur in="SourceGraphic" stdDeviation="7"></feGaussianBlur></filter><filter id="blur-1"><feGaussianBlur in="SourceGraphic" stdDeviation="6"></feGaussianBlur></filter><filter id="blur-2"><feGaussianBlur in="SourceGraphic" stdDeviation="5"></feGaussianBlur></filter><filter id="blur-3"><feGaussianBlur in="SourceGraphic" stdDeviation="4"></feGaussianBlur></filter><filter id="blur-4"><feGaussianBlur in="SourceGraphic" stdDeviation="3"></feGaussianBlur></filter><filter id="blur-5"><feGaussianBlur in="SourceGraphic" stdDeviation="2"></feGaussianBlur></filter><filter id="blur-6"><feGaussianBlur in="SourceGraphic" stdDeviation="1"></feGaussianBlur></filter></defs><rect width="1920" height="1080" fill="url(#bg-gradient)"></rect><path d="M1274,86 L1257.4163121353101,91.38826616726509 L1257.4164078649987,108.82535639108369 L1247.1672208354898,94.71839779906605 L1230.5835921350013,100.10684605501936 L1240.8329340584,86 L1230.5835921350013,71.89315394498064 L1247.1672208354898,77.28160220093395 L1257.4164078649987,63.17464360891631 L1257.4163121353101,80.6117338327349 Z" fill="hsla(7.962962962962963, 100%, 50%, 0)" stroke="hsla(187.96296296296296, 100%, 50%, 1)" stroke-width="1.2" transform="rotate(59.962786979054, 1250, 86)" filter="url(#blur-0)"></path><path d="M1735,448 L1732.2360520225518,448.89804436121085 L1732.2360679774997,451.8042260651806 L1730.5278701392483,449.45306629984435 L1727.7639320225003,450.3511410091699 L1729.4721556764,448 L1727.7639320225003,445.6488589908301 L1730.5278701392483,446.54693370015565 L1732.2360679774997,444.1957739348194 L1732.2360520225518,447.10195563878915 Z" fill="hsla(41.48148148148148, 100%, 50%, 0.004999999999999999)" stroke="hsla(221.48148148148147, 100%, 50%, 1)" stroke-width="0.2" transform="rotate(28.89149247459208, 1731, 448)" filter="url(#blur-0)"></path><path d="M1200,300 L1153.7038713777408,315.04224305028174 L1153.7041386231215,363.72078659177527 L1125.091824832409,324.33886052239274 L1078.7958613768785,339.3816119035957 L1107.4086075797,300 L1078.7958613768785,260.6183880964043 L1125.091824832409,275.66113947760726 L1153.7041386231215,236.2792134082247 L1153.7038713777408,284.95775694971826 Z" fill="hsla(27.777777777777775, 100%, 50%, 0.009999999999999998)" stroke="hsla(207.77777777777777, 100%, 50%, 1)" stroke-width="3.35" transform="rotate(26.329524393439137, 1133, 300)" filter="url(#blur-0)"></path><path d="M1517,209 L1449.2832745525166,231.0020868496658 L1449.2836654487448,302.20353859692506 L1407.4328184115834,244.60012434618636 L1339.7163345512552,266.60295472466237 L1381.5678140718,209 L1339.7163345512552,151.39704527533763 L1407.4328184115834,173.39987565381364 L1449.2836654487448,115.79646140307494 L1449.2832745525166,186.9979131503342 Z" fill="hsla(19.35185185185185, 100%, 50%, 0.015)" stroke="hsla(199.35185185185185, 100%, 50%, 1)" stroke-width="4.9" transform="rotate(67.87331878472641, 1419, 209)" filter="url(#blur-0)"></path><path d="M527,218 L480.01288438337883,233.26675414058442 L480.0131556174964,282.67184310807045 L450.97379236722117,242.7021270973538 L403.9868443825036,257.9693971558882 L433.0266464988,218 L403.9868443825036,178.03060284411183 L450.97379236722117,193.2978729026462 L480.0131556174964,153.32815689192955 L480.01288438337883,202.73324585941558 Z" fill="hsla(20.185185185185183, 100%, 50%, 0.019999999999999997)" stroke="hsla(200.1851851851852, 100%, 50%, 1)" stroke-width="3.4" transform="rotate(63.991716182042566, 459, 218)" filter="url(#blur-0)"></path><path d="M1131,938 L1105.433481208603,946.3069103412004 L1105.4336287918732,973.1890911029207 L1089.6327987880468,951.4408632735601 L1064.0663712081268,959.7480543348215 L1079.8674400067,938 L1064.0663712081268,916.2519456651785 L1089.6327987880468,924.5591367264399 L1105.4336287918732,902.8109088970793 L1105.433481208603,929.6930896587996 Z" fill="hsla(86.85185185185185, 100%, 50%, 0.025)" stroke="hsla(266.85185185185185, 100%, 50%, 1)" stroke-width="1.85" transform="rotate(48.01946113889269, 1094, 938)" filter="url(#blur-0)"></path><path d="M1520,864 L1461.9570924735856,882.8589315854279 L1461.9574275274956,943.8887473687929 L1426.0852729242145,894.5143922967312 L1368.0425724725044,913.3739611925678 L1403.9152692044,864 L1368.0425724725044,814.6260388074322 L1426.0852729242145,833.4856077032689 L1461.9574275274956,784.1112526312071 L1461.9570924735856,845.1410684145721 Z" fill="hsla(80, 100%, 50%, 0.03)" stroke="hsla(260, 100%, 50%, 1)" stroke-width="4.2" transform="rotate(5.408538021157435, 1436, 864)" filter="url(#blur-0)"></path><path d="M1154,763 L1132.5794031747757,769.9598437993841 L1132.5795268256234,792.4827520051498 L1119.3409935791744,774.2612638237937 L1097.9204731743766,781.2213428210666 L1111.1592064921,763 L1097.9204731743766,744.7786571789334 L1119.3409935791744,751.7387361762063 L1132.5795268256234,733.5172479948502 L1132.5794031747757,756.0401562006159 Z" fill="hsla(70.64814814814814, 100%, 50%, 0.035)" stroke="hsla(250.64814814814815, 100%, 50%, 1)" stroke-width="1.55" transform="rotate(53.447121873472454, 1123, 763)" filter="url(#blur-0)"></path><path d="M981,222 L938.1588063495512,235.91968759876815 L938.1590536512467,280.9655040102995 L911.6819871583488,244.52252764758728 L868.8409463487533,258.44268564213337 L895.3184129842,222 L868.8409463487533,185.5573143578667 L911.6819871583486,199.47747235241272 L938.1590536512467,163.03449598970047 L938.1588063495512,208.08031240123182 Z" fill="hsla(20.555555555555554, 100%, 50%, 0.039999999999999994)" stroke="hsla(200.55555555555554, 100%, 50%, 1)" stroke-width="3.1" transform="rotate(22.194184313445362, 919, 222)" filter="url(#blur-0)"></path><path d="M1909,609 L1853.721040451034,626.960887224217 L1853.721359549996,685.0845213036123 L1819.5574027849661,638.0613259968868 L1764.2786404500043,656.0228201833978 L1798.443113528,609 L1764.278640450004,561.9771798166022 L1819.5574027849661,579.9386740031132 L1853.7213595499957,532.9154786963877 L1853.721040451034,591.039112775783 Z" fill="hsla(56.388888888888886, 100%, 50%, 0.045)" stroke="hsla(236.38888888888889, 100%, 50%, 1)" stroke-width="4" transform="rotate(2.75928474455265, 1829, 609)" filter="url(#blur-0)"></path><path d="M1841,557 L1828.5622341014825,561.0411996254488 L1828.562305898749,574.1190172933127 L1820.8754156266173,563.5387983492996 L1808.437694101251,567.5801345412646 L1816.1247005438,557 L1808.437694101251,546.4198654587354 L1820.8754156266173,550.4612016507004 L1828.562305898749,539.8809827066873 L1828.5622341014825,552.9588003745512 Z" fill="hsla(51.57407407407407, 100%, 50%, 0.05)" stroke="hsla(231.57407407407408, 100%, 50%, 1)" stroke-width="0.9" transform="rotate(13.626406855838214, 1823, 557)" filter="url(#blur-0)"></path><path d="M1542,184 L1538.5450650281896,185.12255545151356 L1538.5450849718748,188.75528258147577 L1536.4098376740603,185.81633287480543 L1532.9549150281252,186.93892626146237 L1535.0901945955,184 L1532.9549150281252,181.06107373853763 L1536.4098376740603,182.18366712519457 L1538.5450849718748,179.24471741852423 L1538.5450650281896,182.87744454848644 Z" fill="hsla(17.037037037037035, 100%, 50%, 0.05500000000000001)" stroke="hsla(197.03703703703704, 100%, 50%, 1)" stroke-width="0.25" transform="rotate(30.7612752764717, 1537, 184)" filter="url(#blur-0)"></path><path d="M244,994 L208.06867629317205,1005.674576695741 L208.06888370749726,1043.4549388473479 L185.86231181022794,1012.8898618979764 L149.93111629250274,1024.5648331192085 L172.1380237932,994 L149.93111629250274,963.4351668807914 L185.86231181022794,975.1101381020236 L208.06888370749726,944.545061152652 L208.06867629317205,982.325423304259 Z" fill="hsla(92.03703703703702, 100%, 50%, 0.06)" stroke="hsla(272.037037037037, 100%, 50%, 1)" stroke-width="2.6" transform="rotate(65.48921622937192, 192, 994)" filter="url(#blur-0)"></path><path d="M1999,529 L1936.1201835130512,549.4305092175468 L1936.1205464881202,615.546142982859 L1897.2590456678988,562.0572583214588 L1834.3794535118798,582.4884579586151 L1873.2415416381,529 L1834.3794535118798,475.5115420413849 L1897.2590456678988,495.9427416785412 L1936.1205464881202,442.453857017141 L1936.1201835130512,508.56949078245316 Z" fill="hsla(48.98148148148148, 100%, 50%, 0.065)" stroke="hsla(228.98148148148147, 100%, 50%, 1)" stroke-width="4.55" transform="rotate(56.50171825474937, 1908, 529)" filter="url(#blur-0)"></path><path d="M435,1052 L425.3261820789309,1055.143155264238 L425.3262379212493,1065.3147912281322 L419.3475454873691,1057.0857320494551 L409.6737620787507,1060.2289935320946 L415.6525448674,1052 L409.6737620787507,1043.7710064679054 L419.3475454873691,1046.9142679505449 L425.3262379212493,1038.6852087718678 L425.3261820789309,1048.856844735762 Z" fill="hsla(97.4074074074074, 100%, 50%, 0.07)" stroke="hsla(277.4074074074074, 100%, 50%, 1)" stroke-width="0.7" transform="rotate(46.533640209707556, 421, 1052)" filter="url(#blur-0)"></path><path d="M1518,460 L1463.412027445396,477.7363761339143 L1463.4123425556209,535.1334647873172 L1429.675435250154,488.69805942192573 L1375.0876574443791,506.4350349311054 L1408.8250746089,460 L1375.0876574443791,413.56496506889465 L1429.675435250154,431.30194057807427 L1463.4123425556209,384.86653521268283 L1463.412027445396,442.2636238660857 Z" fill="hsla(42.59259259259259, 100%, 50%, 0.075)" stroke="hsla(222.59259259259258, 100%, 50%, 1)" stroke-width="3.95" transform="rotate(28.776390759868505, 1439, 460)" filter="url(#blur-0)"></path><path d="M720,1007 L715.8540780338276,1008.3470665418163 L715.8541019662497,1012.7063390977709 L713.2918052088725,1009.1795994497666 L709.1458980337503,1010.5267115137549 L711.7082335146,1007 L709.1458980337503,1003.4732884862451 L713.2918052088725,1004.8204005502334 L715.8541019662497,1001.293660902229 L715.8540780338276,1005.6529334581837 Z" fill="hsla(93.24074074074073, 100%, 50%, 0.07999999999999999)" stroke="hsla(273.24074074074076, 100%, 50%, 1)" stroke-width="0.3" transform="rotate(39.76651930995571, 714, 1007)" filter="url(#blur-0)"></path><path d="M1515,277 L1453.5021575017752,296.9814870369414 L1453.5025124993704,361.64402995026865 L1415.4951105982748,309.3307251715366 L1353.9974875006296,329.31288745403015 L1392.0054637999,277 L1353.9974875006296,224.6871125459699 L1415.4951105982748,244.66927482846341 L1453.5025124993704,192.35597004973133 L1453.5021575017752,257.0185129630586 Z" fill="hsla(25.648148148148145, 100%, 50%, 0.08499999999999999)" stroke="hsla(205.64814814814815, 100%, 50%, 1)" stroke-width="4.45" transform="rotate(11.787873125752691, 1426, 277)" filter="url(#blur-0)"></path><path d="M1559,578 L1505.103014439758,595.5118650436116 L1505.1033255612458,652.1824082710219 L1471.7934677153419,606.3347928469647 L1417.8966744387542,623.8472496788129 L1451.2070356898,578 L1417.8966744387542,532.1527503211871 L1471.7934677153419,549.6652071530353 L1505.1033255612458,503.817591728978 L1505.103014439758,560.4881349563884 Z" fill="hsla(53.51851851851851, 100%, 50%, 0.09)" stroke="hsla(233.5185185185185, 100%, 50%, 1)" stroke-width="3.9" transform="rotate(14.913988224683973, 1481, 578)" filter="url(#blur-0)"></path><path d="M1658,1037 L1619.9957153100859,1049.3481099666492 L1619.995934690622,1089.3081083962334 L1596.5082144146643,1056.9796616228598 L1558.504065309378,1069.328188876086 L1581.9921405505,1037 L1558.504065309378,1004.671811123914 L1596.5082144146643,1017.0203383771403 L1619.995934690622,984.6918916037665 L1619.9957153100859,1024.6518900333508 Z" fill="hsla(96.01851851851852, 100%, 50%, 0.095)" stroke="hsla(276.01851851851853, 100%, 50%, 1)" stroke-width="2.75" transform="rotate(52.07823069357164, 1603, 1037)" filter="url(#blur-0)"></path><path d="M396,12 L374.5794031747756,18.95984379938408 L374.57952682562336,41.48275200514976 L361.3409935791744,23.261263823793644 L339.92047317437664,30.22134282106667 L353.1592064921,12.000000000000002 L339.92047317437664,-6.2213428210666635 L361.3409935791743,0.7387361762063556 L374.57952682562336,-17.482752005149763 L374.5794031747756,5.040156200615918 Z" fill="hsla(1.111111111111111, 100%, 50%, 0.1)" stroke="hsla(181.11111111111111, 100%, 50%, 1)" stroke-width="1.55" transform="rotate(27.6355756592162, 365, 12)" filter="url(#blur-1)"></path><path d="M798,881 L773.8154551973273,888.8578881605949 L773.8155948031232,914.2869780703304 L758.8688637184226,893.714330123638 L734.6844051968768,901.5724838302366 L749.6313621685,881 L734.6844051968768,860.4275161697634 L758.8688637184226,868.285669876362 L773.8155948031232,847.7130219296696 L773.8154551973273,873.1421118394051 Z" fill="hsla(81.57407407407406, 100%, 50%, 0.10500000000000001)" stroke="hsla(261.5740740740741, 100%, 50%, 1)" stroke-width="1.75" transform="rotate(3.56608351302231, 763, 881)" filter="url(#blur-1)"></path><path d="M1335,188 L1328.7811170507414,190.0205998127244 L1328.7811529493745,196.55950864665638 L1324.9377078133086,191.26939917464978 L1318.7188470506255,193.29006727063225 L1322.5623502719,188 L1318.7188470506255,182.70993272936775 L1324.9377078133086,184.73060082535022 L1328.7811529493745,179.44049135334362 L1328.7811170507414,185.9794001872756 Z" fill="hsla(17.407407407407405, 100%, 50%, 0.11000000000000001)" stroke="hsla(197.4074074074074, 100%, 50%, 1)" stroke-width="0.45" transform="rotate(18.553884177744983, 1326, 188)" filter="url(#blur-1)"></path><path d="M1423,343 L1395.360520225517,351.9804436121085 L1395.3606797749978,381.04226065180615 L1378.278701392483,357.5306629984434 L1350.6393202250022,366.5114100916989 L1367.721556764,343 L1350.6393202250022,319.4885899083011 L1378.278701392483,328.4693370015566 L1395.3606797749978,304.95773934819385 L1395.360520225517,334.0195563878915 Z" fill="hsla(31.759259259259256, 100%, 50%, 0.11499999999999999)" stroke="hsla(211.75925925925927, 100%, 50%, 1)" stroke-width="2" transform="rotate(67.12209297689095, 1383, 343)" filter="url(#blur-1)"></path><path d="M317,701 L261.72104045103396,718.960887224217 L261.7213595499958,777.0845213036123 L227.5574027849661,730.0613259968868 L172.27864045000422,748.0228201833978 L206.443113528,701 L172.27864045000422,653.9771798166022 L227.55740278496606,671.9386740031132 L261.7213595499958,624.9154786963877 L261.7210404510339,683.039112775783 Z" fill="hsla(64.9074074074074, 100%, 50%, 0.12)" stroke="hsla(244.9074074074074, 100%, 50%, 1)" stroke-width="4" transform="rotate(26.109351693403404, 237, 701)" filter="url(#blur-1)"></path><path d="M1752,245 L1738.8712471071206,249.26571071575154 L1738.871322893124,263.0700738096079 L1730.7573831614295,251.90206492426063 L1717.628677106876,256.167919793557 L1725.7427394629,245 L1717.628677106876,233.832080206443 L1730.7573831614295,238.09793507573937 L1738.871322893124,226.92992619039208 L1738.8712471071206,240.73428928424846 Z" fill="hsla(22.685185185185183, 100%, 50%, 0.125)" stroke="hsla(202.6851851851852, 100%, 50%, 1)" stroke-width="0.95" transform="rotate(4.993883854263858, 1733, 245)" filter="url(#blur-1)"></path><path d="M750,971 L697.4849884284822,988.0628428630062 L697.485291572496,1043.2802952384316 L665.0295326457177,998.6082596970425 L612.514708427504,1015.671679174228 L644.9709578516,971 L612.514708427504,926.328320825772 L665.0295326457177,943.3917403029575 L697.485291572496,898.7197047615683 L697.4849884284822,953.9371571369938 Z" fill="hsla(89.9074074074074, 100%, 50%, 0.13)" stroke="hsla(269.9074074074074, 100%, 50%, 1)" stroke-width="3.8" transform="rotate(67.95890868594971, 674, 971)" filter="url(#blur-1)"></path><path d="M643,979 L613.9785462367928,988.4294657927139 L613.9787137637478,1018.9443736843964 L596.0426364621072,994.2571961483656 L567.0212862362522,1003.6869805962839 L584.9576346022,979 L567.0212862362522,954.3130194037161 L596.0426364621072,963.7428038516344 L613.9787137637478,939.0556263156036 L613.9785462367928,969.5705342072861 Z" fill="hsla(90.64814814814814, 100%, 50%, 0.135)" stroke="hsla(270.64814814814815, 100%, 50%, 1)" stroke-width="2.1" transform="rotate(11.763866511459277, 601, 979)" filter="url(#blur-1)"></path><path d="M1179,52 L1170.017169073293,54.918644173935256 L1170.0172209268744,64.363734711837 L1164.465577952557,56.72246547449411 L1155.4827790731256,59.64120827980215 L1161.0345059483,52 L1155.4827790731256,44.35879172019785 L1164.465577952557,47.27753452550589 L1170.0172209268744,39.636265288163 L1170.017169073293,49.08135582606474 Z" fill="hsla(4.814814814814815, 100%, 50%, 0.14)" stroke="hsla(184.8148148148148, 100%, 50%, 1)" stroke-width="0.65" transform="rotate(26.97501065006158, 1166, 52)" filter="url(#blur-1)"></path><path d="M869,381 L822.0128843833788,396.26675414058445 L822.0131556174964,445.67184310807045 L792.9737923672211,405.7021270973538 L745.9868443825036,420.9693971558882 L775.0266464988,381 L745.9868443825036,341.03060284411185 L792.9737923672211,356.2978729026462 L822.0131556174964,316.32815689192955 L822.0128843833788,365.73324585941555 Z" fill="hsla(35.27777777777778, 100%, 50%, 0.14500000000000002)" stroke="hsla(215.27777777777777, 100%, 50%, 1)" stroke-width="3.4" transform="rotate(22.333121314320742, 801, 381)" filter="url(#blur-1)"></path><path d="M1171,830 L1119.8669624172064,846.6138206824007 L1119.867257583746,900.3781822058413 L1088.2655975760936,856.8817265471204 L1037.132742416254,873.496108669643 L1068.7348800134,830 L1037.132742416254,786.503891330357 L1088.2655975760936,803.1182734528796 L1119.867257583746,759.6218177941587 L1119.8669624172064,813.3861793175993 Z" fill="hsla(76.85185185185185, 100%, 50%, 0.15)" stroke="hsla(256.85185185185185, 100%, 50%, 1)" stroke-width="3.7" transform="rotate(64.65139925599162, 1097, 830)" filter="url(#blur-1)"></path><path d="M974,36 L920.1030144397581,53.51186504361155 L920.1033255612459,110.18240827102197 L886.7934677153419,64.33479284696466 L832.8966744387541,81.84724967881291 L866.2070356898,36.00000000000001 L832.8966744387541,-9.847249678812894 L886.7934677153419,7.665207153035347 L920.1033255612459,-38.182408271021984 L920.1030144397581,18.48813495638844 Z" fill="hsla(3.333333333333333, 100%, 50%, 0.155)" stroke="hsla(183.33333333333334, 100%, 50%, 1)" stroke-width="3.9" transform="rotate(9.691714103719343, 896, 36)" filter="url(#blur-1)"></path><path d="M1501,162 L1498.2360520225518,162.89804436121085 L1498.2360679774997,165.80422606518061 L1496.5278701392483,163.45306629984435 L1493.7639320225003,164.35114100916988 L1495.4721556764,162 L1493.7639320225003,159.64885899083012 L1496.5278701392483,160.54693370015565 L1498.2360679774997,158.19577393481939 L1498.2360520225518,161.10195563878915 Z" fill="hsla(14.999999999999998, 100%, 50%, 0.15999999999999998)" stroke="hsla(195, 100%, 50%, 1)" stroke-width="0.2" transform="rotate(57.10462517193929, 1497, 162)" filter="url(#blur-1)"></path><path d="M712,742 L698.1802601127584,746.4902218060543 L698.1803398874989,761.0211303259031 L689.6393506962415,749.2653314992217 L675.8196601125011,753.7557050458495 L684.360778382,742 L675.8196601125011,730.2442949541505 L689.6393506962415,734.7346685007783 L698.1803398874989,722.9788696740969 L698.1802601127584,737.5097781939457 Z" fill="hsla(68.7037037037037, 100%, 50%, 0.16499999999999998)" stroke="hsla(248.7037037037037, 100%, 50%, 1)" stroke-width="1" transform="rotate(45.07728440706066, 692, 742)" filter="url(#blur-1)"></path><path d="M1503,441 L1462.9227543269997,454.0216432375573 L1462.922985673747,496.1612779451189 L1438.1541170191003,462.06946134774296 L1398.077014326253,475.09154463296346 L1422.8462573078,441 L1398.077014326253,406.9084553670366 L1438.1541170191003,419.93053865225704 L1462.922985673747,385.8387220548811 L1462.9227543269997,427.9783567624427 Z" fill="hsla(40.83333333333333, 100%, 50%, 0.16999999999999998)" stroke="hsla(220.83333333333331, 100%, 50%, 1)" stroke-width="2.9" transform="rotate(65.3172098362096, 1445, 441)" filter="url(#blur-1)"></path><path d="M767,564 L735.2145982593445,574.3275101539248 L735.2147817412476,607.748599749577 L715.5705066013555,580.71026244821 L683.7852182587524,591.0381216054537 L703.4297902786,564 L683.7852182587524,536.9618783945463 L715.5705066013555,547.28973755179 L735.2147817412475,520.2514002504229 L735.2145982593445,553.6724898460752 Z" fill="hsla(52.22222222222222, 100%, 50%, 0.175)" stroke="hsla(232.22222222222223, 100%, 50%, 1)" stroke-width="2.3" transform="rotate(53.29097806315191, 721, 564)" filter="url(#blur-1)"></path><path d="M1563,927 L1504.2661054792236,946.0834426757306 L1504.2664445218704,1007.839803885088 L1467.9672404590265,957.8776588716922 L1409.2335554781296,976.9617464448602 L1445.5333081235,927 L1409.2335554781293,877.0382535551398 L1467.9672404590265,896.1223411283078 L1504.2664445218704,846.160196114912 L1504.2661054792236,907.9165573242694 Z" fill="hsla(85.83333333333333, 100%, 50%, 0.18)" stroke="hsla(265.8333333333333, 100%, 50%, 1)" stroke-width="4.25" transform="rotate(21.146193570121632, 1478, 927)" filter="url(#blur-1)"></path><path d="M208,613 L179.6695332311549,622.2049547024112 L179.66969676937285,651.9933171681013 L162.16066892729512,627.8939295734045 L133.83030323062715,637.0991953439914 L151.33959568310001,613 L133.83030323062715,588.9008046560086 L162.16066892729512,598.1060704265955 L179.66969676937285,574.0066828318987 L179.6695332311549,603.7950452975888 Z" fill="hsla(56.75925925925925, 100%, 50%, 0.185)" stroke="hsla(236.75925925925924, 100%, 50%, 1)" stroke-width="2.05" transform="rotate(37.515018511237386, 167, 613)" filter="url(#blur-1)"></path><path d="M251,839 L188.81117050741318,859.2059981272441 L188.81152949374527,924.5950864665638 L150.37707813308683,871.6939917464977 L88.18847050625475,891.9006727063226 L126.623502719,839 L88.18847050625473,786.0993272936774 L150.37707813308683,806.3060082535023 L188.81152949374524,753.4049135334362 L188.81117050741318,818.7940018727559 Z" fill="hsla(77.68518518518518, 100%, 50%, 0.19)" stroke="hsla(257.68518518518516, 100%, 50%, 1)" stroke-width="4.5" transform="rotate(51.16381487570495, 161, 839)" filter="url(#blur-1)"></path><path d="M676,84 L659.4163121353101,89.38826616726509 L659.4164078649987,106.82535639108369 L649.1672208354898,92.71839779906605 L632.5835921350013,98.10684605501936 L642.8329340584,84 L632.5835921350013,69.89315394498064 L649.1672208354898,75.28160220093395 L659.4164078649987,61.17464360891631 L659.4163121353101,78.6117338327349 Z" fill="hsla(7.777777777777778, 100%, 50%, 0.195)" stroke="hsla(187.77777777777777, 100%, 50%, 1)" stroke-width="1.2" transform="rotate(40.338455911995254, 652, 84)" filter="url(#blur-1)"></path><path d="M1561,1025 L1537.5064421916895,1032.6333770702922 L1537.5065778087483,1057.3359215540352 L1522.9868961836105,1037.3510635486768 L1499.4934221912517,1044.984698577944 L1514.0133232494,1025 L1499.4934221912517,1005.0153014220559 L1522.9868961836105,1012.6489364513232 L1537.5065778087483,992.6640784459648 L1537.5064421916895,1017.3666229297078 Z" fill="hsla(94.9074074074074, 100%, 50%, 0.2)" stroke="hsla(274.9074074074074, 100%, 50%, 1)" stroke-width="1.7" transform="rotate(3.8389424687397025, 1527, 1025)" filter="url(#blur-2)"></path><path d="M1589,850 L1568.9613771634997,856.5108216187787 L1568.9614928368735,877.5806389725594 L1556.5770585095502,860.5347306738714 L1536.5385071631265,867.0457723164817 L1548.9231286539,850 L1536.5385071631265,832.9542276835183 L1556.5770585095502,839.4652693261286 L1568.9614928368735,822.4193610274406 L1568.9613771634997,843.4891783812213 Z" fill="hsla(78.7037037037037, 100%, 50%, 0.205)" stroke="hsla(258.7037037037037, 100%, 50%, 1)" stroke-width="1.45" transform="rotate(12.617134208957646, 1560, 850)" filter="url(#blur-2)"></path><path d="M1353,68 L1290.8111705074132,88.2059981272441 L1290.8115294937452,153.59508646656383 L1252.3770781330868,100.69399174649769 L1190.1884705062548,120.9006727063226 L1228.623502719,68 L1190.1884705062548,15.099327293677426 L1252.3770781330868,35.30600825350233 L1290.8115294937452,-17.595086466563828 L1290.8111705074132,47.79400187275589 Z" fill="hsla(6.296296296296296, 100%, 50%, 0.21000000000000002)" stroke="hsla(186.2962962962963, 100%, 50%, 1)" stroke-width="4.5" transform="rotate(65.4995079874391, 1263, 68)" filter="url(#blur-2)"></path><path d="M1426,415 L1360.3562355356028,436.32855357875764 L1360.35661446562,505.35036904803957 L1319.7869158071471,449.5103246213031 L1254.14338553438,470.839598967785 L1294.7136973145,415 L1254.14338553438,359.1604010322151 L1319.7869158071471,380.4896753786969 L1360.35661446562,324.6496309519604 L1360.3562355356028,393.6714464212423 Z" fill="hsla(38.425925925925924, 100%, 50%, 0.215)" stroke="hsla(218.42592592592592, 100%, 50%, 1)" stroke-width="4.75" transform="rotate(54.84702039203136, 1331, 415)" filter="url(#blur-2)"></path><path d="M57,49 L50.781117050741315,51.02059981272441 L50.78115294937453,57.55950864665638 L46.937707813308684,52.26939917464977 L40.71884705062547,54.29006727063226 L44.5623502719,49 L40.71884705062547,43.70993272936774 L46.937707813308684,45.73060082535023 L50.78115294937452,40.44049135334362 L50.781117050741315,46.97940018727559 Z" fill="hsla(4.537037037037036, 100%, 50%, 0.22000000000000003)" stroke="hsla(184.53703703703704, 100%, 50%, 1)" stroke-width="0.45" transform="rotate(32.079523240723695, 48, 49)" filter="url(#blur-2)"></path><path d="M384,989 L328.72104045103396,1006.960887224217 L328.7213595499958,1065.0845213036123 L294.5574027849661,1018.0613259968868 L239.27864045000422,1036.022820183398 L273.443113528,989 L239.27864045000422,941.9771798166022 L294.5574027849661,959.9386740031132 L328.7213595499958,912.9154786963877 L328.7210404510339,971.039112775783 Z" fill="hsla(91.57407407407406, 100%, 50%, 0.225)" stroke="hsla(271.5740740740741, 100%, 50%, 1)" stroke-width="4" transform="rotate(51.05685726057137, 304, 989)" filter="url(#blur-2)"></path><path d="M1632,215 L1598.8326242706203,225.77653233453017 L1598.8328157299975,260.6507127821674 L1578.3344416709797,232.4367955981321 L1545.1671842700025,243.21369211003872 L1565.6658681168,215 L1545.1671842700025,186.78630788996128 L1578.3344416709797,197.5632044018679 L1598.8328157299975,169.34928721783263 L1598.8326242706203,204.2234676654698 Z" fill="hsla(19.907407407407405, 100%, 50%, 0.22999999999999998)" stroke="hsla(199.9074074074074, 100%, 50%, 1)" stroke-width="2.4" transform="rotate(70.61653149559336, 1584, 215)" filter="url(#blur-2)"></path><path d="M1527,15 L1474.4849884284822,32.062842863006125 L1474.485291572496,87.28029523843166 L1442.0295326457178,42.608259697042485 L1389.514708427504,59.67167917422797 L1421.9709578516,15.000000000000004 L1389.514708427504,-29.671679174227947 L1442.0295326457178,-12.608259697042481 L1474.485291572496,-57.28029523843168 L1474.4849884284822,-2.0628428630061357 Z" fill="hsla(1.3888888888888888, 100%, 50%, 0.23500000000000001)" stroke="hsla(181.38888888888889, 100%, 50%, 1)" stroke-width="3.8" transform="rotate(39.75364864592112, 1451, 15)" filter="url(#blur-2)"></path><path d="M1885,240 L1853.9055852537065,250.10299906362206 L1853.9057647468726,282.7975432332819 L1834.6885390665434,256.34699587324883 L1803.5942352531274,266.4503363531613 L1822.8117513595,240 L1803.5942352531274,213.54966364683872 L1834.6885390665434,223.65300412675117 L1853.9057647468726,197.2024567667181 L1853.9055852537065,229.89700093637794 Z" fill="hsla(22.22222222222222, 100%, 50%, 0.24)" stroke="hsla(202.22222222222223, 100%, 50%, 1)" stroke-width="2.25" transform="rotate(61.862191302646615, 1840, 240)" filter="url(#blur-2)"></path><path d="M910,840 L892.7253251409481,845.6127772575678 L892.7254248593737,863.7764129073788 L882.0491883703019,849.0816643740271 L864.7745751406263,854.6946313073119 L875.4509729775,840 L864.7745751406263,825.3053686926881 L882.0491883703019,830.9183356259729 L892.7254248593737,816.2235870926212 L892.7253251409481,834.3872227424322 Z" fill="hsla(77.77777777777777, 100%, 50%, 0.24500000000000002)" stroke="hsla(257.77777777777777, 100%, 50%, 1)" stroke-width="1.25" transform="rotate(64.12350404225067, 885, 840)" filter="url(#blur-2)"></path><path d="M1417,511 L1414.9270390169138,511.67353327090814 L1414.927050983125,513.8531695488855 L1413.6459026044363,512.0897997248833 L1411.572949016875,512.7633557568774 L1412.8541167573,511 L1411.572949016875,509.23664424312256 L1413.6459026044363,509.9102002751167 L1414.927050983125,508.1468304511145 L1414.9270390169138,510.32646672909186 Z" fill="hsla(47.31481481481481, 100%, 50%, 0.25)" stroke="hsla(227.3148148148148, 100%, 50%, 1)" stroke-width="0.15" transform="rotate(15.84111787042413, 1414, 511)" filter="url(#blur-2)"></path><path d="M1920,426 L1892.360520225517,434.9804436121085 L1892.3606797749978,464.04226065180615 L1875.278701392483,440.5306629984434 L1847.6393202250022,449.5114100916989 L1864.721556764,426 L1847.6393202250022,402.4885899083011 L1875.278701392483,411.4693370015566 L1892.3606797749978,387.95773934819385 L1892.360520225517,417.0195563878915 Z" fill="hsla(39.44444444444444, 100%, 50%, 0.255)" stroke="hsla(219.44444444444446, 100%, 50%, 1)" stroke-width="2" transform="rotate(48.476816383963815, 1880, 426)" filter="url(#blur-2)"></path><path d="M1918,851 L1853.047222529965,872.104042488455 L1853.0475974712451,940.3993125317444 L1812.904948272335,885.1470580463421 L1747.9524025287549,906.2518137154925 L1788.0956583954,851 L1747.9524025287549,795.7481862845075 L1812.904948272335,816.8529419536579 L1853.0475974712451,761.6006874682555 L1853.0472225299648,829.895957511545 Z" fill="hsla(78.79629629629629, 100%, 50%, 0.26)" stroke="hsla(258.7962962962963, 100%, 50%, 1)" stroke-width="4.7" transform="rotate(34.44183767716685, 1824, 851)" filter="url(#blur-2)"></path><path d="M1657,519 L1636.9613771634997,525.5108216187787 L1636.9614928368735,546.5806389725594 L1624.5770585095502,529.5347306738714 L1604.5385071631265,536.0457723164817 L1616.9231286539,519 L1604.5385071631265,501.9542276835183 L1624.5770585095502,508.4652693261285 L1636.9614928368735,491.4193610274406 L1636.9613771634997,512.4891783812213 Z" fill="hsla(48.05555555555555, 100%, 50%, 0.265)" stroke="hsla(228.05555555555554, 100%, 50%, 1)" stroke-width="1.45" transform="rotate(58.745244259602586, 1628, 519)" filter="url(#blur-2)"></path><path d="M615,435 L608.0901300563793,437.2451109030271 L608.0901699437495,444.51056516295154 L603.8196753481208,438.63266574961085 L596.9098300562505,440.87785252292474 L601.180389191,435 L596.9098300562505,429.12214747707526 L603.8196753481208,431.36733425038915 L608.0901699437495,425.48943483704846 L608.0901300563793,432.7548890969729 Z" fill="hsla(40.27777777777778, 100%, 50%, 0.27)" stroke="hsla(220.27777777777777, 100%, 50%, 1)" stroke-width="0.5" transform="rotate(58.23518998462738, 605, 435)" filter="url(#blur-2)"></path><path d="M930,216 L863.6652485412408,237.55306466906038 L863.665631459995,307.30142556433475 L822.6688833419593,250.8735911962642 L756.334368540005,272.42738422007744 L797.3317362336,216 L756.334368540005,159.5726157799226 L822.6688833419593,181.1264088037358 L863.665631459995,124.69857443566525 L863.6652485412407,194.44693533093962 Z" fill="hsla(20, 100%, 50%, 0.275)" stroke="hsla(200, 100%, 50%, 1)" stroke-width="4.8" transform="rotate(29.973719713735445, 834, 216)" filter="url(#blur-2)"></path><path d="M266,538 L200.3562355356028,559.3285535787577 L200.35661446562,628.3503690480396 L159.7869158071472,572.5103246213031 L94.14338553438,593.8395989677849 L134.7136973145,538 L94.14338553437999,482.1604010322151 L159.7869158071472,503.4896753786969 L200.35661446562,447.6496309519604 L200.3562355356028,516.6714464212423 Z" fill="hsla(49.81481481481481, 100%, 50%, 0.28)" stroke="hsla(229.8148148148148, 100%, 50%, 1)" stroke-width="4.75" transform="rotate(25.71424766815376, 171, 538)" filter="url(#blur-2)"></path><path d="M331,117 L284.01288438337883,132.26675414058442 L284.0131556174964,181.67184310807045 L254.97379236722117,141.7021270973538 L207.9868443825036,156.96939715588817 L237.0266464988,117 L207.9868443825036,77.03060284411183 L254.97379236722117,92.2978729026462 L284.0131556174964,52.32815689192955 L284.01288438337883,101.73324585941556 Z" fill="hsla(10.833333333333332, 100%, 50%, 0.28500000000000003)" stroke="hsla(190.83333333333334, 100%, 50%, 1)" stroke-width="3.4" transform="rotate(47.70543132509232, 263, 117)" filter="url(#blur-2)"></path><path d="M655,6 L623.9055852537066,16.10299906362205 L623.9057647468726,48.79754323328191 L604.6885390665434,22.34699587324884 L573.5942352531274,32.4503363531613 L592.8117513595,6.000000000000002 L573.5942352531274,-20.450336353161287 L604.6885390665434,-10.346995873248837 L623.9057647468726,-36.797543233281914 L623.9055852537066,-4.102999063622054 Z" fill="hsla(0.5555555555555555, 100%, 50%, 0.29000000000000004)" stroke="hsla(180.55555555555554, 100%, 50%, 1)" stroke-width="2.25" transform="rotate(49.69898350711866, 610, 6)" filter="url(#blur-2)"></path><path d="M306,902 L303.9270390169138,902.6735332709081 L303.92705098312484,904.8531695488855 L302.64590260443623,903.0897997248833 L300.57294901687516,903.7633557568774 L301.8541167573,902 L300.57294901687516,900.2366442431226 L302.64590260443623,900.9102002751167 L303.92705098312484,899.1468304511145 L303.9270390169138,901.3264667290919 Z" fill="hsla(83.51851851851852, 100%, 50%, 0.29500000000000004)" stroke="hsla(263.51851851851853, 100%, 50%, 1)" stroke-width="0.15" transform="rotate(11.305448270998378, 303, 902)" filter="url(#blur-2)"></path><path d="M1279,360 L1215.429196518689,380.6550203078495 L1215.4295634824953,447.49719949915414 L1176.141013202711,393.42052489641986 L1112.5704365175047,414.07624321090753 L1151.8595805572,360 L1112.5704365175047,305.92375678909247 L1176.141013202711,326.57947510358014 L1215.429563482495,272.50280050084586 L1215.429196518689,339.34497969215045 Z" fill="hsla(33.33333333333333, 100%, 50%, 0.3)" stroke="hsla(213.33333333333331, 100%, 50%, 1)" stroke-width="4.6" transform="rotate(42.498336361894545, 1187, 360)" filter="url(#blur-3)"></path><path d="M355,269 L296.95709247358565,287.85893158542785 L296.9574275274956,348.8887473687929 L261.0852729242144,299.51439229673116 L203.04257247250442,318.3739611925678 L238.9152692044,269 L203.04257247250442,219.62603880743228 L261.0852729242144,238.48560770326884 L296.95742752749555,189.1112526312071 L296.95709247358565,250.14106841457217 Z" fill="hsla(24.907407407407405, 100%, 50%, 0.305)" stroke="hsla(204.9074074074074, 100%, 50%, 1)" stroke-width="4.2" transform="rotate(54.576520347100356, 271, 269)" filter="url(#blur-3)"></path><path d="M318,712 L277.9227543269996,725.0216432375573 L277.92298567374695,767.1612779451189 L253.1541170191004,733.069461347743 L213.07701432625305,746.0915446329634 L237.8462573078,712 L213.07701432625305,677.9084553670366 L253.1541170191004,690.930538652257 L277.92298567374695,656.8387220548811 L277.9227543269996,698.9783567624427 Z" fill="hsla(65.92592592592592, 100%, 50%, 0.31)" stroke="hsla(245.92592592592592, 100%, 50%, 1)" stroke-width="2.9" transform="rotate(20.466182754968223, 260, 712)" filter="url(#blur-3)"></path><path d="M1175,509 L1146.669533231155,518.2049547024112 L1146.6696967693729,547.9933171681013 L1129.160668927295,523.8939295734045 L1100.8303032306271,533.0991953439914 L1118.3395956831,509 L1100.8303032306271,484.90080465600863 L1129.160668927295,494.1060704265955 L1146.6696967693729,470.00668283189873 L1146.669533231155,499.7950452975888 Z" fill="hsla(47.129629629629626, 100%, 50%, 0.315)" stroke="hsla(227.12962962962962, 100%, 50%, 1)" stroke-width="2.05" transform="rotate(28.36422669378144, 1134, 509)" filter="url(#blur-3)"></path><path d="M1304,184 L1270.1416372762583,195.0010434248329 L1270.1418327243725,230.60176929846253 L1249.2164092057917,201.80006217309318 L1215.3581672756277,212.80147736233118 L1236.2839070359,184 L1215.3581672756275,155.19852263766882 L1249.2164092057917,166.19993782690682 L1270.1418327243723,137.39823070153747 L1270.1416372762583,172.99895657516709 Z" fill="hsla(17.037037037037035, 100%, 50%, 0.31999999999999995)" stroke="hsla(197.03703703703704, 100%, 50%, 1)" stroke-width="2.45" transform="rotate(13.048573576789149, 1255, 184)" filter="url(#blur-3)"></path><path d="M99,872 L81.03433814658602,877.8372883478705 L81.03444185374863,896.7274694236739 L69.93115590511397,881.4449309489883 L51.96555814625137,887.2824165596043 L63.0690118966,872 L51.96555814625137,856.7175834403957 L69.93115590511397,862.5550690510117 L81.03444185374863,847.2725305763261 L81.03433814658602,866.1627116521295 Z" fill="hsla(80.74074074074073, 100%, 50%, 0.325)" stroke="hsla(260.74074074074076, 100%, 50%, 1)" stroke-width="1.3" transform="rotate(54.73832872883806, 73, 872)" filter="url(#blur-3)"></path><path d="M1866,1052 L1854.2532210958448,1055.816688535146 L1854.2532889043741,1068.1679607770177 L1846.9934480918052,1058.1755317743384 L1835.2467110956259,1061.992349288972 L1842.5066616247,1052 L1835.2467110956259,1042.007650711028 L1846.9934480918052,1045.8244682256616 L1854.2532889043741,1035.8320392229823 L1854.2532210958448,1048.183311464854 Z" fill="hsla(97.4074074074074, 100%, 50%, 0.32999999999999996)" stroke="hsla(277.4074074074074, 100%, 50%, 1)" stroke-width="0.85" transform="rotate(4.506909261874425, 1849, 1052)" filter="url(#blur-3)"></path><path d="M193,319 L172.9613771634998,325.51082161877866 L172.96149283687348,346.5806389725594 L160.5770585095502,329.5347306738715 L140.53850716312652,336.0457723164817 L152.9231286539,319 L140.53850716312652,301.9542276835183 L160.5770585095502,308.4652693261285 L172.96149283687348,291.4193610274406 L172.9613771634998,312.48917838122134 Z" fill="hsla(29.537037037037035, 100%, 50%, 0.335)" stroke="hsla(209.53703703703704, 100%, 50%, 1)" stroke-width="1.45" transform="rotate(60.24974457015385, 164, 319)" filter="url(#blur-3)"></path><path d="M1261,636 L1203.6480794679478,654.6344204951251 L1203.6484105331206,714.9376908524978 L1168.2033053894022,666.1511257217701 L1110.8515894668794,684.7861759402753 L1146.2972302853,636 L1110.8515894668794,587.2138240597247 L1168.2033053894022,605.8488742782299 L1203.6484105331206,557.0623091475022 L1203.6480794679478,617.3655795048749 Z" fill="hsla(58.888888888888886, 100%, 50%, 0.33999999999999997)" stroke="hsla(238.88888888888889, 100%, 50%, 1)" stroke-width="4.15" transform="rotate(63.41066682952459, 1178, 636)" filter="url(#blur-3)"></path><path d="M1222,911 L1192.978546236793,920.4294657927139 L1192.9787137637477,950.9443736843964 L1175.042636462107,926.2571961483656 L1146.0212862362523,935.6869805962839 L1163.9576346022,911 L1146.0212862362523,886.3130194037161 L1175.042636462107,895.7428038516344 L1192.9787137637477,871.0556263156036 L1192.978546236793,901.5705342072861 Z" fill="hsla(84.35185185185185, 100%, 50%, 0.34500000000000003)" stroke="hsla(264.35185185185185, 100%, 50%, 1)" stroke-width="2.1" transform="rotate(47.13847645952926, 1180, 911)" filter="url(#blur-3)"></path><path d="M103,349 L76.74249421424112,357.5314214315031 L76.742645786248,385.14014761921584 L60.51476632285888,362.80412984852126 L34.257354213752,371.335839587114 L50.4854789258,349 L34.257354213751995,326.664160412886 L60.51476632285888,335.19587015147874 L76.74264578624799,312.85985238078416 L76.74249421424112,340.4685785684969 Z" fill="hsla(32.31481481481481, 100%, 50%, 0.35)" stroke="hsla(212.3148148148148, 100%, 50%, 1)" stroke-width="1.9" transform="rotate(42.925634212599775, 65, 349)" filter="url(#blur-3)"></path><path d="M1105,79 L1082.1974291860515,86.4088659799895 L1082.1975608143732,110.38486503774007 L1068.1049286487985,90.98779697371582 L1045.3024391856268,98.39691332565161 L1059.3952843303,79 L1045.3024391856268,59.60308667434839 L1068.1049286487985,67.01220302628418 L1082.1975608143732,47.61513496225993 L1082.1974291860515,71.5911340200105 Z" fill="hsla(7.314814814814814, 100%, 50%, 0.35500000000000004)" stroke="hsla(187.3148148148148, 100%, 50%, 1)" stroke-width="1.65" transform="rotate(68.70248617739696, 1072, 79)" filter="url(#blur-3)"></path><path d="M94,76 L78.10729912967226,81.16375507696237 L78.10739087062379,97.87429987478853 L68.28525330067775,84.35513122410497 L52.39260912937621,89.51906080272688 L62.2148951393,76 L52.39260912937621,62.480939197273116 L68.28525330067774,67.64486877589503 L78.10739087062379,54.125700125211466 L78.10729912967226,70.83624492303761 Z" fill="hsla(7.037037037037036, 100%, 50%, 0.36)" stroke="hsla(187.03703703703704, 100%, 50%, 1)" stroke-width="1.15" transform="rotate(54.31237803374837, 71, 76)" filter="url(#blur-3)"></path><path d="M82,396 L62.652364157861875,402.28631052847595 L62.65247584249853,422.6295824562643 L50.69509097473812,406.1714640989104 L31.347524157501475,412.45798706418924 L43.3050897348,396 L31.34752415750147,379.54201293581076 L50.69509097473812,385.8285359010896 L62.65247584249852,369.3704175437357 L62.652364157861875,389.71368947152405 Z" fill="hsla(36.666666666666664, 100%, 50%, 0.365)" stroke="hsla(216.66666666666666, 100%, 50%, 1)" stroke-width="1.4" transform="rotate(39.00568556643113, 54, 396)" filter="url(#blur-3)"></path><path d="M1638,21 L1608.978546236793,30.429465792713913 L1608.9787137637477,60.944373684396446 L1591.042636462107,36.25719614836558 L1562.0212862362523,45.686980596283874 L1579.9576346022,21.000000000000004 L1562.0212862362523,-3.686980596283867 L1591.042636462107,5.74280385163442 L1608.9787137637477,-18.944373684396453 L1608.978546236793,11.570534207286084 Z" fill="hsla(1.9444444444444444, 100%, 50%, 0.37)" stroke="hsla(181.94444444444446, 100%, 50%, 1)" stroke-width="2.1" transform="rotate(15.48281324926598, 1596, 21)" filter="url(#blur-3)"></path><path d="M1959,1065 L1898.8841314904994,1084.532464856336 L1898.8844785106205,1147.7419169176783 L1861.7311755286505,1096.6041920216144 L1801.6155214893795,1116.1373169494452 L1838.7693859617,1065 L1801.6155214893795,1013.8626830505549 L1861.7311755286505,1033.3958079783856 L1898.8844785106205,982.2580830823216 L1898.8841314904994,1045.467535143664 Z" fill="hsla(98.6111111111111, 100%, 50%, 0.37500000000000006)" stroke="hsla(278.6111111111111, 100%, 50%, 1)" stroke-width="4.35" transform="rotate(37.46035097967731, 1872, 1065)" filter="url(#blur-3)"></path><path d="M1387,296 L1373.1802601127586,300.49022180605425 L1373.180339887499,315.0211303259031 L1364.6393506962415,303.2653314992217 L1350.819660112501,307.7557050458495 L1359.360778382,296 L1350.819660112501,284.2442949541505 L1364.6393506962415,288.7346685007783 L1373.180339887499,276.9788696740969 L1373.1802601127586,291.50977819394575 Z" fill="hsla(27.407407407407405, 100%, 50%, 0.38)" stroke="hsla(207.4074074074074, 100%, 50%, 1)" stroke-width="1" transform="rotate(31.608977158836506, 1367, 296)" filter="url(#blur-3)"></path><path d="M852,457 L802.2489364059305,473.1647985017953 L802.2492235949962,525.4760691732511 L771.5016625064694,483.15519339719816 L721.7507764050038,499.32053816505805 L752.4988021752,457 L721.7507764050038,414.67946183494195 L771.5016625064694,430.84480660280184 L802.2492235949962,388.52393082674894 L802.2489364059305,440.8352014982047 Z" fill="hsla(42.31481481481481, 100%, 50%, 0.385)" stroke="hsla(222.3148148148148, 100%, 50%, 1)" stroke-width="3.6" transform="rotate(60.29970763936666, 780, 457)" filter="url(#blur-3)"></path><path d="M168,29 L134.83262427062036,39.77653233453019 L134.8328157299975,74.65071278216737 L114.33444167097964,46.43679559813209 L81.16718427000254,57.213692110038714 L101.6658681168,29.000000000000004 L81.16718427000252,0.786307889961293 L114.33444167097964,11.563204401867907 L134.83281572999746,-16.650712782167375 L134.83262427062036,18.223467665469812 Z" fill="hsla(2.685185185185185, 100%, 50%, 0.39)" stroke="hsla(182.6851851851852, 100%, 50%, 1)" stroke-width="2.4" transform="rotate(35.86522662158191, 120, 29)" filter="url(#blur-3)"></path><path d="M88,491 L58.97854623679281,500.4294657927139 L58.97871376374779,530.9443736843964 L41.04263646210719,506.2571961483656 L12.021286236252209,515.6869805962839 L29.957634602200002,491 L12.021286236252209,466.3130194037161 L41.04263646210718,475.74280385163445 L58.978713763747784,451.05562631560355 L58.97854623679281,481.5705342072861 Z" fill="hsla(45.46296296296296, 100%, 50%, 0.3950000000000001)" stroke="hsla(225.46296296296296, 100%, 50%, 1)" stroke-width="2.1" transform="rotate(59.211327423651, 46, 491)" filter="url(#blur-3)"></path><path d="M460,56 L428.9055852537066,66.10299906362205 L428.90576474687265,98.79754323328191 L409.6885390665434,72.34699587324884 L378.59423525312735,82.4503363531613 L397.8117513595,56 L378.59423525312735,29.549663646838713 L409.6885390665434,39.65300412675116 L428.90576474687265,13.202456766718086 L428.9055852537066,45.89700093637795 Z" fill="hsla(5.185185185185185, 100%, 50%, 0.4)" stroke="hsla(185.1851851851852, 100%, 50%, 1)" stroke-width="2.25" transform="rotate(47.17186010092187, 415, 56)" filter="url(#blur-4)"></path><path d="M817,324 L765.8669624172064,340.6138206824007 L765.8672575837461,394.37818220584137 L734.2655975760936,350.8817265471203 L683.1327424162539,367.49610866964304 L714.7348800134,324 L683.1327424162539,280.50389133035696 L734.2655975760936,297.1182734528797 L765.8672575837461,253.62181779415863 L765.8669624172064,307.3861793175993 Z" fill="hsla(29.999999999999996, 100%, 50%, 0.40499999999999997)" stroke="hsla(210, 100%, 50%, 1)" stroke-width="3.7" transform="rotate(50.879116835536685, 743, 324)" filter="url(#blur-4)"></path><path d="M1802,323 L1775.051507219879,331.7559325218058 L1775.051662780623,360.09120413551096 L1758.396733857671,337.16739642348233 L1731.448337219377,345.92362483940644 L1748.1035178449,323 L1731.448337219377,300.07637516059356 L1758.396733857671,308.83260357651767 L1775.051662780623,285.908795864489 L1775.051507219879,314.2440674781942 Z" fill="hsla(29.907407407407405, 100%, 50%, 0.41)" stroke="hsla(209.9074074074074, 100%, 50%, 1)" stroke-width="1.95" transform="rotate(20.23816678672418, 1763, 323)" filter="url(#blur-4)"></path><path d="M1517,658 L1485.2145982593445,668.3275101539248 L1485.2147817412476,701.748599749577 L1465.5705066013554,674.71026244821 L1433.7852182587524,685.0381216054537 L1453.4297902786,658 L1433.7852182587524,630.9618783945463 L1465.5705066013554,641.28973755179 L1485.2147817412476,614.2514002504229 L1485.2145982593445,647.6724898460752 Z" fill="hsla(60.925925925925924, 100%, 50%, 0.4149999999999999)" stroke="hsla(240.92592592592592, 100%, 50%, 1)" stroke-width="2.3" transform="rotate(12.171734433571885, 1471, 658)" filter="url(#blur-4)"></path><path d="M1401,784 L1376.1244682029653,792.0823992508977 L1376.1246117974981,818.2380345866255 L1360.7508312532348,797.0775966985991 L1335.8753882025019,805.160269082529 L1351.2494010876,784 L1335.8753882025019,762.839730917471 L1360.7508312532348,770.9224033014009 L1376.1246117974981,749.7619654133745 L1376.1244682029653,775.9176007491023 Z" fill="hsla(72.59259259259258, 100%, 50%, 0.42000000000000004)" stroke="hsla(252.59259259259258, 100%, 50%, 1)" stroke-width="1.8" transform="rotate(69.72919985032208, 1365, 784)" filter="url(#blur-4)"></path><path d="M651,90 L594.3390664623098,108.4099094048224 L594.3393935387456,167.9866343362026 L559.3213378545902,119.787859146809 L502.6606064612543,138.1983906879828 L537.6791913662,90 L502.6606064612543,41.80160931201721 L559.3213378545902,60.212140853191 L594.3393935387456,12.013365663797401 L594.3390664623098,71.59009059517759 Z" fill="hsla(8.333333333333332, 100%, 50%, 0.425)" stroke="hsla(188.33333333333334, 100%, 50%, 1)" stroke-width="4.1" transform="rotate(54.591400221923394, 569, 90)" filter="url(#blur-4)"></path><path d="M595,729 L579.1072991296722,734.1637550769624 L579.1073908706238,750.8742998747886 L569.2852533006777,737.355131224105 L553.3926091293762,742.5190608027269 L563.2148951393,729 L553.3926091293762,715.4809391972731 L569.2852533006777,720.644868775895 L579.1073908706238,707.1257001252114 L579.1072991296722,723.8362449230376 Z" fill="hsla(67.5, 100%, 50%, 0.43)" stroke="hsla(247.5, 100%, 50%, 1)" stroke-width="1.15" transform="rotate(35.59110513098493, 572, 729)" filter="url(#blur-4)"></path><path d="M1654,899 L1606.3218973890168,914.4912652308872 L1606.3221726118713,964.6228996243656 L1576.8557599020332,924.0653936723149 L1529.1778273881287,939.5571824081807 L1558.6446854179,899 L1529.1778273881287,858.4428175918193 L1576.8557599020332,873.9346063276851 L1606.3221726118713,833.3771003756344 L1606.3218973890168,883.5087347691128 Z" fill="hsla(83.24074074074073, 100%, 50%, 0.43499999999999994)" stroke="hsla(263.24074074074076, 100%, 50%, 1)" stroke-width="3.45" transform="rotate(41.11754478424971, 1585, 899)" filter="url(#blur-4)"></path><path d="M1402,689 L1361.9227543269997,702.0216432375573 L1361.922985673747,744.1612779451189 L1337.1541170191003,710.069461347743 L1297.077014326253,723.0915446329634 L1321.8462573078,689 L1297.077014326253,654.9084553670366 L1337.1541170191003,667.930538652257 L1361.922985673747,633.8387220548811 L1361.9227543269997,675.9783567624427 Z" fill="hsla(63.79629629629629, 100%, 50%, 0.44000000000000006)" stroke="hsla(243.7962962962963, 100%, 50%, 1)" stroke-width="2.9" transform="rotate(42.43097143441459, 1344, 689)" filter="url(#blur-4)"></path><path d="M197,172 L189.39914306201717,174.46962199332984 L189.39918693812442,182.4616216792467 L184.70164288293284,175.99593232457192 L177.10081306187558,178.4656377752172 L181.7984281101,172 L177.10081306187558,165.5343622247828 L184.70164288293284,168.00406767542808 L189.39918693812442,161.5383783207533 L189.39914306201717,169.53037800667016 Z" fill="hsla(15.925925925925926, 100%, 50%, 0.445)" stroke="hsla(195.92592592592592, 100%, 50%, 1)" stroke-width="0.55" transform="rotate(52.41626711285355, 186, 172)" filter="url(#blur-4)"></path><path d="M1763,107 L1715.3218973890168,122.49126523088714 L1715.3221726118713,172.62289962436557 L1685.8557599020332,132.06539367231488 L1638.1778273881287,147.55718240818067 L1667.6446854179,107 L1638.1778273881287,66.44281759181936 L1685.8557599020332,81.93460632768512 L1715.3221726118713,41.3771003756344 L1715.3218973890168,91.50873476911285 Z" fill="hsla(9.907407407407407, 100%, 50%, 0.45)" stroke="hsla(189.90740740740742, 100%, 50%, 1)" stroke-width="3.45" transform="rotate(58.767079234005045, 1694, 107)" filter="url(#blur-4)"></path><path d="M1366,1074 L1298.2832745525166,1096.0020868496658 L1298.2836654487448,1167.203538596925 L1256.4328184115834,1109.6001243461865 L1188.7163345512552,1131.6029547246624 L1230.5678140718,1074 L1188.7163345512552,1016.3970452753376 L1256.4328184115834,1038.3998756538135 L1298.2836654487448,980.796461403075 L1298.2832745525166,1051.9979131503342 Z" fill="hsla(99.44444444444444, 100%, 50%, 0.45499999999999996)" stroke="hsla(279.44444444444446, 100%, 50%, 1)" stroke-width="4.9" transform="rotate(11.48353894905042, 1268, 1074)" filter="url(#blur-4)"></path><path d="M1037,1045 L983.7940014341201,1062.2873539533089 L983.794308566871,1118.2313517547268 L950.9115001805299,1072.9715262720035 L897.705691433129,1090.2594644265205 L930.5889967707,1045 L897.705691433129,999.7405355734795 L950.9115001805299,1017.0284737279965 L983.7943085668709,971.7686482452732 L983.7940014341201,1027.7126460466911 Z" fill="hsla(96.75925925925925, 100%, 50%, 0.45999999999999996)" stroke="hsla(276.75925925925924, 100%, 50%, 1)" stroke-width="3.85" transform="rotate(29.248700732865082, 960, 1045)" filter="url(#blur-4)"></path><path d="M755,652 L710.085845366465,666.5932208696763 L710.0861046343716,713.818673559185 L682.3278897627849,675.6123273724705 L637.4138953656284,690.2060413990107 L665.1725297415001,652 L637.4138953656284,613.7939586009893 L682.3278897627849,628.3876726275295 L710.0861046343716,590.181326440815 L710.085845366465,637.4067791303237 Z" fill="hsla(60.37037037037037, 100%, 50%, 0.465)" stroke="hsla(240.37037037037038, 100%, 50%, 1)" stroke-width="3.25" transform="rotate(11.916152540916569, 690, 652)" filter="url(#blur-4)"></path><path d="M542,438 L526.1072991296722,443.1637550769624 L526.1073908706238,459.8742998747885 L516.2852533006777,446.355131224105 L500.3926091293762,451.51906080272687 L510.2148951393,438 L500.3926091293762,424.48093919727313 L516.2852533006777,429.644868775895 L526.1073908706238,416.12570012521144 L526.1072991296722,432.8362449230376 Z" fill="hsla(40.55555555555555, 100%, 50%, 0.47000000000000003)" stroke="hsla(220.55555555555554, 100%, 50%, 1)" stroke-width="1.15" transform="rotate(69.18855342506396, 519, 438)" filter="url(#blur-4)"></path><path d="M495,592 L474.2703901691377,598.7353327090814 L474.27050983124843,620.5316954888546 L461.4590260443623,602.8979972488326 L440.72949016875157,609.6335575687742 L453.541167573,592 L440.72949016875157,574.3664424312258 L461.45902604436225,581.1020027511674 L474.27050983124843,563.4683045111453 L474.2703901691377,585.2646672909186 Z" fill="hsla(54.81481481481481, 100%, 50%, 0.475)" stroke="hsla(234.8148148148148, 100%, 50%, 1)" stroke-width="1.5" transform="rotate(65.09818466199354, 465, 592)" filter="url(#blur-4)"></path><path d="M1673,224 L1642.5965722480687,233.87848797331935 L1642.5967477524978,265.84648671698676 L1623.8065715317314,239.98372929828776 L1593.4032522475022,249.8625511008688 L1612.1937124404,224 L1593.4032522475022,198.1374488991312 L1623.8065715317314,208.01627070171224 L1642.5967477524978,182.15351328301324 L1642.5965722480687,214.12151202668065 Z" fill="hsla(20.74074074074074, 100%, 50%, 0.48)" stroke="hsla(200.74074074074073, 100%, 50%, 1)" stroke-width="2.2" transform="rotate(26.0079285706804, 1629, 224)" filter="url(#blur-4)"></path><path d="M1957,614 L1896.1931444961374,633.7569759466387 L1896.1934955049953,697.6929734339735 L1858.6131430634628,645.9674585965755 L1797.8065044950047,665.7251022017376 L1835.3874248808,614 L1797.8065044950047,562.2748977982624 L1858.6131430634628,582.0325414034245 L1896.1934955049953,530.3070265660265 L1896.1931444961374,594.2430240533613 Z" fill="hsla(56.85185185185185, 100%, 50%, 0.48500000000000004)" stroke="hsla(236.85185185185185, 100%, 50%, 1)" stroke-width="4.4" transform="rotate(13.980321766725163, 1869, 614)" filter="url(#blur-4)"></path><path d="M1633,517 L1564.5922875581546,539.2265979399685 L1564.5926824431199,611.1545951132202 L1522.3147859463954,552.9633909211475 L1453.9073175568801,575.1907399769549 L1496.1858529909,517 L1453.9073175568801,458.80926002304517 L1522.3147859463954,481.03660907885256 L1564.5926824431199,422.84540488677976 L1564.5922875581546,494.77340206003146 Z" fill="hsla(47.87037037037037, 100%, 50%, 0.49000000000000005)" stroke="hsla(227.87037037037038, 100%, 50%, 1)" stroke-width="4.95" transform="rotate(65.65659300516289, 1534, 517)" filter="url(#blur-4)"></path><path d="M389,245 L338.5579494115685,261.389309592098 L338.55824058937117,314.4271256895462 L307.38363004128155,271.51845997215923 L256.94175941062883,287.9083234173505 L288.1168410943,245 L256.94175941062883,202.09167658264948 L307.38363004128155,218.48154002784077 L338.55824058937117,175.57287431045378 L338.5579494115685,228.610690407902 Z" fill="hsla(22.685185185185183, 100%, 50%, 0.495)" stroke="hsla(202.6851851851852, 100%, 50%, 1)" stroke-width="3.65" transform="rotate(15.288539303506488, 316, 245)" filter="url(#blur-4)"></path><path d="M1716,1041 L1657.9570924735856,1059.8589315854279 L1657.9574275274956,1120.8887473687928 L1622.0852729242145,1071.514392296731 L1564.0425724725044,1090.3739611925678 L1599.9152692044,1041 L1564.0425724725044,991.6260388074322 L1622.0852729242145,1010.4856077032689 L1657.9574275274956,961.1112526312071 L1657.9570924735856,1022.1410684145721 Z" fill="hsla(96.38888888888889, 100%, 50%, 0.5)" stroke="hsla(276.3888888888889, 100%, 50%, 1)" stroke-width="4.2" transform="rotate(26.06307661383019, 1632, 1041)" filter="url(#blur-5)"></path><path d="M890,347 L885.8540780338276,348.3470665418163 L885.8541019662497,352.7063390977709 L883.2918052088725,349.1795994497665 L879.1458980337503,350.52671151375483 L881.7082335146,347 L879.1458980337503,343.47328848624517 L883.2918052088725,344.8204005502335 L885.8541019662497,341.2936609022291 L885.8540780338276,345.6529334581837 Z" fill="hsla(32.129629629629626, 100%, 50%, 0.505)" stroke="hsla(212.12962962962962, 100%, 50%, 1)" stroke-width="0.3" transform="rotate(64.33123874905323, 884, 347)" filter="url(#blur-5)"></path><path d="M1967,388 L1922.776832360827,402.3687097793736 L1922.7770876399966,448.86761704288983 L1895.445922227973,411.24906079750946 L1851.2229123600034,425.6182561467183 L1878.5544908224,388 L1851.2229123600034,350.3817438532817 L1895.445922227973,364.75093920249054 L1922.7770876399966,327.13238295711017 L1922.776832360827,373.6312902206264 Z" fill="hsla(35.925925925925924, 100%, 50%, 0.51)" stroke="hsla(215.92592592592592, 100%, 50%, 1)" stroke-width="3.2" transform="rotate(6.65097444267786, 1903, 388)" filter="url(#blur-5)"></path><path d="M212,656 L174.6867023044479,668.1235988763465 L174.68691769624718,707.3570518799382 L151.6262468798521,675.6163950478985 L114.31308230375285,687.7404036237936 L137.3741016314,656 L114.31308230375284,624.2595963762064 L151.6262468798521,636.3836049521015 L174.68691769624715,604.6429481200616 L174.6867023044479,643.8764011236535 Z" fill="hsla(60.74074074074073, 100%, 50%, 0.515)" stroke="hsla(240.74074074074073, 100%, 50%, 1)" stroke-width="2.7" transform="rotate(4.2603262592181, 158, 656)" filter="url(#blur-5)"></path><path d="M238,1059 L175.81117050741318,1079.2059981272441 L175.81152949374527,1144.5950864665638 L137.37707813308683,1091.6939917464977 L75.18847050625475,1111.9006727063227 L113.623502719,1059 L75.18847050625473,1006.0993272936774 L137.37707813308683,1026.3060082535023 L175.81152949374524,973.4049135334362 L175.81117050741318,1038.7940018727559 Z" fill="hsla(98.05555555555554, 100%, 50%, 0.52)" stroke="hsla(278.05555555555554, 100%, 50%, 1)" stroke-width="4.5" transform="rotate(12.924618605848353, 148, 1059)" filter="url(#blur-5)"></path><path d="M247,759 L222.12446820296526,767.0823992508977 L222.12461179749812,793.2380345866255 L206.75083125323474,772.0775966985991 L181.87538820250188,780.160269082529 L197.2494010876,759 L181.87538820250188,737.839730917471 L206.75083125323474,745.9224033014009 L222.1246117974981,724.7619654133745 L222.12446820296526,750.9176007491023 Z" fill="hsla(70.27777777777777, 100%, 50%, 0.525)" stroke="hsla(250.27777777777777, 100%, 50%, 1)" stroke-width="1.8" transform="rotate(19.978083210676232, 211, 759)" filter="url(#blur-5)"></path><path d="M1104,8 L1079.8154551973273,15.857888160594928 L1079.815594803123,41.28697807033037 L1064.8688637184227,20.714330123637986 L1040.684405196877,28.572483830236564 L1055.6313621685,8.000000000000002 L1040.684405196877,-12.572483830236557 L1064.8688637184227,-4.7143301236379855 L1079.815594803123,-25.286978070330377 L1079.8154551973273,0.14211183940506888 Z" fill="hsla(0.7407407407407407, 100%, 50%, 0.53)" stroke="hsla(180.74074074074073, 100%, 50%, 1)" stroke-width="1.75" transform="rotate(65.44232519313078, 1069, 8)" filter="url(#blur-5)"></path><path d="M1569,204 L1499.9013005637923,226.45110903027123 L1499.9016994374947,299.10565162951536 L1457.1967534812077,240.32665749610854 L1388.0983005625053,262.7785252292473 L1430.80389191,204 L1388.0983005625053,145.2214747707527 L1457.1967534812077,167.6733425038915 L1499.9016994374947,108.89434837048464 L1499.9013005637923,181.54889096972877 Z" fill="hsla(18.88888888888889, 100%, 50%, 0.535)" stroke="hsla(198.88888888888889, 100%, 50%, 1)" stroke-width="5" transform="rotate(63.36359002575742, 1469, 204)" filter="url(#blur-5)"></path><path d="M43,637 L35.39914306201717,639.4696219933298 L35.39918693812442,647.4616216792467 L30.701642882932834,640.995932324572 L23.100813061875577,643.4656377752173 L27.7984281101,637 L23.100813061875577,630.5343622247829 L30.701642882932834,633.004067675428 L35.399186938124416,626.5383783207533 L35.39914306201717,634.5303780066702 Z" fill="hsla(58.98148148148148, 100%, 50%, 0.54)" stroke="hsla(238.98148148148147, 100%, 50%, 1)" stroke-width="0.55" transform="rotate(57.09500966238211, 32, 637)" filter="url(#blur-5)"></path><path d="M916,632 L891.8154551973273,639.8578881605949 L891.8155948031232,665.2869780703304 L876.8688637184226,644.714330123638 L852.6844051968768,652.5724838302366 L867.6313621685,632 L852.6844051968768,611.4275161697634 L876.8688637184226,619.285669876362 L891.8155948031232,598.7130219296696 L891.8154551973273,624.1421118394051 Z" fill="hsla(58.51851851851851, 100%, 50%, 0.545)" stroke="hsla(238.5185185185185, 100%, 50%, 1)" stroke-width="1.75" transform="rotate(46.49790480683666, 881, 632)" filter="url(#blur-5)"></path><path d="M1079,225 L1040.3047283157237,237.57262105695187 L1040.3049516849971,278.2591649125286 L1016.3901819494763,245.34292819782078 L977.695048315003,257.9159741283785 L1001.6101794696,225 L977.695048315003,192.08402587162152 L1016.3901819494763,204.65707180217922 L1040.3049516849971,171.7408350874714 L1040.3047283157237,212.4273789430481 Z" fill="hsla(20.833333333333332, 100%, 50%, 0.55)" stroke="hsla(200.83333333333334, 100%, 50%, 1)" stroke-width="2.8" transform="rotate(63.995941149547235, 1023, 225)" filter="url(#blur-5)"></path><path d="M1867,474 L1832.4506502818963,485.2255545151356 L1832.4508497187473,521.5528258147576 L1811.0983767406037,492.16332874805425 L1776.5491502812527,503.38926261462365 L1797.901945955,474 L1776.5491502812527,444.61073738537635 L1811.0983767406037,455.83667125194575 L1832.4508497187473,426.4471741852423 L1832.4506502818963,462.7744454848644 Z" fill="hsla(43.888888888888886, 100%, 50%, 0.555)" stroke="hsla(223.88888888888889, 100%, 50%, 1)" stroke-width="2.5" transform="rotate(29.220724266505133, 1817, 474)" filter="url(#blur-5)"></path><path d="M1056,216 L1025.5965722480687,225.87848797331935 L1025.5967477524978,257.84648671698676 L1006.8065715317314,231.98372929828776 L976.4032522475023,241.8625511008688 L995.1937124404,216 L976.4032522475023,190.1374488991312 L1006.8065715317314,200.01627070171224 L1025.5967477524978,174.15351328301324 L1025.5965722480687,206.12151202668065 Z" fill="hsla(20, 100%, 50%, 0.56)" stroke="hsla(200, 100%, 50%, 1)" stroke-width="2.2" transform="rotate(48.83039329006022, 1012, 216)" filter="url(#blur-5)"></path><path d="M1848,871 L1797.5579494115684,887.389309592098 L1797.558240589371,940.4271256895462 L1766.3836300412815,897.5184599721592 L1715.941759410629,913.9083234173505 L1747.1168410943,871 L1715.941759410629,828.0916765826495 L1766.3836300412815,844.4815400278408 L1797.558240589371,801.5728743104538 L1797.5579494115684,854.610690407902 Z" fill="hsla(80.64814814814814, 100%, 50%, 0.5650000000000001)" stroke="hsla(260.64814814814815, 100%, 50%, 1)" stroke-width="3.65" transform="rotate(41.452114231449585, 1775, 871)" filter="url(#blur-5)"></path><path d="M1839,198 L1834.8540780338276,199.34706654181628 L1834.8541019662496,203.70633909777092 L1832.2918052088723,200.1795994497665 L1828.1458980337504,201.52671151375483 L1830.7082335146,198 L1828.1458980337504,194.47328848624517 L1832.2918052088723,195.8204005502335 L1834.8541019662496,192.29366090222908 L1834.8540780338276,196.65293345818372 Z" fill="hsla(18.333333333333332, 100%, 50%, 0.5700000000000001)" stroke="hsla(198.33333333333334, 100%, 50%, 1)" stroke-width="0.3" transform="rotate(63.629000435677426, 1833, 198)" filter="url(#blur-5)"></path><path d="M1910,582 L1852.6480794679478,600.6344204951251 L1852.6484105331206,660.9376908524978 L1817.2033053894022,612.1511257217701 L1759.8515894668794,630.7861759402753 L1795.2972302853,582 L1759.8515894668794,533.2138240597247 L1817.2033053894022,551.8488742782299 L1852.6484105331206,503.0623091475022 L1852.6480794679478,563.3655795048749 Z" fill="hsla(53.888888888888886, 100%, 50%, 0.5750000000000001)" stroke="hsla(233.88888888888889, 100%, 50%, 1)" stroke-width="4.15" transform="rotate(43.1106855004447, 1827, 582)" filter="url(#blur-5)"></path><path d="M1230,687 L1177.4849884284822,704.0628428630062 L1177.485291572496,759.2802952384317 L1145.0295326457178,714.6082596970425 L1092.514708427504,731.671679174228 L1124.9709578516,687 L1092.514708427504,642.328320825772 L1145.0295326457178,659.3917403029575 L1177.485291572496,614.7197047615683 L1177.4849884284822,669.9371571369938 Z" fill="hsla(63.61111111111111, 100%, 50%, 0.5800000000000001)" stroke="hsla(243.61111111111111, 100%, 50%, 1)" stroke-width="3.8" transform="rotate(57.22467345049887, 1154, 687)" filter="url(#blur-5)"></path><path d="M363,709 L355.3991430620172,711.4696219933298 L355.39918693812444,719.4616216792467 L350.70164288293284,712.995932324572 L343.10081306187556,715.4656377752173 L347.7984281101,709 L343.10081306187556,702.5343622247829 L350.70164288293284,705.004067675428 L355.39918693812444,698.5383783207533 L355.3991430620172,706.5303780066702 Z" fill="hsla(65.64814814814814, 100%, 50%, 0.5850000000000001)" stroke="hsla(245.64814814814815, 100%, 50%, 1)" stroke-width="0.55" transform="rotate(66.50986355709063, 352, 709)" filter="url(#blur-5)"></path><path d="M1938,202 L1910.360520225517,210.9804436121085 L1910.3606797749978,240.04226065180615 L1893.278701392483,216.5306629984434 L1865.6393202250022,225.51141009169893 L1882.721556764,202 L1865.6393202250022,178.4885899083011 L1893.278701392483,187.4693370015566 L1910.3606797749978,163.95773934819385 L1910.360520225517,193.0195563878915 Z" fill="hsla(18.703703703703702, 100%, 50%, 0.5900000000000001)" stroke="hsla(198.7037037037037, 100%, 50%, 1)" stroke-width="2" transform="rotate(69.6163600270039, 1898, 202)" filter="url(#blur-5)"></path><path d="M226,837 L158.97426154687864,858.7775757593631 L158.9746484543699,929.2524820806299 L117.55085087677136,872.2368577712252 L50.5253515456301,894.01516947237 L91.9497751527,837 L50.5253515456301,779.9848305276302 L117.55085087677135,801.7631422287748 L158.97464845436988,744.7475179193701 L158.97426154687864,815.2224242406369 Z" fill="hsla(77.5, 100%, 50%, 0.595)" stroke="hsla(257.5, 100%, 50%, 1)" stroke-width="4.85" transform="rotate(43.01280937973393, 129, 837)" filter="url(#blur-5)"></path><path d="M444,617 L419.12446820296526,625.0823992508977 L419.1246117974981,651.2380345866255 L403.7508312532347,630.0775966985991 L378.8753882025019,638.160269082529 L394.2494010876,617 L378.8753882025019,595.839730917471 L403.7508312532347,603.9224033014009 L419.1246117974981,582.7619654133745 L419.12446820296526,608.9176007491023 Z" fill="hsla(57.129629629629626, 100%, 50%, 0.6)" stroke="hsla(237.12962962962962, 100%, 50%, 1)" stroke-width="1.8" transform="rotate(17.198215383260848, 408, 617)" filter="url(#blur-6)"></path><path d="M343,720 L312.59657224806864,729.8784879733194 L312.59674775249766,761.8464867169868 L293.8065715317313,735.9837292982877 L263.40325224750234,745.8625511008688 L282.1937124404,720 L263.40325224750234,694.1374488991312 L293.8065715317313,704.0162707017123 L312.59674775249766,678.1535132830132 L312.59657224806864,710.1215120266806 Z" fill="hsla(66.66666666666666, 100%, 50%, 0.605)" stroke="hsla(246.66666666666666, 100%, 50%, 1)" stroke-width="2.2" transform="rotate(55.352188502504404, 299, 720)" filter="url(#blur-6)"></path><path d="M574,330 L562.9442080902068,333.5921774448434 L562.9442719099992,345.21690426072246 L556.1114805569932,335.81226519937735 L545.0557280900008,339.4045640366796 L551.8886227056,330 L545.0557280900008,320.5954359633204 L556.1114805569932,324.18773480062265 L562.9442719099992,314.78309573927754 L562.9442080902068,326.4078225551566 Z" fill="hsla(30.555555555555554, 100%, 50%, 0.61)" stroke="hsla(210.55555555555554, 100%, 50%, 1)" stroke-width="0.8" transform="rotate(32.92273421637512, 558, 330)" filter="url(#blur-6)"></path><path d="M1056,1032 L1006.2489364059305,1048.1647985017953 L1006.2492235949962,1100.476069173251 L975.5016625064694,1058.1551933971982 L925.7507764050038,1074.320538165058 L956.4988021752,1032 L925.7507764050038,989.6794618349419 L975.5016625064694,1005.8448066028019 L1006.2492235949962,963.5239308267489 L1006.2489364059305,1015.8352014982047 Z" fill="hsla(95.55555555555554, 100%, 50%, 0.615)" stroke="hsla(275.55555555555554, 100%, 50%, 1)" stroke-width="3.6" transform="rotate(63.713985374371845, 984, 1032)" filter="url(#blur-6)"></path><path d="M86,277 L30.721040451033932,294.960887224217 L30.721359549995796,353.0845213036123 L-3.4425972150339277,306.0613259968868 L-58.72135954999578,324.02282018339787 L-24.556886472,277 L-58.721359549995796,229.97717981660216 L-3.442597215033935,247.9386740031132 L30.72135954999578,200.9154786963877 L30.72104045103393,259.039112775783 Z" fill="hsla(25.648148148148145, 100%, 50%, 0.62)" stroke="hsla(205.64814814814815, 100%, 50%, 1)" stroke-width="4" transform="rotate(6.7411465793286, 6, 277)" filter="url(#blur-6)"></path><path d="M619,611 L558.8841314904994,630.532464856336 L558.8844785106204,693.7419169176784 L521.7311755286506,642.6041920216144 L461.6155214893796,662.1373169494452 L498.7693859617,611 L461.6155214893796,559.8626830505549 L521.7311755286506,579.3958079783856 L558.8844785106204,528.2580830823216 L558.8841314904994,591.467535143664 Z" fill="hsla(56.57407407407407, 100%, 50%, 0.625)" stroke="hsla(236.57407407407408, 100%, 50%, 1)" stroke-width="4.35" transform="rotate(44.43911722103985, 532, 611)" filter="url(#blur-6)"></path><path d="M1649,353 L1606.8497933439135,366.69517650846547 L1606.850036656872,411.01444749400434 L1580.8000196235366,375.1592610726262 L1538.6499633431283,388.85490038984085 L1564.7003740651,353 L1538.649963343128,317.14509961015915 L1580.8000196235366,330.8407389273738 L1606.8500366568717,294.98555250599566 L1606.8497933439135,339.30482349153453 Z" fill="hsla(32.68518518518518, 100%, 50%, 0.63)" stroke="hsla(212.6851851851852, 100%, 50%, 1)" stroke-width="3.05" transform="rotate(43.21846444628036, 1588, 353)" filter="url(#blur-6)"></path><path d="M786,944 L773.5622341014827,948.0411996254488 L773.5623058987491,961.1190172933127 L765.8754156266174,950.5387983492996 L753.4376941012509,954.5801345412646 L761.1247005438,944 L753.4376941012509,933.4198654587354 L765.8754156266174,937.4612016507004 L773.5623058987491,926.8809827066873 L773.5622341014827,939.9588003745512 Z" fill="hsla(87.4074074074074, 100%, 50%, 0.635)" stroke="hsla(267.4074074074074, 100%, 50%, 1)" stroke-width="0.9" transform="rotate(55.12463751054729, 768, 944)" filter="url(#blur-6)"></path><path d="M675,461 L670.8540780338276,462.3470665418163 L670.8541019662497,466.7063390977709 L668.2918052088725,463.1795994497665 L664.1458980337503,464.52671151375483 L666.7082335146,461 L664.1458980337503,457.47328848624517 L668.2918052088725,458.8204005502335 L670.8541019662497,455.2936609022291 L670.8540780338276,459.6529334581837 Z" fill="hsla(42.68518518518518, 100%, 50%, 0.6399999999999999)" stroke="hsla(222.6851851851852, 100%, 50%, 1)" stroke-width="0.3" transform="rotate(12.204895953515393, 669, 461)" filter="url(#blur-6)"></path><path d="M1559,812 L1503.0300534566718,830.1853983145197 L1503.0303765443707,889.0355778199074 L1468.4393703197782,841.4245925718479 L1412.4696234556293,859.6106054356903 L1447.0611524471,812 L1412.4696234556293,764.3893945643097 L1468.4393703197782,782.5754074281521 L1503.0303765443707,734.9644221800926 L1503.0300534566718,793.8146016854803 Z" fill="hsla(75.18518518518518, 100%, 50%, 0.645)" stroke="hsla(255.18518518518516, 100%, 50%, 1)" stroke-width="4.05" transform="rotate(5.580951533129882, 1478, 812)" filter="url(#blur-6)"></path><path d="M935,13 L897.6867023044479,25.12359887634646 L897.6869176962472,64.3570518799383 L874.6262468798521,32.61639504789861 L837.3130823037528,44.740403623793554 L860.3741016314,13.000000000000002 L837.3130823037528,-18.740403623793544 L874.6262468798521,-6.616395047898603 L897.6869176962472,-38.3570518799383 L897.6867023044479,0.876401123653535 Z" fill="hsla(1.2037037037037037, 100%, 50%, 0.65)" stroke="hsla(181.2037037037037, 100%, 50%, 1)" stroke-width="2.7" transform="rotate(38.93792179518967, 881, 13)" filter="url(#blur-6)"></path><path d="M672,535 L639.5236112649825,545.5520212442275 L639.5237987356226,579.6996562658722 L619.4524741361676,552.073529023171 L586.9762012643774,562.6259068577463 L607.0478291977,535 L586.9762012643774,507.37409314225374 L619.4524741361676,517.926470976829 L639.5237987356226,490.30034373412775 L639.5236112649824,524.4479787557725 Z" fill="hsla(49.53703703703703, 100%, 50%, 0.655)" stroke="hsla(229.53703703703704, 100%, 50%, 1)" stroke-width="2.35" transform="rotate(12.683121065342634, 625, 535)" filter="url(#blur-6)"></path><path d="M1684,1015 L1634.9399234002926,1030.9402874114926 L1634.9402066006212,1082.5250126569558 L1604.6196949716573,1040.791926822237 L1555.5597933993788,1056.7327529127656 L1585.8807632561,1015 L1555.5597933993788,973.2672470872344 L1604.6196949716573,989.2080731777629 L1634.9402066006212,947.4749873430441 L1634.9399234002926,999.0597125885074 Z" fill="hsla(93.98148148148148, 100%, 50%, 0.6599999999999999)" stroke="hsla(273.98148148148147, 100%, 50%, 1)" stroke-width="3.55" transform="rotate(66.5753742856881, 1613, 1015)" filter="url(#blur-6)"></path><path d="M150,589 L116.14163727625828,600.0010434248329 L116.14183272437242,635.6017692984625 L95.21640920579172,606.8000621730932 L61.35816727562758,617.8014773623312 L82.2839070359,589 L61.35816727562757,560.1985226376688 L95.21640920579172,571.1999378269068 L116.14183272437242,542.3982307015375 L116.14163727625828,577.9989565751671 Z" fill="hsla(54.53703703703703, 100%, 50%, 0.665)" stroke="hsla(234.53703703703704, 100%, 50%, 1)" stroke-width="2.45" transform="rotate(12.520731294548172, 101, 589)" filter="url(#blur-6)"></path><path d="M247,375 L193.10301443975808,392.5118650436116 L193.1033255612459,449.182408271022 L159.79346771534193,403.33479284696466 L105.8966744387541,420.8472496788129 L139.2070356898,375 L105.8966744387541,329.1527503211871 L159.7934677153419,346.66520715303534 L193.1033255612459,300.817591728978 L193.10301443975808,357.4881349563884 Z" fill="hsla(34.72222222222222, 100%, 50%, 0.67)" stroke="hsla(214.72222222222223, 100%, 50%, 1)" stroke-width="3.9" transform="rotate(15.581754393764765, 169, 375)" filter="url(#blur-6)"></path><path d="M1556,562 L1493.1201835130512,582.4305092175468 L1493.1205464881202,648.546142982859 L1454.2590456678988,595.0572583214588 L1391.3794535118798,615.4884579586151 L1430.2415416381,562 L1391.3794535118798,508.5115420413849 L1454.2590456678988,528.9427416785412 L1493.1205464881202,475.453857017141 L1493.1201835130512,541.5694907824532 Z" fill="hsla(52.03703703703703, 100%, 50%, 0.675)" stroke="hsla(232.03703703703704, 100%, 50%, 1)" stroke-width="4.55" transform="rotate(35.57423169372845, 1465, 562)" filter="url(#blur-6)"></path><path d="M634,485 L587.7038713777409,500.04224305028174 L587.7041386231215,548.7207865917753 L559.0918248324091,509.33886052239274 L512.7958613768785,524.3816119035957 L541.4086075797,485 L512.7958613768785,445.6183880964043 L559.0918248324091,460.66113947760726 L587.7041386231215,421.2792134082247 L587.7038713777409,469.95775694971826 Z" fill="hsla(44.907407407407405, 100%, 50%, 0.6799999999999999)" stroke="hsla(224.9074074074074, 100%, 50%, 1)" stroke-width="3.35" transform="rotate(67.15209093190246, 567, 485)" filter="url(#blur-6)"></path><path d="M343,712 L340.2360520225517,712.8980443612109 L340.2360679774998,715.8042260651806 L338.5278701392483,713.4530662998443 L335.7639320225002,714.3511410091699 L337.4721556764,712 L335.7639320225002,709.6488589908301 L338.5278701392483,710.5469337001557 L340.2360679774998,708.1957739348194 L340.2360520225517,711.1019556387891 Z" fill="hsla(65.92592592592592, 100%, 50%, 0.6849999999999999)" stroke="hsla(245.92592592592592, 100%, 50%, 1)" stroke-width="0.2" transform="rotate(52.028101363521, 339, 712)" filter="url(#blur-6)"></path><path d="M1350,1068 L1282.9742615468786,1089.7775757593631 L1282.9746484543698,1160.25248208063 L1241.5508508767714,1103.2368577712252 L1174.5253515456302,1125.01516947237 L1215.9497751527,1068 L1174.5253515456302,1010.9848305276302 L1241.5508508767714,1032.7631422287748 L1282.9746484543698,975.7475179193701 L1282.9742615468786,1046.2224242406369 Z" fill="hsla(98.88888888888889, 100%, 50%, 0.6900000000000001)" stroke="hsla(278.8888888888889, 100%, 50%, 1)" stroke-width="4.85" transform="rotate(1.3918332204129218, 1253, 1068)" filter="url(#blur-6)"></path><path d="M1114,678 L1049.738209524327,698.8795313981523 L1049.73858047687,766.4482560154493 L1010.0229807375231,711.7837914713809 L945.7614195231299,732.6640284632 L985.4776194763,678 L945.7614195231299,623.3359715368 L1010.0229807375231,644.2162085286191 L1049.73858047687,589.5517439845507 L1049.738209524327,657.1204686018477 Z" fill="hsla(62.77777777777777, 100%, 50%, 0.6950000000000001)" stroke="hsla(242.77777777777777, 100%, 50%, 1)" stroke-width="4.65" transform="rotate(13.39045924021902, 1021, 678)" filter="url(#blur-6)"></path><path d="M278,720 L270.3991430620172,722.4696219933298 L270.39918693812444,730.4616216792467 L265.70164288293284,723.995932324572 L258.10081306187556,726.4656377752173 L262.7984281101,720 L258.10081306187556,713.5343622247829 L265.70164288293284,716.004067675428 L270.39918693812444,709.5383783207533 L270.3991430620172,717.5303780066702 Z" fill="hsla(66.66666666666666, 100%, 50%, 0.7)" stroke="hsla(246.66666666666666, 100%, 50%, 1)" stroke-width="0.55" transform="rotate(65.67086870454713, 267, 720)" filter="url(#blur-7)"></path><path d="M1872,654 L1828.4678193551892,668.1441986890709 L1828.4680706456218,713.9165605265947 L1801.5639546931607,676.8857942225484 L1758.0319293543782,691.0304708944258 L1784.9364519033,654 L1758.0319293543782,616.9695291055742 L1801.5639546931607,631.1142057774516 L1828.4680706456218,594.0834394734053 L1828.4678193551892,639.8558013109291 Z" fill="hsla(60.55555555555555, 100%, 50%, 0.705)" stroke="hsla(240.55555555555554, 100%, 50%, 1)" stroke-width="3.15" transform="rotate(19.41981567224935, 1809, 654)" filter="url(#blur-7)"></path><path d="M926,672 L921.8540780338276,673.3470665418163 L921.8541019662497,677.7063390977709 L919.2918052088725,674.1795994497666 L915.1458980337503,675.5267115137549 L917.7082335146,672 L915.1458980337503,668.4732884862451 L919.2918052088725,669.8204005502334 L921.8541019662497,666.293660902229 L921.8540780338276,670.6529334581837 Z" fill="hsla(62.22222222222222, 100%, 50%, 0.7100000000000001)" stroke="hsla(242.22222222222223, 100%, 50%, 1)" stroke-width="0.3" transform="rotate(24.215082156675955, 920, 672)" filter="url(#blur-7)"></path><path d="M59,773 L29.978546236792813,782.4294657927139 L29.97871376374779,812.9443736843964 L12.042636462107188,788.2571961483656 L-16.97871376374779,797.6869805962839 L0.9576346022000024,773 L-16.97871376374779,748.3130194037161 L12.042636462107184,757.7428038516344 L29.978713763747784,733.0556263156036 L29.97854623679281,763.5705342072861 Z" fill="hsla(71.57407407407408, 100%, 50%, 0.7150000000000001)" stroke="hsla(251.57407407407408, 100%, 50%, 1)" stroke-width="2.1" transform="rotate(7.219772540246993, 17, 773)" filter="url(#blur-7)"></path></svg>
