<svg xmlns="http://www.w3.org/2000/svg" viewBox="0 0 1920 1010.5263157894738" data-reactroot=""><rect width="1920" height="1010.5263157894738" fill="white"></rect><rect y="0" width="1920" height="77.73279352226722" fill="#bb133e"></rect><rect y="77.73279352226722" width="1920" height="77.73279352226722" fill="none"></rect><rect y="155.46558704453443" width="1920" height="77.73279352226722" fill="#bb133e"></rect><rect y="233.19838056680163" width="1920" height="77.73279352226722" fill="none"></rect><rect y="310.93117408906886" width="1920" height="77.73279352226722" fill="#bb133e"></rect><rect y="388.6639676113361" width="1920" height="77.73279352226722" fill="none"></rect><rect y="466.39676113360326" width="1920" height="77.73279352226722" fill="#bb133e"></rect><rect y="544.1295546558705" width="1920" height="77.73279352226722" fill="none"></rect><rect y="621.8623481781377" width="1920" height="77.73279352226722" fill="#bb133e"></rect><rect y="699.595141700405" width="1920" height="77.73279352226722" fill="none"></rect><rect y="777.3279352226722" width="1920" height="77.73279352226722" fill="#bb133e"></rect><rect y="855.0607287449394" width="1920" height="77.73279352226722" fill="none"></rect><rect y="932.7935222672065" width="1920" height="77.73279352226722" fill="#bb133e"></rect><rect width="768" height="544.1295546558705" fill="#002147"></rect><g transform="translate(0, 0)"><path d="M63.66315789473684,23.444210526315793 L63.66315789473685,23.444210526315793 L70.65088833481116,44.95063520978722 L93.26404113033169,44.95051106349638 L74.96954325099935,58.24208834808058 L81.95750983135142,79.7484363049247 L63.66315789473685,66.45665814742232 L45.36880595812228,79.7484363049247 L52.35677253847435,58.24208834808058 L34.062274659142005,44.95051106349638 L56.67542745466253,44.95063520978723 Z" fill="white"></path><path d="M190.98947368421054,23.444210526315793 L190.98947368421054,23.444210526315793 L197.97720412428484,44.95063520978722 L220.59035691980537,44.95051106349638 L202.29585904047303,58.24208834808058 L209.2838256208251,79.7484363049247 L190.98947368421054,66.45665814742232 L172.69512174759598,79.7484363049247 L179.68308832794804,58.24208834808058 L161.3885904486157,44.95051106349638 L184.00174324413624,44.95063520978723 Z" fill="white"></path><path d="M318.3157894736842,23.444210526315793 L318.3157894736842,23.444210526315793 L325.3035199137585,44.95063520978722 L347.91667270927906,44.95051106349638 L329.62217482994674,58.24208834808058 L336.6101414102988,79.7484363049247 L318.3157894736842,66.45665814742232 L300.02143753706963,79.7484363049247 L307.0094041174217,58.24208834808058 L288.7149062380894,44.95051106349638 L311.3280590336099,44.95063520978723 Z" fill="white"></path><path d="M445.64210526315793,23.444210526315793 L445.64210526315793,23.444210526315793 L452.62983570323223,44.95063520978722 L475.24298849875277,44.95051106349638 L456.94849061942045,58.24208834808058 L463.9364571997725,79.7484363049247 L445.64210526315793,66.45665814742232 L427.34775332654334,79.7484363049247 L434.3357199068954,58.24208834808058 L416.0412220275631,44.95051106349638 L438.65437482308363,44.95063520978723 Z" fill="white"></path><path d="M572.9684210526316,23.444210526315793 L572.9684210526316,23.444210526315793 L579.9561514927059,44.95063520978722 L602.5693042882265,44.95051106349638 L584.274806408894,58.24208834808058 L591.2627729892462,79.7484363049247 L572.9684210526316,66.45665814742232 L554.674069116017,79.7484363049247 L561.6620356963691,58.24208834808058 L543.3675378170367,44.95051106349638 L565.9806906125573,44.95063520978723 Z" fill="white"></path><path d="M700.2947368421053,23.444210526315793 L700.2947368421053,23.444210526315793 L707.2824672821796,44.95063520978722 L729.8956200777002,44.95051106349638 L711.6011221983678,58.24208834808058 L718.5890887787199,79.7484363049247 L700.2947368421053,66.45665814742232 L682.0003849054907,79.7484363049247 L688.9883514858428,58.24208834808058 L670.6938536065104,44.95051106349638 L693.307006402031,44.95063520978723 Z" fill="white"></path></g><g transform="translate(-63.66315789473685, 54.568421052631585)"><path d="M190.98947368421054,23.444210526315793 L190.98947368421054,23.444210526315793 L197.97720412428484,44.95063520978722 L220.59035691980537,44.95051106349638 L202.29585904047303,58.24208834808058 L209.2838256208251,79.7484363049247 L190.98947368421054,66.45665814742232 L172.69512174759598,79.7484363049247 L179.68308832794804,58.24208834808058 L161.3885904486157,44.95051106349638 L184.00174324413624,44.95063520978723 Z" fill="white"></path><path d="M318.3157894736842,23.444210526315793 L318.3157894736842,23.444210526315793 L325.3035199137585,44.95063520978722 L347.91667270927906,44.95051106349638 L329.62217482994674,58.24208834808058 L336.6101414102988,79.7484363049247 L318.3157894736842,66.45665814742232 L300.02143753706963,79.7484363049247 L307.0094041174217,58.24208834808058 L288.7149062380894,44.95051106349638 L311.3280590336099,44.95063520978723 Z" fill="white"></path><path d="M445.64210526315793,23.444210526315793 L445.64210526315793,23.444210526315793 L452.62983570323223,44.95063520978722 L475.24298849875277,44.95051106349638 L456.94849061942045,58.24208834808058 L463.9364571997725,79.7484363049247 L445.64210526315793,66.45665814742232 L427.34775332654334,79.7484363049247 L434.3357199068954,58.24208834808058 L416.0412220275631,44.95051106349638 L438.65437482308363,44.95063520978723 Z" fill="white"></path><path d="M572.9684210526316,23.444210526315793 L572.9684210526316,23.444210526315793 L579.9561514927059,44.95063520978722 L602.5693042882265,44.95051106349638 L584.274806408894,58.24208834808058 L591.2627729892462,79.7484363049247 L572.9684210526316,66.45665814742232 L554.674069116017,79.7484363049247 L561.6620356963691,58.24208834808058 L543.3675378170367,44.95051106349638 L565.9806906125573,44.95063520978723 Z" fill="white"></path><path d="M700.2947368421053,23.444210526315793 L700.2947368421053,23.444210526315793 L707.2824672821796,44.95063520978722 L729.8956200777002,44.95051106349638 L711.6011221983678,58.24208834808058 L718.5890887787199,79.7484363049247 L700.2947368421053,66.45665814742232 L682.0003849054907,79.7484363049247 L688.9883514858428,58.24208834808058 L670.6938536065104,44.95051106349638 L693.307006402031,44.95063520978723 Z" fill="white"></path></g><g transform="translate(0, 109.13684210526317)"><path d="M63.66315789473684,23.444210526315793 L63.66315789473685,23.444210526315793 L70.65088833481116,44.95063520978722 L93.26404113033169,44.95051106349638 L74.96954325099935,58.24208834808058 L81.95750983135142,79.7484363049247 L63.66315789473685,66.45665814742232 L45.36880595812228,79.7484363049247 L52.35677253847435,58.24208834808058 L34.062274659142005,44.95051106349638 L56.67542745466253,44.95063520978723 Z" fill="white"></path><path d="M190.98947368421054,23.444210526315793 L190.98947368421054,23.444210526315793 L197.97720412428484,44.95063520978722 L220.59035691980537,44.95051106349638 L202.29585904047303,58.24208834808058 L209.2838256208251,79.7484363049247 L190.98947368421054,66.45665814742232 L172.69512174759598,79.7484363049247 L179.68308832794804,58.24208834808058 L161.3885904486157,44.95051106349638 L184.00174324413624,44.95063520978723 Z" fill="white"></path><path d="M318.3157894736842,23.444210526315793 L318.3157894736842,23.444210526315793 L325.3035199137585,44.95063520978722 L347.91667270927906,44.95051106349638 L329.62217482994674,58.24208834808058 L336.6101414102988,79.7484363049247 L318.3157894736842,66.45665814742232 L300.02143753706963,79.7484363049247 L307.0094041174217,58.24208834808058 L288.7149062380894,44.95051106349638 L311.3280590336099,44.95063520978723 Z" fill="white"></path><path d="M445.64210526315793,23.444210526315793 L445.64210526315793,23.444210526315793 L452.62983570323223,44.95063520978722 L475.24298849875277,44.95051106349638 L456.94849061942045,58.24208834808058 L463.9364571997725,79.7484363049247 L445.64210526315793,66.45665814742232 L427.34775332654334,79.7484363049247 L434.3357199068954,58.24208834808058 L416.0412220275631,44.95051106349638 L438.65437482308363,44.95063520978723 Z" fill="white"></path><path d="M572.9684210526316,23.444210526315793 L572.9684210526316,23.444210526315793 L579.9561514927059,44.95063520978722 L602.5693042882265,44.95051106349638 L584.274806408894,58.24208834808058 L591.2627729892462,79.7484363049247 L572.9684210526316,66.45665814742232 L554.674069116017,79.7484363049247 L561.6620356963691,58.24208834808058 L543.3675378170367,44.95051106349638 L565.9806906125573,44.95063520978723 Z" fill="white"></path><path d="M700.2947368421053,23.444210526315793 L700.2947368421053,23.444210526315793 L707.2824672821796,44.95063520978722 L729.8956200777002,44.95051106349638 L711.6011221983678,58.24208834808058 L718.5890887787199,79.7484363049247 L700.2947368421053,66.45665814742232 L682.0003849054907,79.7484363049247 L688.9883514858428,58.24208834808058 L670.6938536065104,44.95051106349638 L693.307006402031,44.95063520978723 Z" fill="white"></path></g><g transform="translate(-63.66315789473685, 163.70526315789473)"><path d="M190.98947368421054,23.444210526315793 L190.98947368421054,23.444210526315793 L197.97720412428484,44.95063520978722 L220.59035691980537,44.95051106349638 L202.29585904047303,58.24208834808058 L209.2838256208251,79.7484363049247 L190.98947368421054,66.45665814742232 L172.69512174759598,79.7484363049247 L179.68308832794804,58.24208834808058 L161.3885904486157,44.95051106349638 L184.00174324413624,44.95063520978723 Z" fill="white"></path><path d="M318.3157894736842,23.444210526315793 L318.3157894736842,23.444210526315793 L325.3035199137585,44.95063520978722 L347.91667270927906,44.95051106349638 L329.62217482994674,58.24208834808058 L336.6101414102988,79.7484363049247 L318.3157894736842,66.45665814742232 L300.02143753706963,79.7484363049247 L307.0094041174217,58.24208834808058 L288.7149062380894,44.95051106349638 L311.3280590336099,44.95063520978723 Z" fill="white"></path><path d="M445.64210526315793,23.444210526315793 L445.64210526315793,23.444210526315793 L452.62983570323223,44.95063520978722 L475.24298849875277,44.95051106349638 L456.94849061942045,58.24208834808058 L463.9364571997725,79.7484363049247 L445.64210526315793,66.45665814742232 L427.34775332654334,79.7484363049247 L434.3357199068954,58.24208834808058 L416.0412220275631,44.95051106349638 L438.65437482308363,44.95063520978723 Z" fill="white"></path><path d="M572.9684210526316,23.444210526315793 L572.9684210526316,23.444210526315793 L579.9561514927059,44.95063520978722 L602.5693042882265,44.95051106349638 L584.274806408894,58.24208834808058 L591.2627729892462,79.7484363049247 L572.9684210526316,66.45665814742232 L554.674069116017,79.7484363049247 L561.6620356963691,58.24208834808058 L543.3675378170367,44.95051106349638 L565.9806906125573,44.95063520978723 Z" fill="white"></path><path d="M700.2947368421053,23.444210526315793 L700.2947368421053,23.444210526315793 L707.2824672821796,44.95063520978722 L729.8956200777002,44.95051106349638 L711.6011221983678,58.24208834808058 L718.5890887787199,79.7484363049247 L700.2947368421053,66.45665814742232 L682.0003849054907,79.7484363049247 L688.9883514858428,58.24208834808058 L670.6938536065104,44.95051106349638 L693.307006402031,44.95063520978723 Z" fill="white"></path></g><g transform="translate(0, 218.27368421052634)"><path d="M63.66315789473684,23.444210526315793 L63.66315789473685,23.444210526315793 L70.65088833481116,44.95063520978722 L93.26404113033169,44.95051106349638 L74.96954325099935,58.24208834808058 L81.95750983135142,79.7484363049247 L63.66315789473685,66.45665814742232 L45.36880595812228,79.7484363049247 L52.35677253847435,58.24208834808058 L34.062274659142005,44.95051106349638 L56.67542745466253,44.95063520978723 Z" fill="white"></path><path d="M190.98947368421054,23.444210526315793 L190.98947368421054,23.444210526315793 L197.97720412428484,44.95063520978722 L220.59035691980537,44.95051106349638 L202.29585904047303,58.24208834808058 L209.2838256208251,79.7484363049247 L190.98947368421054,66.45665814742232 L172.69512174759598,79.7484363049247 L179.68308832794804,58.24208834808058 L161.3885904486157,44.95051106349638 L184.00174324413624,44.95063520978723 Z" fill="white"></path><path d="M318.3157894736842,23.444210526315793 L318.3157894736842,23.444210526315793 L325.3035199137585,44.95063520978722 L347.91667270927906,44.95051106349638 L329.62217482994674,58.24208834808058 L336.6101414102988,79.7484363049247 L318.3157894736842,66.45665814742232 L300.02143753706963,79.7484363049247 L307.0094041174217,58.24208834808058 L288.7149062380894,44.95051106349638 L311.3280590336099,44.95063520978723 Z" fill="white"></path><path d="M445.64210526315793,23.444210526315793 L445.64210526315793,23.444210526315793 L452.62983570323223,44.95063520978722 L475.24298849875277,44.95051106349638 L456.94849061942045,58.24208834808058 L463.9364571997725,79.7484363049247 L445.64210526315793,66.45665814742232 L427.34775332654334,79.7484363049247 L434.3357199068954,58.24208834808058 L416.0412220275631,44.95051106349638 L438.65437482308363,44.95063520978723 Z" fill="white"></path><path d="M572.9684210526316,23.444210526315793 L572.9684210526316,23.444210526315793 L579.9561514927059,44.95063520978722 L602.5693042882265,44.95051106349638 L584.274806408894,58.24208834808058 L591.2627729892462,79.7484363049247 L572.9684210526316,66.45665814742232 L554.674069116017,79.7484363049247 L561.6620356963691,58.24208834808058 L543.3675378170367,44.95051106349638 L565.9806906125573,44.95063520978723 Z" fill="white"></path><path d="M700.2947368421053,23.444210526315793 L700.2947368421053,23.444210526315793 L707.2824672821796,44.95063520978722 L729.8956200777002,44.95051106349638 L711.6011221983678,58.24208834808058 L718.5890887787199,79.7484363049247 L700.2947368421053,66.45665814742232 L682.0003849054907,79.7484363049247 L688.9883514858428,58.24208834808058 L670.6938536065104,44.95051106349638 L693.307006402031,44.95063520978723 Z" fill="white"></path></g><g transform="translate(-63.66315789473685, 272.84210526315786)"><path d="M190.98947368421054,23.444210526315793 L190.98947368421054,23.444210526315793 L197.97720412428484,44.95063520978722 L220.59035691980537,44.95051106349638 L202.29585904047303,58.24208834808058 L209.2838256208251,79.7484363049247 L190.98947368421054,66.45665814742232 L172.69512174759598,79.7484363049247 L179.68308832794804,58.24208834808058 L161.3885904486157,44.95051106349638 L184.00174324413624,44.95063520978723 Z" fill="white"></path><path d="M318.3157894736842,23.444210526315793 L318.3157894736842,23.444210526315793 L325.3035199137585,44.95063520978722 L347.91667270927906,44.95051106349638 L329.62217482994674,58.24208834808058 L336.6101414102988,79.7484363049247 L318.3157894736842,66.45665814742232 L300.02143753706963,79.7484363049247 L307.0094041174217,58.24208834808058 L288.7149062380894,44.95051106349638 L311.3280590336099,44.95063520978723 Z" fill="white"></path><path d="M445.64210526315793,23.444210526315793 L445.64210526315793,23.444210526315793 L452.62983570323223,44.95063520978722 L475.24298849875277,44.95051106349638 L456.94849061942045,58.24208834808058 L463.9364571997725,79.7484363049247 L445.64210526315793,66.45665814742232 L427.34775332654334,79.7484363049247 L434.3357199068954,58.24208834808058 L416.0412220275631,44.95051106349638 L438.65437482308363,44.95063520978723 Z" fill="white"></path><path d="M572.9684210526316,23.444210526315793 L572.9684210526316,23.444210526315793 L579.9561514927059,44.95063520978722 L602.5693042882265,44.95051106349638 L584.274806408894,58.24208834808058 L591.2627729892462,79.7484363049247 L572.9684210526316,66.45665814742232 L554.674069116017,79.7484363049247 L561.6620356963691,58.24208834808058 L543.3675378170367,44.95051106349638 L565.9806906125573,44.95063520978723 Z" fill="white"></path><path d="M700.2947368421053,23.444210526315793 L700.2947368421053,23.444210526315793 L707.2824672821796,44.95063520978722 L729.8956200777002,44.95051106349638 L711.6011221983678,58.24208834808058 L718.5890887787199,79.7484363049247 L700.2947368421053,66.45665814742232 L682.0003849054907,79.7484363049247 L688.9883514858428,58.24208834808058 L670.6938536065104,44.95051106349638 L693.307006402031,44.95063520978723 Z" fill="white"></path></g><g transform="translate(0, 327.41052631578947)"><path d="M63.66315789473684,23.444210526315793 L63.66315789473685,23.444210526315793 L70.65088833481116,44.95063520978722 L93.26404113033169,44.95051106349638 L74.96954325099935,58.24208834808058 L81.95750983135142,79.7484363049247 L63.66315789473685,66.45665814742232 L45.36880595812228,79.7484363049247 L52.35677253847435,58.24208834808058 L34.062274659142005,44.95051106349638 L56.67542745466253,44.95063520978723 Z" fill="white"></path><path d="M190.98947368421054,23.444210526315793 L190.98947368421054,23.444210526315793 L197.97720412428484,44.95063520978722 L220.59035691980537,44.95051106349638 L202.29585904047303,58.24208834808058 L209.2838256208251,79.7484363049247 L190.98947368421054,66.45665814742232 L172.69512174759598,79.7484363049247 L179.68308832794804,58.24208834808058 L161.3885904486157,44.95051106349638 L184.00174324413624,44.95063520978723 Z" fill="white"></path><path d="M318.3157894736842,23.444210526315793 L318.3157894736842,23.444210526315793 L325.3035199137585,44.95063520978722 L347.91667270927906,44.95051106349638 L329.62217482994674,58.24208834808058 L336.6101414102988,79.7484363049247 L318.3157894736842,66.45665814742232 L300.02143753706963,79.7484363049247 L307.0094041174217,58.24208834808058 L288.7149062380894,44.95051106349638 L311.3280590336099,44.95063520978723 Z" fill="white"></path><path d="M445.64210526315793,23.444210526315793 L445.64210526315793,23.444210526315793 L452.62983570323223,44.95063520978722 L475.24298849875277,44.95051106349638 L456.94849061942045,58.24208834808058 L463.9364571997725,79.7484363049247 L445.64210526315793,66.45665814742232 L427.34775332654334,79.7484363049247 L434.3357199068954,58.24208834808058 L416.0412220275631,44.95051106349638 L438.65437482308363,44.95063520978723 Z" fill="white"></path><path d="M572.9684210526316,23.444210526315793 L572.9684210526316,23.444210526315793 L579.9561514927059,44.95063520978722 L602.5693042882265,44.95051106349638 L584.274806408894,58.24208834808058 L591.2627729892462,79.7484363049247 L572.9684210526316,66.45665814742232 L554.674069116017,79.7484363049247 L561.6620356963691,58.24208834808058 L543.3675378170367,44.95051106349638 L565.9806906125573,44.95063520978723 Z" fill="white"></path><path d="M700.2947368421053,23.444210526315793 L700.2947368421053,23.444210526315793 L707.2824672821796,44.95063520978722 L729.8956200777002,44.95051106349638 L711.6011221983678,58.24208834808058 L718.5890887787199,79.7484363049247 L700.2947368421053,66.45665814742232 L682.0003849054907,79.7484363049247 L688.9883514858428,58.24208834808058 L670.6938536065104,44.95051106349638 L693.307006402031,44.95063520978723 Z" fill="white"></path></g><g transform="translate(-63.66315789473685, 381.9789473684211)"><path d="M190.98947368421054,23.444210526315793 L190.98947368421054,23.444210526315793 L197.97720412428484,44.95063520978722 L220.59035691980537,44.95051106349638 L202.29585904047303,58.24208834808058 L209.2838256208251,79.7484363049247 L190.98947368421054,66.45665814742232 L172.69512174759598,79.7484363049247 L179.68308832794804,58.24208834808058 L161.3885904486157,44.95051106349638 L184.00174324413624,44.95063520978723 Z" fill="white"></path><path d="M318.3157894736842,23.444210526315793 L318.3157894736842,23.444210526315793 L325.3035199137585,44.95063520978722 L347.91667270927906,44.95051106349638 L329.62217482994674,58.24208834808058 L336.6101414102988,79.7484363049247 L318.3157894736842,66.45665814742232 L300.02143753706963,79.7484363049247 L307.0094041174217,58.24208834808058 L288.7149062380894,44.95051106349638 L311.3280590336099,44.95063520978723 Z" fill="white"></path><path d="M445.64210526315793,23.444210526315793 L445.64210526315793,23.444210526315793 L452.62983570323223,44.95063520978722 L475.24298849875277,44.95051106349638 L456.94849061942045,58.24208834808058 L463.9364571997725,79.7484363049247 L445.64210526315793,66.45665814742232 L427.34775332654334,79.7484363049247 L434.3357199068954,58.24208834808058 L416.0412220275631,44.95051106349638 L438.65437482308363,44.95063520978723 Z" fill="white"></path><path d="M572.9684210526316,23.444210526315793 L572.9684210526316,23.444210526315793 L579.9561514927059,44.95063520978722 L602.5693042882265,44.95051106349638 L584.274806408894,58.24208834808058 L591.2627729892462,79.7484363049247 L572.9684210526316,66.45665814742232 L554.674069116017,79.7484363049247 L561.6620356963691,58.24208834808058 L543.3675378170367,44.95051106349638 L565.9806906125573,44.95063520978723 Z" fill="white"></path><path d="M700.2947368421053,23.444210526315793 L700.2947368421053,23.444210526315793 L707.2824672821796,44.95063520978722 L729.8956200777002,44.95051106349638 L711.6011221983678,58.24208834808058 L718.5890887787199,79.7484363049247 L700.2947368421053,66.45665814742232 L682.0003849054907,79.7484363049247 L688.9883514858428,58.24208834808058 L670.6938536065104,44.95051106349638 L693.307006402031,44.95063520978723 Z" fill="white"></path></g><g transform="translate(0, 436.5473684210527)"><path d="M63.66315789473684,23.444210526315793 L63.66315789473685,23.444210526315793 L70.65088833481116,44.95063520978722 L93.26404113033169,44.95051106349638 L74.96954325099935,58.24208834808058 L81.95750983135142,79.7484363049247 L63.66315789473685,66.45665814742232 L45.36880595812228,79.7484363049247 L52.35677253847435,58.24208834808058 L34.062274659142005,44.95051106349638 L56.67542745466253,44.95063520978723 Z" fill="white"></path><path d="M190.98947368421054,23.444210526315793 L190.98947368421054,23.444210526315793 L197.97720412428484,44.95063520978722 L220.59035691980537,44.95051106349638 L202.29585904047303,58.24208834808058 L209.2838256208251,79.7484363049247 L190.98947368421054,66.45665814742232 L172.69512174759598,79.7484363049247 L179.68308832794804,58.24208834808058 L161.3885904486157,44.95051106349638 L184.00174324413624,44.95063520978723 Z" fill="white"></path><path d="M318.3157894736842,23.444210526315793 L318.3157894736842,23.444210526315793 L325.3035199137585,44.95063520978722 L347.91667270927906,44.95051106349638 L329.62217482994674,58.24208834808058 L336.6101414102988,79.7484363049247 L318.3157894736842,66.45665814742232 L300.02143753706963,79.7484363049247 L307.0094041174217,58.24208834808058 L288.7149062380894,44.95051106349638 L311.3280590336099,44.95063520978723 Z" fill="white"></path><path d="M445.64210526315793,23.444210526315793 L445.64210526315793,23.444210526315793 L452.62983570323223,44.95063520978722 L475.24298849875277,44.95051106349638 L456.94849061942045,58.24208834808058 L463.9364571997725,79.7484363049247 L445.64210526315793,66.45665814742232 L427.34775332654334,79.7484363049247 L434.3357199068954,58.24208834808058 L416.0412220275631,44.95051106349638 L438.65437482308363,44.95063520978723 Z" fill="white"></path><path d="M572.9684210526316,23.444210526315793 L572.9684210526316,23.444210526315793 L579.9561514927059,44.95063520978722 L602.5693042882265,44.95051106349638 L584.274806408894,58.24208834808058 L591.2627729892462,79.7484363049247 L572.9684210526316,66.45665814742232 L554.674069116017,79.7484363049247 L561.6620356963691,58.24208834808058 L543.3675378170367,44.95051106349638 L565.9806906125573,44.95063520978723 Z" fill="white"></path><path d="M700.2947368421053,23.444210526315793 L700.2947368421053,23.444210526315793 L707.2824672821796,44.95063520978722 L729.8956200777002,44.95051106349638 L711.6011221983678,58.24208834808058 L718.5890887787199,79.7484363049247 L700.2947368421053,66.45665814742232 L682.0003849054907,79.7484363049247 L688.9883514858428,58.24208834808058 L670.6938536065104,44.95051106349638 L693.307006402031,44.95063520978723 Z" fill="white"></path></g></svg>
